<?xml version="1.0" encoding="utf-8"?>
<!DOCTYPE svg PUBLIC "-//W3C//DTD SVG 20010904//EN" "http://www.w3.org/TR/2001/REC-SVG-20010904/DTD/svg10.dtd">
<svg xmlns="http://www.w3.org/2000/svg" xml:space="preserve" xmlns:xlink="http://www.w3.org/1999/xlink" width="420" height="420" viewBox="0 0 420 420">
<desc></desc>
<rect width="420" height="420" fill="#ffffff" cx="0" cy="0" />
<defs>
<rect id="p" width="12" height="12" />
</defs>
<g fill="#000000">
<use x="12" y="12" xlink:href="#p" />
<use x="24" y="12" xlink:href="#p" />
<use x="36" y="12" xlink:href="#p" />
<use x="48" y="12" xlink:href="#p" />
<use x="60" y="12" xlink:href="#p" />
<use x="72" y="12" xlink:href="#p" />
<use x="84" y="12" xlink:href="#p" />
<use x="108" y="12" xlink:href="#p" />
<use x="144" y="12" xlink:href="#p" />
<use x="156" y="12" xlink:href="#p" />
<use x="180" y="12" xlink:href="#p" />
<use x="192" y="12" xlink:href="#p" />
<use x="252" y="12" xlink:href="#p" />
<use x="264" y="12" xlink:href="#p" />
<use x="288" y="12" xlink:href="#p" />
<use x="300" y="12" xlink:href="#p" />
<use x="324" y="12" xlink:href="#p" />
<use x="336" y="12" xlink:href="#p" />
<use x="348" y="12" xlink:href="#p" />
<use x="360" y="12" xlink:href="#p" />
<use x="372" y="12" xlink:href="#p" />
<use x="384" y="12" xlink:href="#p" />
<use x="396" y="12" xlink:href="#p" />
<use x="12" y="24" xlink:href="#p" />
<use x="84" y="24" xlink:href="#p" />
<use x="108" y="24" xlink:href="#p" />
<use x="168" y="24" xlink:href="#p" />
<use x="180" y="24" xlink:href="#p" />
<use x="192" y="24" xlink:href="#p" />
<use x="204" y="24" xlink:href="#p" />
<use x="228" y="24" xlink:href="#p" />
<use x="252" y="24" xlink:href="#p" />
<use x="288" y="24" xlink:href="#p" />
<use x="300" y="24" xlink:href="#p" />
<use x="324" y="24" xlink:href="#p" />
<use x="396" y="24" xlink:href="#p" />
<use x="12" y="36" xlink:href="#p" />
<use x="36" y="36" xlink:href="#p" />
<use x="48" y="36" xlink:href="#p" />
<use x="60" y="36" xlink:href="#p" />
<use x="84" y="36" xlink:href="#p" />
<use x="108" y="36" xlink:href="#p" />
<use x="120" y="36" xlink:href="#p" />
<use x="132" y="36" xlink:href="#p" />
<use x="144" y="36" xlink:href="#p" />
<use x="180" y="36" xlink:href="#p" />
<use x="204" y="36" xlink:href="#p" />
<use x="216" y="36" xlink:href="#p" />
<use x="228" y="36" xlink:href="#p" />
<use x="240" y="36" xlink:href="#p" />
<use x="252" y="36" xlink:href="#p" />
<use x="264" y="36" xlink:href="#p" />
<use x="324" y="36" xlink:href="#p" />
<use x="348" y="36" xlink:href="#p" />
<use x="360" y="36" xlink:href="#p" />
<use x="372" y="36" xlink:href="#p" />
<use x="396" y="36" xlink:href="#p" />
<use x="12" y="48" xlink:href="#p" />
<use x="36" y="48" xlink:href="#p" />
<use x="48" y="48" xlink:href="#p" />
<use x="60" y="48" xlink:href="#p" />
<use x="84" y="48" xlink:href="#p" />
<use x="144" y="48" xlink:href="#p" />
<use x="192" y="48" xlink:href="#p" />
<use x="240" y="48" xlink:href="#p" />
<use x="264" y="48" xlink:href="#p" />
<use x="276" y="48" xlink:href="#p" />
<use x="300" y="48" xlink:href="#p" />
<use x="324" y="48" xlink:href="#p" />
<use x="348" y="48" xlink:href="#p" />
<use x="360" y="48" xlink:href="#p" />
<use x="372" y="48" xlink:href="#p" />
<use x="396" y="48" xlink:href="#p" />
<use x="12" y="60" xlink:href="#p" />
<use x="36" y="60" xlink:href="#p" />
<use x="48" y="60" xlink:href="#p" />
<use x="60" y="60" xlink:href="#p" />
<use x="84" y="60" xlink:href="#p" />
<use x="144" y="60" xlink:href="#p" />
<use x="180" y="60" xlink:href="#p" />
<use x="192" y="60" xlink:href="#p" />
<use x="204" y="60" xlink:href="#p" />
<use x="216" y="60" xlink:href="#p" />
<use x="228" y="60" xlink:href="#p" />
<use x="240" y="60" xlink:href="#p" />
<use x="252" y="60" xlink:href="#p" />
<use x="264" y="60" xlink:href="#p" />
<use x="276" y="60" xlink:href="#p" />
<use x="324" y="60" xlink:href="#p" />
<use x="348" y="60" xlink:href="#p" />
<use x="360" y="60" xlink:href="#p" />
<use x="372" y="60" xlink:href="#p" />
<use x="396" y="60" xlink:href="#p" />
<use x="12" y="72" xlink:href="#p" />
<use x="84" y="72" xlink:href="#p" />
<use x="108" y="72" xlink:href="#p" />
<use x="120" y="72" xlink:href="#p" />
<use x="132" y="72" xlink:href="#p" />
<use x="144" y="72" xlink:href="#p" />
<use x="180" y="72" xlink:href="#p" />
<use x="204" y="72" xlink:href="#p" />
<use x="216" y="72" xlink:href="#p" />
<use x="240" y="72" xlink:href="#p" />
<use x="252" y="72" xlink:href="#p" />
<use x="264" y="72" xlink:href="#p" />
<use x="276" y="72" xlink:href="#p" />
<use x="288" y="72" xlink:href="#p" />
<use x="300" y="72" xlink:href="#p" />
<use x="324" y="72" xlink:href="#p" />
<use x="396" y="72" xlink:href="#p" />
<use x="12" y="84" xlink:href="#p" />
<use x="24" y="84" xlink:href="#p" />
<use x="36" y="84" xlink:href="#p" />
<use x="48" y="84" xlink:href="#p" />
<use x="60" y="84" xlink:href="#p" />
<use x="72" y="84" xlink:href="#p" />
<use x="84" y="84" xlink:href="#p" />
<use x="108" y="84" xlink:href="#p" />
<use x="132" y="84" xlink:href="#p" />
<use x="156" y="84" xlink:href="#p" />
<use x="180" y="84" xlink:href="#p" />
<use x="204" y="84" xlink:href="#p" />
<use x="228" y="84" xlink:href="#p" />
<use x="252" y="84" xlink:href="#p" />
<use x="276" y="84" xlink:href="#p" />
<use x="300" y="84" xlink:href="#p" />
<use x="324" y="84" xlink:href="#p" />
<use x="336" y="84" xlink:href="#p" />
<use x="348" y="84" xlink:href="#p" />
<use x="360" y="84" xlink:href="#p" />
<use x="372" y="84" xlink:href="#p" />
<use x="384" y="84" xlink:href="#p" />
<use x="396" y="84" xlink:href="#p" />
<use x="108" y="96" xlink:href="#p" />
<use x="180" y="96" xlink:href="#p" />
<use x="288" y="96" xlink:href="#p" />
<use x="36" y="108" xlink:href="#p" />
<use x="48" y="108" xlink:href="#p" />
<use x="60" y="108" xlink:href="#p" />
<use x="84" y="108" xlink:href="#p" />
<use x="108" y="108" xlink:href="#p" />
<use x="120" y="108" xlink:href="#p" />
<use x="132" y="108" xlink:href="#p" />
<use x="144" y="108" xlink:href="#p" />
<use x="204" y="108" xlink:href="#p" />
<use x="228" y="108" xlink:href="#p" />
<use x="240" y="108" xlink:href="#p" />
<use x="252" y="108" xlink:href="#p" />
<use x="288" y="108" xlink:href="#p" />
<use x="300" y="108" xlink:href="#p" />
<use x="312" y="108" xlink:href="#p" />
<use x="324" y="108" xlink:href="#p" />
<use x="336" y="108" xlink:href="#p" />
<use x="372" y="108" xlink:href="#p" />
<use x="384" y="108" xlink:href="#p" />
<use x="396" y="108" xlink:href="#p" />
<use x="24" y="120" xlink:href="#p" />
<use x="48" y="120" xlink:href="#p" />
<use x="60" y="120" xlink:href="#p" />
<use x="96" y="120" xlink:href="#p" />
<use x="120" y="120" xlink:href="#p" />
<use x="144" y="120" xlink:href="#p" />
<use x="156" y="120" xlink:href="#p" />
<use x="168" y="120" xlink:href="#p" />
<use x="180" y="120" xlink:href="#p" />
<use x="204" y="120" xlink:href="#p" />
<use x="216" y="120" xlink:href="#p" />
<use x="240" y="120" xlink:href="#p" />
<use x="264" y="120" xlink:href="#p" />
<use x="288" y="120" xlink:href="#p" />
<use x="360" y="120" xlink:href="#p" />
<use x="24" y="132" xlink:href="#p" />
<use x="36" y="132" xlink:href="#p" />
<use x="48" y="132" xlink:href="#p" />
<use x="60" y="132" xlink:href="#p" />
<use x="84" y="132" xlink:href="#p" />
<use x="96" y="132" xlink:href="#p" />
<use x="108" y="132" xlink:href="#p" />
<use x="120" y="132" xlink:href="#p" />
<use x="156" y="132" xlink:href="#p" />
<use x="192" y="132" xlink:href="#p" />
<use x="216" y="132" xlink:href="#p" />
<use x="240" y="132" xlink:href="#p" />
<use x="252" y="132" xlink:href="#p" />
<use x="264" y="132" xlink:href="#p" />
<use x="300" y="132" xlink:href="#p" />
<use x="360" y="132" xlink:href="#p" />
<use x="372" y="132" xlink:href="#p" />
<use x="12" y="144" xlink:href="#p" />
<use x="24" y="144" xlink:href="#p" />
<use x="96" y="144" xlink:href="#p" />
<use x="156" y="144" xlink:href="#p" />
<use x="216" y="144" xlink:href="#p" />
<use x="252" y="144" xlink:href="#p" />
<use x="264" y="144" xlink:href="#p" />
<use x="276" y="144" xlink:href="#p" />
<use x="324" y="144" xlink:href="#p" />
<use x="372" y="144" xlink:href="#p" />
<use x="384" y="144" xlink:href="#p" />
<use x="396" y="144" xlink:href="#p" />
<use x="24" y="156" xlink:href="#p" />
<use x="60" y="156" xlink:href="#p" />
<use x="84" y="156" xlink:href="#p" />
<use x="96" y="156" xlink:href="#p" />
<use x="132" y="156" xlink:href="#p" />
<use x="156" y="156" xlink:href="#p" />
<use x="168" y="156" xlink:href="#p" />
<use x="180" y="156" xlink:href="#p" />
<use x="192" y="156" xlink:href="#p" />
<use x="204" y="156" xlink:href="#p" />
<use x="240" y="156" xlink:href="#p" />
<use x="252" y="156" xlink:href="#p" />
<use x="264" y="156" xlink:href="#p" />
<use x="300" y="156" xlink:href="#p" />
<use x="312" y="156" xlink:href="#p" />
<use x="336" y="156" xlink:href="#p" />
<use x="348" y="156" xlink:href="#p" />
<use x="384" y="156" xlink:href="#p" />
<use x="396" y="156" xlink:href="#p" />
<use x="12" y="168" xlink:href="#p" />
<use x="48" y="168" xlink:href="#p" />
<use x="96" y="168" xlink:href="#p" />
<use x="108" y="168" xlink:href="#p" />
<use x="144" y="168" xlink:href="#p" />
<use x="168" y="168" xlink:href="#p" />
<use x="180" y="168" xlink:href="#p" />
<use x="192" y="168" xlink:href="#p" />
<use x="216" y="168" xlink:href="#p" />
<use x="228" y="168" xlink:href="#p" />
<use x="252" y="168" xlink:href="#p" />
<use x="276" y="168" xlink:href="#p" />
<use x="300" y="168" xlink:href="#p" />
<use x="336" y="168" xlink:href="#p" />
<use x="360" y="168" xlink:href="#p" />
<use x="372" y="168" xlink:href="#p" />
<use x="384" y="168" xlink:href="#p" />
<use x="396" y="168" xlink:href="#p" />
<use x="24" y="180" xlink:href="#p" />
<use x="72" y="180" xlink:href="#p" />
<use x="84" y="180" xlink:href="#p" />
<use x="144" y="180" xlink:href="#p" />
<use x="156" y="180" xlink:href="#p" />
<use x="180" y="180" xlink:href="#p" />
<use x="228" y="180" xlink:href="#p" />
<use x="240" y="180" xlink:href="#p" />
<use x="264" y="180" xlink:href="#p" />
<use x="276" y="180" xlink:href="#p" />
<use x="324" y="180" xlink:href="#p" />
<use x="12" y="192" xlink:href="#p" />
<use x="60" y="192" xlink:href="#p" />
<use x="72" y="192" xlink:href="#p" />
<use x="96" y="192" xlink:href="#p" />
<use x="120" y="192" xlink:href="#p" />
<use x="180" y="192" xlink:href="#p" />
<use x="216" y="192" xlink:href="#p" />
<use x="228" y="192" xlink:href="#p" />
<use x="252" y="192" xlink:href="#p" />
<use x="276" y="192" xlink:href="#p" />
<use x="300" y="192" xlink:href="#p" />
<use x="312" y="192" xlink:href="#p" />
<use x="396" y="192" xlink:href="#p" />
<use x="12" y="204" xlink:href="#p" />
<use x="72" y="204" xlink:href="#p" />
<use x="84" y="204" xlink:href="#p" />
<use x="96" y="204" xlink:href="#p" />
<use x="132" y="204" xlink:href="#p" />
<use x="144" y="204" xlink:href="#p" />
<use x="156" y="204" xlink:href="#p" />
<use x="168" y="204" xlink:href="#p" />
<use x="192" y="204" xlink:href="#p" />
<use x="228" y="204" xlink:href="#p" />
<use x="240" y="204" xlink:href="#p" />
<use x="276" y="204" xlink:href="#p" />
<use x="288" y="204" xlink:href="#p" />
<use x="312" y="204" xlink:href="#p" />
<use x="324" y="204" xlink:href="#p" />
<use x="336" y="204" xlink:href="#p" />
<use x="348" y="204" xlink:href="#p" />
<use x="360" y="204" xlink:href="#p" />
<use x="372" y="204" xlink:href="#p" />
<use x="384" y="204" xlink:href="#p" />
<use x="12" y="216" xlink:href="#p" />
<use x="24" y="216" xlink:href="#p" />
<use x="36" y="216" xlink:href="#p" />
<use x="48" y="216" xlink:href="#p" />
<use x="96" y="216" xlink:href="#p" />
<use x="108" y="216" xlink:href="#p" />
<use x="132" y="216" xlink:href="#p" />
<use x="156" y="216" xlink:href="#p" />
<use x="168" y="216" xlink:href="#p" />
<use x="180" y="216" xlink:href="#p" />
<use x="192" y="216" xlink:href="#p" />
<use x="216" y="216" xlink:href="#p" />
<use x="240" y="216" xlink:href="#p" />
<use x="264" y="216" xlink:href="#p" />
<use x="336" y="216" xlink:href="#p" />
<use x="348" y="216" xlink:href="#p" />
<use x="372" y="216" xlink:href="#p" />
<use x="396" y="216" xlink:href="#p" />
<use x="36" y="228" xlink:href="#p" />
<use x="72" y="228" xlink:href="#p" />
<use x="84" y="228" xlink:href="#p" />
<use x="108" y="228" xlink:href="#p" />
<use x="132" y="228" xlink:href="#p" />
<use x="156" y="228" xlink:href="#p" />
<use x="204" y="228" xlink:href="#p" />
<use x="216" y="228" xlink:href="#p" />
<use x="264" y="228" xlink:href="#p" />
<use x="276" y="228" xlink:href="#p" />
<use x="288" y="228" xlink:href="#p" />
<use x="312" y="228" xlink:href="#p" />
<use x="324" y="228" xlink:href="#p" />
<use x="348" y="228" xlink:href="#p" />
<use x="360" y="228" xlink:href="#p" />
<use x="372" y="228" xlink:href="#p" />
<use x="384" y="228" xlink:href="#p" />
<use x="36" y="240" xlink:href="#p" />
<use x="48" y="240" xlink:href="#p" />
<use x="96" y="240" xlink:href="#p" />
<use x="120" y="240" xlink:href="#p" />
<use x="132" y="240" xlink:href="#p" />
<use x="156" y="240" xlink:href="#p" />
<use x="180" y="240" xlink:href="#p" />
<use x="192" y="240" xlink:href="#p" />
<use x="228" y="240" xlink:href="#p" />
<use x="240" y="240" xlink:href="#p" />
<use x="252" y="240" xlink:href="#p" />
<use x="276" y="240" xlink:href="#p" />
<use x="324" y="240" xlink:href="#p" />
<use x="336" y="240" xlink:href="#p" />
<use x="384" y="240" xlink:href="#p" />
<use x="396" y="240" xlink:href="#p" />
<use x="12" y="252" xlink:href="#p" />
<use x="24" y="252" xlink:href="#p" />
<use x="36" y="252" xlink:href="#p" />
<use x="60" y="252" xlink:href="#p" />
<use x="72" y="252" xlink:href="#p" />
<use x="84" y="252" xlink:href="#p" />
<use x="96" y="252" xlink:href="#p" />
<use x="120" y="252" xlink:href="#p" />
<use x="132" y="252" xlink:href="#p" />
<use x="144" y="252" xlink:href="#p" />
<use x="156" y="252" xlink:href="#p" />
<use x="168" y="252" xlink:href="#p" />
<use x="180" y="252" xlink:href="#p" />
<use x="204" y="252" xlink:href="#p" />
<use x="216" y="252" xlink:href="#p" />
<use x="240" y="252" xlink:href="#p" />
<use x="288" y="252" xlink:href="#p" />
<use x="300" y="252" xlink:href="#p" />
<use x="336" y="252" xlink:href="#p" />
<use x="348" y="252" xlink:href="#p" />
<use x="396" y="252" xlink:href="#p" />
<use x="12" y="264" xlink:href="#p" />
<use x="60" y="264" xlink:href="#p" />
<use x="72" y="264" xlink:href="#p" />
<use x="108" y="264" xlink:href="#p" />
<use x="132" y="264" xlink:href="#p" />
<use x="144" y="264" xlink:href="#p" />
<use x="156" y="264" xlink:href="#p" />
<use x="168" y="264" xlink:href="#p" />
<use x="180" y="264" xlink:href="#p" />
<use x="192" y="264" xlink:href="#p" />
<use x="216" y="264" xlink:href="#p" />
<use x="228" y="264" xlink:href="#p" />
<use x="240" y="264" xlink:href="#p" />
<use x="264" y="264" xlink:href="#p" />
<use x="276" y="264" xlink:href="#p" />
<use x="300" y="264" xlink:href="#p" />
<use x="324" y="264" xlink:href="#p" />
<use x="348" y="264" xlink:href="#p" />
<use x="360" y="264" xlink:href="#p" />
<use x="12" y="276" xlink:href="#p" />
<use x="60" y="276" xlink:href="#p" />
<use x="84" y="276" xlink:href="#p" />
<use x="144" y="276" xlink:href="#p" />
<use x="156" y="276" xlink:href="#p" />
<use x="216" y="276" xlink:href="#p" />
<use x="228" y="276" xlink:href="#p" />
<use x="240" y="276" xlink:href="#p" />
<use x="252" y="276" xlink:href="#p" />
<use x="276" y="276" xlink:href="#p" />
<use x="300" y="276" xlink:href="#p" />
<use x="312" y="276" xlink:href="#p" />
<use x="348" y="276" xlink:href="#p" />
<use x="384" y="276" xlink:href="#p" />
<use x="396" y="276" xlink:href="#p" />
<use x="12" y="288" xlink:href="#p" />
<use x="36" y="288" xlink:href="#p" />
<use x="48" y="288" xlink:href="#p" />
<use x="72" y="288" xlink:href="#p" />
<use x="144" y="288" xlink:href="#p" />
<use x="168" y="288" xlink:href="#p" />
<use x="180" y="288" xlink:href="#p" />
<use x="192" y="288" xlink:href="#p" />
<use x="204" y="288" xlink:href="#p" />
<use x="228" y="288" xlink:href="#p" />
<use x="264" y="288" xlink:href="#p" />
<use x="276" y="288" xlink:href="#p" />
<use x="300" y="288" xlink:href="#p" />
<use x="324" y="288" xlink:href="#p" />
<use x="372" y="288" xlink:href="#p" />
<use x="384" y="288" xlink:href="#p" />
<use x="12" y="300" xlink:href="#p" />
<use x="60" y="300" xlink:href="#p" />
<use x="84" y="300" xlink:href="#p" />
<use x="96" y="300" xlink:href="#p" />
<use x="132" y="300" xlink:href="#p" />
<use x="144" y="300" xlink:href="#p" />
<use x="168" y="300" xlink:href="#p" />
<use x="180" y="300" xlink:href="#p" />
<use x="204" y="300" xlink:href="#p" />
<use x="216" y="300" xlink:href="#p" />
<use x="228" y="300" xlink:href="#p" />
<use x="252" y="300" xlink:href="#p" />
<use x="276" y="300" xlink:href="#p" />
<use x="300" y="300" xlink:href="#p" />
<use x="312" y="300" xlink:href="#p" />
<use x="324" y="300" xlink:href="#p" />
<use x="336" y="300" xlink:href="#p" />
<use x="348" y="300" xlink:href="#p" />
<use x="360" y="300" xlink:href="#p" />
<use x="384" y="300" xlink:href="#p" />
<use x="396" y="300" xlink:href="#p" />
<use x="108" y="312" xlink:href="#p" />
<use x="144" y="312" xlink:href="#p" />
<use x="192" y="312" xlink:href="#p" />
<use x="288" y="312" xlink:href="#p" />
<use x="300" y="312" xlink:href="#p" />
<use x="348" y="312" xlink:href="#p" />
<use x="360" y="312" xlink:href="#p" />
<use x="12" y="324" xlink:href="#p" />
<use x="24" y="324" xlink:href="#p" />
<use x="36" y="324" xlink:href="#p" />
<use x="48" y="324" xlink:href="#p" />
<use x="60" y="324" xlink:href="#p" />
<use x="72" y="324" xlink:href="#p" />
<use x="84" y="324" xlink:href="#p" />
<use x="132" y="324" xlink:href="#p" />
<use x="144" y="324" xlink:href="#p" />
<use x="156" y="324" xlink:href="#p" />
<use x="180" y="324" xlink:href="#p" />
<use x="252" y="324" xlink:href="#p" />
<use x="276" y="324" xlink:href="#p" />
<use x="300" y="324" xlink:href="#p" />
<use x="324" y="324" xlink:href="#p" />
<use x="348" y="324" xlink:href="#p" />
<use x="360" y="324" xlink:href="#p" />
<use x="372" y="324" xlink:href="#p" />
<use x="396" y="324" xlink:href="#p" />
<use x="12" y="336" xlink:href="#p" />
<use x="84" y="336" xlink:href="#p" />
<use x="120" y="336" xlink:href="#p" />
<use x="132" y="336" xlink:href="#p" />
<use x="144" y="336" xlink:href="#p" />
<use x="156" y="336" xlink:href="#p" />
<use x="180" y="336" xlink:href="#p" />
<use x="192" y="336" xlink:href="#p" />
<use x="204" y="336" xlink:href="#p" />
<use x="252" y="336" xlink:href="#p" />
<use x="288" y="336" xlink:href="#p" />
<use x="300" y="336" xlink:href="#p" />
<use x="348" y="336" xlink:href="#p" />
<use x="384" y="336" xlink:href="#p" />
<use x="12" y="348" xlink:href="#p" />
<use x="36" y="348" xlink:href="#p" />
<use x="48" y="348" xlink:href="#p" />
<use x="60" y="348" xlink:href="#p" />
<use x="84" y="348" xlink:href="#p" />
<use x="108" y="348" xlink:href="#p" />
<use x="144" y="348" xlink:href="#p" />
<use x="216" y="348" xlink:href="#p" />
<use x="240" y="348" xlink:href="#p" />
<use x="264" y="348" xlink:href="#p" />
<use x="276" y="348" xlink:href="#p" />
<use x="288" y="348" xlink:href="#p" />
<use x="300" y="348" xlink:href="#p" />
<use x="312" y="348" xlink:href="#p" />
<use x="324" y="348" xlink:href="#p" />
<use x="336" y="348" xlink:href="#p" />
<use x="348" y="348" xlink:href="#p" />
<use x="372" y="348" xlink:href="#p" />
<use x="384" y="348" xlink:href="#p" />
<use x="396" y="348" xlink:href="#p" />
<use x="12" y="360" xlink:href="#p" />
<use x="36" y="360" xlink:href="#p" />
<use x="48" y="360" xlink:href="#p" />
<use x="60" y="360" xlink:href="#p" />
<use x="84" y="360" xlink:href="#p" />
<use x="108" y="360" xlink:href="#p" />
<use x="132" y="360" xlink:href="#p" />
<use x="156" y="360" xlink:href="#p" />
<use x="168" y="360" xlink:href="#p" />
<use x="192" y="360" xlink:href="#p" />
<use x="204" y="360" xlink:href="#p" />
<use x="216" y="360" xlink:href="#p" />
<use x="228" y="360" xlink:href="#p" />
<use x="264" y="360" xlink:href="#p" />
<use x="300" y="360" xlink:href="#p" />
<use x="336" y="360" xlink:href="#p" />
<use x="348" y="360" xlink:href="#p" />
<use x="384" y="360" xlink:href="#p" />
<use x="12" y="372" xlink:href="#p" />
<use x="36" y="372" xlink:href="#p" />
<use x="48" y="372" xlink:href="#p" />
<use x="60" y="372" xlink:href="#p" />
<use x="84" y="372" xlink:href="#p" />
<use x="108" y="372" xlink:href="#p" />
<use x="132" y="372" xlink:href="#p" />
<use x="144" y="372" xlink:href="#p" />
<use x="156" y="372" xlink:href="#p" />
<use x="180" y="372" xlink:href="#p" />
<use x="192" y="372" xlink:href="#p" />
<use x="216" y="372" xlink:href="#p" />
<use x="252" y="372" xlink:href="#p" />
<use x="276" y="372" xlink:href="#p" />
<use x="312" y="372" xlink:href="#p" />
<use x="324" y="372" xlink:href="#p" />
<use x="12" y="384" xlink:href="#p" />
<use x="84" y="384" xlink:href="#p" />
<use x="144" y="384" xlink:href="#p" />
<use x="156" y="384" xlink:href="#p" />
<use x="168" y="384" xlink:href="#p" />
<use x="180" y="384" xlink:href="#p" />
<use x="204" y="384" xlink:href="#p" />
<use x="240" y="384" xlink:href="#p" />
<use x="252" y="384" xlink:href="#p" />
<use x="264" y="384" xlink:href="#p" />
<use x="276" y="384" xlink:href="#p" />
<use x="312" y="384" xlink:href="#p" />
<use x="336" y="384" xlink:href="#p" />
<use x="348" y="384" xlink:href="#p" />
<use x="360" y="384" xlink:href="#p" />
<use x="372" y="384" xlink:href="#p" />
<use x="396" y="384" xlink:href="#p" />
<use x="12" y="396" xlink:href="#p" />
<use x="24" y="396" xlink:href="#p" />
<use x="36" y="396" xlink:href="#p" />
<use x="48" y="396" xlink:href="#p" />
<use x="60" y="396" xlink:href="#p" />
<use x="72" y="396" xlink:href="#p" />
<use x="84" y="396" xlink:href="#p" />
<use x="120" y="396" xlink:href="#p" />
<use x="144" y="396" xlink:href="#p" />
<use x="240" y="396" xlink:href="#p" />
<use x="264" y="396" xlink:href="#p" />
<use x="276" y="396" xlink:href="#p" />
<use x="288" y="396" xlink:href="#p" />
<use x="300" y="396" xlink:href="#p" />
<use x="336" y="396" xlink:href="#p" />
<use x="348" y="396" xlink:href="#p" />
</g>
</svg>