<?xml version="1.0" encoding="UTF-8"?>
<svg width="16px" height="16px" viewBox="0 0 16 16" version="1.1" xmlns="http://www.w3.org/2000/svg" xmlns:xlink="http://www.w3.org/1999/xlink">
    <title>3应用@2x</title>
    <g id="页面-1" stroke="none" stroke-width="1" fill="none" fill-rule="evenodd">
        <g id="添加-you备份" transform="translate(-14.000000, -267.000000)" fill="#CCCCCC" fill-rule="nonzero">
            <g id="编组-8" transform="translate(-1.000000, 0.000000)">
                <g id="编组-9" transform="translate(1.000000, 170.000000)">
                    <g id="应用" transform="translate(14.000000, 97.000000)">
                        <path d="M8.8,13.8 L13.3,11.2 C13.5,11.1 13.6,10.9 13.6,10.7 L13.6,5.5 L9.1,8.1 C9,8.2 8.9,8.2 8.8,8.2 L8.8,13.8 L8.8,13.8 Z M13.9,3.9 C14.4,4.2 14.7,4.7 14.7,5.2 L14.7,10.7 C14.7,11.3 14.4,11.8 13.9,12 L9.1,14.7 C8.6,15 8,15 7.6,14.7 L2.8,12 C2.3,11.7 2,11.2 2,10.7 L2,5.2 C2,4.6 2.3,4.1 2.8,3.9 L7.6,1.2 C8.1,0.9 8.7,0.9 9.1,1.2 L13.9,3.9 L13.9,3.9 Z" id="形状"></path>
                    </g>
                </g>
            </g>
        </g>
    </g>
</svg>