<?xml version="1.0" encoding="UTF-8"?>
<svg width="16px" height="16px" viewBox="0 0 16 16" version="1.1" xmlns="http://www.w3.org/2000/svg" xmlns:xlink="http://www.w3.org/1999/xlink">
    <title>男</title>
    <g id="页面-1" stroke="none" stroke-width="1" fill="none" fill-rule="evenodd">
        <g id="注册-设置个人信息" transform="translate(-370.000000, -498.000000)" fill="#397BFF" fill-rule="nonzero">
            <g id="编组-13" transform="translate(328.000000, 496.000000)">
                <g id="男" transform="translate(42.000000, 2.000000)">
                    <path d="M6.78964725,5.35305286 C4.62156491,5.35305286 2.85959828,7.09423403 2.85959828,9.23673428 C2.85959828,11.3776357 4.62316378,13.1188168 6.78964725,13.1188168 C8.95613072,13.1188168 10.7212951,11.3760368 10.7212951,9.23673428 C10.7196962,7.09423403 8.9561307,5.35305286 6.78964725,5.35305286 L6.78964725,5.35305286 Z M14.9567303,6.33796342 L13.0956331,6.33796342 L13.0956331,4.25302289 L11.4615769,5.86789248 C12.1618867,6.81283103 12.5807935,7.97521736 12.5807935,9.23513542 C12.5807935,12.3897272 9.98421106,14.9559309 6.78964725,14.9559309 C3.59668233,14.9559309 0.998501047,12.3897272 0.998501047,9.23513542 C0.998501047,6.08054364 3.59668231,3.51274109 6.78964725,3.51274109 C8.03837314,3.51274109 9.19116619,3.90926353 10.1377036,4.57439794 L11.8980714,2.83481564 L9.52853003,2.83481563 L9.52853003,0.996102719 L14.9567303,0.996102719 L14.9567303,6.33796342 L14.9567303,6.33796342 L14.9567303,6.33796342 Z" id="形状"></path>
                </g>
            </g>
        </g>
    </g>
</svg>