<?xml version="1.0" encoding="UTF-8"?>
<svg width="24px" height="25px" viewBox="0 0 24 25" version="1.1" xmlns="http://www.w3.org/2000/svg" xmlns:xlink="http://www.w3.org/1999/xlink">
    <title>自定义@2x</title>
    <g id="页面-1" stroke="none" stroke-width="1" fill="none" fill-rule="evenodd">
        <g id="添加-you备份" transform="translate(-368.000000, -118.000000)" stroke="#333333">
            <g id="编组-8" transform="translate(-1.000000, 0.000000)">
                <g id="编组-11" transform="translate(361.000000, 110.000000)">
                    <g id="编组-5" transform="translate(20.000000, 20.000000) rotate(-90.000000) translate(-20.000000, -20.000000) translate(5.000000, 5.000000)">
                        <g id="编组-6" transform="translate(15.000000, 15.000000) rotate(-315.000000) translate(-15.000000, -15.000000) translate(4.000000, 5.500000)">
                            <rect id="矩形" stroke-width="1.3" fill="#FFFFFF" stroke-linejoin="round" x="9.5" y="0.5" width="5" height="18"></rect>
                            <line x1="9.5" y1="4.5" x2="11.5" y2="4.5" id="直线" stroke-linecap="round"></line>
                            <line x1="9.5" y1="14.5" x2="11.5" y2="14.5" id="直线" stroke-linecap="round"></line>
                            <path d="M10,-1 L12,-1 C12.5522847,-1 13,-0.55228475 13,0 L13,17 L13,17 L11,20 L9,17 L9,0 C9,-0.55228475 9.44771525,-1 10,-1 Z" id="矩形" stroke-width="1.3" fill="#FFFFFF" stroke-linejoin="round" transform="translate(11.000000, 9.500000) rotate(-270.000000) translate(-11.000000, -9.500000) "></path>
                            <line x1="4.5" y1="7.5" x2="4.5" y2="11.5" id="直线" stroke-linecap="round"></line>
                            <line x1="18.5" y1="7.5" x2="18.5" y2="11.5" id="直线" stroke-linecap="round"></line>
                        </g>
                    </g>
                </g>
            </g>
        </g>
    </g>
</svg>