<?xml version="1.0" encoding="UTF-8"?>
<svg width="20px" height="20px" viewBox="0 0 20 20" version="1.1" xmlns="http://www.w3.org/2000/svg" xmlns:xlink="http://www.w3.org/1999/xlink">
    <title>修改</title>
    <g id="页面-1" stroke="none" stroke-width="1" fill="none" fill-rule="evenodd">
        <g id="1.3.1我的_个人信息" transform="translate(-996.000000, -147.000000)" fill="#FFFFFF">
            <g id="个人信息_基本信息【编辑状态】" transform="translate(680.000000, 80.000000)">
                <g id="头像" transform="translate(220.000000, 48.000000)">
                    <g id="修改" transform="translate(96.000000, 19.000000)">
                        <rect id="矩形" opacity="0" x="0" y="0" width="20" height="20"></rect>
                        <path d="M9,5.99982323 L14,10.9998232 L7.58578644,17.4142136 C7.21071368,17.7892863 6.70200585,18 6.17157288,18 L3.5,18 C2.67157288,18 2,17.3284271 2,16.5 L2,13.8284271 C2,13.2979941 2.21071368,12.7892863 2.58578644,12.4142136 L9,5.99982323 Z M15.7324116,2.73241161 L17.2675884,4.26758839 C18.2243729,5.2243729 18.2243729,6.7756271 17.2675884,7.73241161 L15,9.99982323 L10,4.99982323 L12.2675884,2.73241161 C13.2243729,1.7756271 14.7756271,1.7756271 15.7324116,2.73241161 Z" id="形状"></path>
                    </g>
                </g>
            </g>
        </g>
    </g>
</svg>