<?xml version="1.0" encoding="UTF-8"?>
<svg width="28px" height="28px" viewBox="0 0 28 28" version="1.1" xmlns="http://www.w3.org/2000/svg" xmlns:xlink="http://www.w3.org/1999/xlink">
    <title>编辑@2x</title>
    <g id="页面-1" stroke="none" stroke-width="1" fill="none" fill-rule="evenodd">
        <g id="添加搜索引擎-编辑备份-3" transform="translate(-66.000000, -482.000000)" fill="#FFFFFF" fill-rule="nonzero">
            <g id="编辑" transform="translate(66.000000, 482.000000)">
                <path d="M27.9115933,13.9624117 L27.9115933,25.127049 C27.9115933,26.6621867 26.6555716,27.9182084 25.120434,27.9182084 L2.79115933,27.9182084 C1.25602171,27.9182084 0,26.6621867 0,25.127049 L0,2.79777437 C0,1.26263674 1.25602171,0.00661503408 2.79115933,0.00661503408 L12.560217,0.00661503408 L12.560217,2.79777437 L4.18673899,2.79777437 C3.34939119,2.79777437 2.79115933,3.35600622 2.79115933,4.19335405 L2.79115933,23.7314694 C2.79115933,24.5688172 3.34939119,25.127049 4.18673899,25.127049 L23.7248543,25.127049 C24.5622021,25.127049 25.120434,24.5688172 25.120434,23.7314694 L25.120434,13.9624117 L27.9115933,13.9624117 Z M27.3533615,2.51865845 L12.0019851,17.8700348 L10.0481736,15.9162232 L25.2599919,0.564846917 L27.3533615,2.51865845 Z" id="形状"></path>
            </g>
        </g>
    </g>
</svg>