<?xml version="1.0" encoding="UTF-8"?>
<svg width="16px" height="16px" viewBox="0 0 16 16" version="1.1" xmlns="http://www.w3.org/2000/svg" xmlns:xlink="http://www.w3.org/1999/xlink">
    <title>12教育@2x</title>
    <g id="页面-1" stroke="none" stroke-width="1" fill="none" fill-rule="evenodd">
        <g id="添加-you备份" transform="translate(-14.000000, -609.000000)" fill="#CCCCCC" fill-rule="nonzero">
            <g id="编组-8" transform="translate(-1.000000, 0.000000)">
                <g id="编组-9" transform="translate(1.000000, 170.000000)">
                    <g id="教育" transform="translate(14.000000, 439.000000)">
                        <path d="M8.01792187,9.1360625 C7.76875,9.1360625 7.40123437,9.10876562 7.06417187,8.97932812 L4.36735937,7.94021875 L3.04639062,7.94021875 L3.04639062,9.55845312 C3.04639062,10.0559531 3.41645312,10.6205625 3.87270312,10.8188125 L7.138125,12.2401719 C7.594375,12.4384219 8.33507812,12.4392812 8.79189062,12.2421562 L12.092875,10.8168125 C12.5494062,10.6197031 12.9197656,10.0559219 12.9197656,9.55842187 L12.9197656,7.94021875 L11.4619844,7.94021875 L9.07207812,8.94771875 C8.78479687,9.06917187 8.40989062,9.13601562 8.01792187,9.13601562 L8.01792187,9.1360625 Z" id="路径"></path>
                        <path d="M0.723640625,5.82798437 L7.22660938,8.33365625 C7.69110938,8.51229688 8.4391875,8.500625 8.89771875,8.30720313 L15.108,5.68945313 L15.108,9.55164063 L14.7242813,10.8319219 L15.8338906,10.8319219 L15.4368125,9.53826563 L15.4368125,5.53328125 L15.4257188,5.53328125 C15.6939531,5.34839063 15.631375,5.11771875 15.2342813,4.97576563 L8.91620313,2.72751563 C8.4474375,2.56026563 7.68996875,2.56735938 7.22403125,2.74229688 L0.72646875,5.1868125 C0.260546875,5.36203125 0.259421875,5.6493125 0.723625,5.82795313 L0.723640625,5.82798437 Z" id="路径"></path>
                    </g>
                </g>
            </g>
        </g>
    </g>
</svg>