<?xml version="1.0" encoding="UTF-8"?>
<svg width="16px" height="16px" viewBox="0 0 16 16" version="1.1" xmlns="http://www.w3.org/2000/svg" xmlns:xlink="http://www.w3.org/1999/xlink">
    <title>14金融@2x</title>
    <g id="页面-1" stroke="none" stroke-width="1" fill="none" fill-rule="evenodd">
        <g id="添加-you备份" transform="translate(-14.000000, -685.000000)" fill="#CCCCCC" fill-rule="nonzero">
            <g id="编组-8" transform="translate(-1.000000, 0.000000)">
                <g id="编组-9" transform="translate(1.000000, 170.000000)">
                    <g id="金融服务" transform="translate(14.000000, 515.000000)">
                        <path d="M13.8283433,8 C13.8283433,4.78109486 11.2189051,2.17165669 8,2.17165669 C4.78109486,2.17165669 2.17165669,4.78109486 2.17165669,8 C2.17165669,11.2189051 4.78109486,13.8283433 8,13.8283433 C11.2189051,13.8283433 13.8283433,11.2189051 13.8283433,8 Z M1.00598803,8 C1.00598803,4.13731386 4.13731386,1.00598803 8,1.00598803 C11.8626861,1.00598803 14.994012,4.13731386 14.994012,8 C14.994012,11.8626861 11.8626861,14.994012 8,14.994012 C4.13731386,14.994012 1.00598803,11.8626861 1.00598803,8 Z M8.93253494,4.3448825 C9.18266739,4.383418 9.43279981,4.44179941 9.68293412,4.52002703 C10.1759173,4.67420383 10.6263952,4.916478 11.0343812,5.24685683 L9.93792416,6.43621469 C9.64043431,6.26735439 9.35994809,6.13887566 9.09645708,6.05077464 C8.83296608,5.96267361 8.5354807,5.91862377 8.20399202,5.91862377 C7.5750135,5.91862377 7.26052894,6.08013988 7.26052894,6.40317695 C7.26052894,6.57203725 7.37314841,6.70051598 7.59839072,6.788617 C7.82363302,6.87671803 8.14449227,6.98684266 8.56097805,7.11899419 L9.51719062,7.46038394 C10.0781715,7.63658598 10.5095253,7.88253098 10.811265,8.19822631 C11.1130047,8.51392163 11.2638723,8.92138275 11.2638723,9.42062188 C11.2638723,9.72163369 11.1916258,10.0116285 11.0471308,10.2906151 C10.9026357,10.5696017 10.6901461,10.8137113 10.4096557,11.0229512 C10.1291653,11.2321911 9.78280728,11.3992135 9.37057136,11.5240233 C9.23156534,11.5661091 9.08555339,11.6010992 8.93253494,11.6289936 L8.93253494,12.4295409 L7.06746506,12.4295409 L7.06746506,11.6404225 C6.80900941,11.5993232 6.54825231,11.5403338 6.28519211,11.4634541 C5.71996141,11.2982647 5.20361178,11.0394718 4.73612775,10.6870677 L5.98557884,9.38758416 C6.30006811,9.5931532 6.6336767,9.76017555 6.98641467,9.8886562 C7.33915262,10.0171369 7.67701103,10.0813762 8,10.0813762 C8.38248695,10.0813762 8.64809889,10.0373264 8.79684381,9.94922536 C8.94558872,9.86112434 9.01996008,9.73631642 9.01996008,9.57479789 C9.01996008,9.48669686 8.99446133,9.41328045 8.94346308,9.35454644 C8.89246481,9.29581242 8.81596858,9.24075011 8.71397206,9.18935784 C8.61197553,9.13796559 8.48660669,9.0884095 8.33786178,9.04068811 C8.18911686,8.99296672 8.01700031,8.93973983 7.82150698,8.88100581 L6.78879741,8.50657834 C6.55080553,8.43316083 6.32556659,8.33588408 6.11307386,8.21474517 C5.90058111,8.09360627 5.71571519,7.95044425 5.55847056,7.78525483 C5.40122594,7.62006542 5.27585708,7.43101814 5.18236028,7.21810734 C5.08886347,7.00519653 5.04211577,6.770264 5.04211577,6.51330269 C5.04211577,6.20494911 5.11861202,5.91678969 5.27160678,5.64881575 C5.42460156,5.3808418 5.63921602,5.14590927 5.91545659,4.94401108 C6.19169716,4.74211291 6.52318088,4.5824322 6.90991767,4.46496419 C6.96163555,4.44925531 7.01415134,4.43459683 7.06746506,4.4209887 L7.06746506,3.57045908 L8.93253494,3.57045908 L8.93253494,4.3448825 L8.93253494,4.3448825 Z" id="形状"></path>
                    </g>
                </g>
            </g>
        </g>
    </g>
</svg>