<?xml version="1.0" encoding="UTF-8"?>
<svg width="16px" height="16px" viewBox="0 0 16 16" version="1.1" xmlns="http://www.w3.org/2000/svg" xmlns:xlink="http://www.w3.org/1999/xlink">
    <title>11游戏娱乐@2x</title>
    <g id="页面-1" stroke="none" stroke-width="1" fill="none" fill-rule="evenodd">
        <g id="添加-you备份" transform="translate(-14.000000, -571.000000)" fill="#CCCCCC" fill-rule="nonzero">
            <g id="编组-8" transform="translate(-1.000000, 0.000000)">
                <g id="编组-9" transform="translate(1.000000, 170.000000)">
                    <g id="游戏" transform="translate(14.000000, 401.000000)">
                        <path d="M13.0068594,7.56914453 C11.9033066,7.56914453 11.0136914,8.43580469 11.0136914,9.51090625 C11.0136914,10.5859805 11.9033203,11.452668 13.0068594,11.452668 C14.1103984,11.452668 15,10.5859805 15,9.51090625 C14.9887344,8.43580469 14.0991602,7.56914453 13.0068594,7.56914453 Z M13.9414824,6.39527734 C13.1757617,3.58688281 10.6308242,1.69995898 7.59044531,1.69995898 C4.56130469,1.69995898 2.00512891,3.57589063 1.22812891,6.38432617 C0.451128906,9.19274805 1.70108008,12.0340781 4.33607422,13.4602734 C6.9710957,14.8973516 10.1579004,14.4585527 12.2748945,12.3851445 L7.57915234,7.98604102 L13.9414824,6.39529102 L13.9414824,6.39527734 Z M6.55447266,4.57421094 C6.55447266,3.905 7.10622852,3.35649805 7.77059961,3.35649805 C8.44626367,3.35649805 8.98678125,3.90501367 8.98678125,4.57421094 C8.98678125,5.24343555 8.43498438,5.7919375 7.77059961,5.7919375 C7.10622852,5.78098633 6.55447266,5.24342188 6.55447266,4.57421094 L6.55447266,4.57421094 Z" id="形状"></path>
                    </g>
                </g>
            </g>
        </g>
    </g>
</svg>