<?xml version="1.0" encoding="UTF-8"?>
<svg width="16px" height="16px" viewBox="0 0 16 16" version="1.1" xmlns="http://www.w3.org/2000/svg" xmlns:xlink="http://www.w3.org/1999/xlink">
    <title>女</title>
    <g id="页面-1" stroke="none" stroke-width="1" fill="none" fill-rule="evenodd">
        <g id="注册-设置个人信息" transform="translate(-452.000000, -498.000000)" fill="#FF5A5A" fill-rule="nonzero" stroke="#FF5A5A" stroke-width="0.2">
            <g id="编组-14" transform="translate(410.000000, 496.000000)">
                <g id="女" transform="translate(42.000000, 2.000000)">
                    <path d="M9.34465873,2.95153392 C7.17657639,2.95153392 5.411412,4.71350055 5.411412,6.88158289 C5.411412,9.04646747 7.1749775,10.810033 9.34465873,10.810033 C11.51434,10.810033 13.2795054,9.04806634 13.2795054,6.88158289 C13.2811032,4.71350055 11.51434,2.95153392 9.34465873,2.95153392 L9.34465873,2.95153392 Z M9.34465873,12.48566 C7.96162686,12.48566 6.69691216,11.9820126 5.71679823,11.1505946 L4.90936345,11.9580294 L6.23483562,13.2835015 L5.04846608,14.4682722 L3.72299391,13.1428 L2.18487059,14.6777256 L0.998501047,13.4929549 L2.53502548,11.9580294 L1.13120816,10.5558109 L2.3175777,9.37104027 L3.72139503,10.7732587 L4.61357052,9.88268213 C4.05875889,9.01289098 3.7325872,7.98481064 3.7325872,6.88158289 C3.7325872,3.79094634 6.24922556,1.27750575 9.34465875,1.27750575 C12.440092,1.27750575 14.9583292,3.79094634 14.9583292,6.88158289 C14.9583292,9.97062056 12.4400919,12.48566 9.34465873,12.48566 L9.34465873,12.48566 Z" id="形状"></path>
                </g>
            </g>
        </g>
    </g>
</svg>