<?xml version="1.0" encoding="utf-8"?>
<svg xmlns="http://www.w3.org/2000/svg">
    <symbol id="infinity-pro-pure-icon-caret-down" viewBox="0 0 1024 1024">
      <path
        d="M450.44 926.52l-384-633.2A72 72 0 0 1 128 184h768a72 72 0 0 1 61.56 109.32l-384 633.2a72 72 0 0 1-123.12 0z">
      </path>
    </symbol>
    <symbol id="infinity-pro-pure-icon-close" viewBox="0 0 1025 1024">
      <path
        d="M633.540714 512.009086L997.962651 876.48694a85.92372 85.92372 0 1 1-121.530561 121.474644L512.010153 633.482732 147.531301 997.961584A85.92372 85.92372 0 1 1 26.057655 876.431023l364.478852-364.421937L26.057655 147.530235A85.92372 85.92372 0 1 1 147.588216 26.056589l364.421937 364.477853L876.488006 26.056589a85.92372 85.92372 0 1 1 121.474645 121.530561L633.483799 512.009086z">
      </path>
    </symbol>
    <symbol id="infinity-pro-pure-icon-dropper" viewBox="0 0 1024 1024">
      <path
        d="M825.197 278.277c15.172-15.173 15.172-39.737 0-54.91l-26.853-26.851c-15.172-15.173-39.736-15.173-54.908 0l-65.867 65.866 81.761 81.761 65.867-65.866z m6.141 138.476L604.96 190.374c-11.801-11.8-30.947-11.8-42.747 0l-79.955 79.955c-11.8 11.8-11.8 30.947 0 42.747l46.36 46.36L201.451 686.48c-20.109 20.109-20.109 52.62 0 72.73l67.673 67.672c20.11 20.11 52.621 20.11 72.73 0L669.02 499.718l39.496 39.496c11.8 11.8 30.946 11.8 42.746 0l79.955-79.955c11.921-11.68 11.921-30.706 0.12-42.506zM333.185 804.606c-15.533 15.533-40.7 15.533-56.233 0l-52.982-52.982c-15.533-15.534-15.533-40.7 0-56.234l320.3-320.421 109.216 109.215-320.3 320.422z m-131.371-1.566c0 13.126 10.596 23.722 23.721 23.722h42.506l-66.227-66.228v42.506z">
      </path>
    </symbol>
    <symbol id="infinity-pro-pure-icon-down" viewBox="0 0 1536 1024">
      <path
        d="M815.744 999.68a59.136 59.136 0 0 1-95.488 0L19.84 141.44a96.512 96.512 0 0 1 0-117.12 59.136 59.136 0 0 1 95.488 0l700.416 858.496h-95.488L1420.672 24.32a59.136 59.136 0 0 1 95.488 0 96.512 96.512 0 0 1 0 117.12L815.744 999.808z">
      </path>
    </symbol>
    <symbol id="infinity-pro-pure-icon-infinity" viewBox="0 0 1024 1024">
      <path
        d="M234.88 758.04a229.2 229.2 0 0 1-163.72-67.32C25.32 644.8 0.76 581 2 511.16 4.56 369.2 104.56 268.4 245.2 266c147.52-2.52 218.8 110 221.64 114.8 0 0 20.44 34.4-6.84 59.2-44 40-74.84-8.8-74.84-8.8v0.36a165.52 165.52 0 0 0-135.44-69.6h-2.92C158 363.44 99.6 422.68 98 512.8c-0.8 44.28 13.44 82.32 41.12 110.08a134.12 134.12 0 0 0 98.12 39.08c97.96-1.56 177.4-96 235.64-177.8C578.28 336 679.72 264.4 782.72 266 948.48 268.48 1024 395.24 1024 512c0 140.2-96.36 243.68-229.16 246-128.56 2.32-226.52-121.16-230.64-126.4a48 48 0 0 1 75.8-59.2c20 25.24 86.52 90.76 153.36 89.6S928 614 928 512c0-109.12-79.04-149-146.72-150h-1.72c-67.72 0-144.56 60-228.44 177.8-45.84 64.52-153.24 215.68-312.36 218.2z">
      </path>
    </symbol>
    <symbol id="infinity-pro-pure-icon-right" viewBox="0 0 1024 1024">
      <path
        d="M837.137 480.17a39.424 39.424 0 0 1 0 63.66L264.89 1010.772a64.341 64.341 0 0 1-78.08 0 39.424 39.424 0 0 1 0-63.658L759.142 480.17v63.658L186.897 76.885a39.424 39.424 0 0 1 0-63.658 64.341 64.341 0 0 1 78.08 0l572.16 466.944z">
      </path>
    </symbol>
    <symbol id="infinity-pro-pure-icon-magnifier" viewBox="0 0 1024 1024">
      <path
        d="M999.56 887.24l-182-182a447.76 447.76 0 1 0-109.24 111.4l180.92 180.92a78 78 0 0 0 110.32-110.32zM448 740a288 288 0 1 1 288-288 288 288 0 0 1-288 288z">
      </path>
    </symbol>
    <symbol id="infinity-pro-pure-icon-zoom-in" viewBox="0 0 1024 1024">
      <path
        d="M1005.897 920.32L732.975 647.631a67.916 67.916 0 0 0-17.576-12.393 396.382 396.382 0 0 0 79.604-238.601C794.982 177.66 617.173 0 398.024 0 178.855 0 0 177.66 0 397.662 0 616.66 177.81 795.323 398.024 795.323c89.929 0 172.627-29.947 238.794-79.52 3.114 6.187 7.252 12.372 12.414 17.556l272.922 272.687a59.32 59.32 0 0 0 84.766 0c22.76-24.786 22.76-61.986-1.023-85.748zM394.825 692.873c-165.097 0-299.116-134.019-299.116-298.135 0-165.096 134.019-299.094 299.116-299.094 165.097 0 298.134 134.019 298.134 299.094 0 164.116-134.019 298.135-298.134 298.135zM213.303 362.616H554.59a42.66 42.66 0 1 1 0 85.321H213.303a42.66 42.66 0 1 1 0-85.321z m170.643-170.643a42.66 42.66 0 0 1 42.66 42.66V575.92a42.66 42.66 0 1 1-85.32 0V234.634a42.66 42.66 0 0 1 42.66-42.66z">
      </path>
    </symbol>
    <symbol id="infinity-pro-pure-icon-undo" viewBox="0 0 1024 1024">
      <path
        d="M1.620996 47.447251c0.703998-28.287935 22.249949-46.121894 53.119878-45.481896 30.932929 0.660998 46.889892 19.519955 51.96688 47.82889 2.623994 14.676966 1.791996 30.036931 1.919996 45.097896 0.277999 25.684941 0.086 51.369882 0.085999 77.075823l12.052973 5.461987c13.503969-12.96997 26.772938-26.17594 40.532906-38.84791C285.287343 24.300304 432.399003-18.237598 597.112624 7.042344c232.679464 35.711918 405.029067 229.330471 425.25402 470.991914 18.964956 226.706478-127.359706 445.753973-346.939201 519.459803-222.163488 74.537828-469.349918-12.223972-594.29863-208.850519-8.041981-12.629971-16.425962-25.620941-21.331951-39.615908-9.514978-27.177937-4.735989-52.479879 22.121949-67.006846 25.87694-13.994968 50.409884-8.383981 68.777842 15.359965 9.172979 11.881973 16.169963 25.428941 24.746943 37.801913 77.459821 111.827742 183.890576 172.755602 320.059262 179.411586 182.31258 8.87398 349.457195-109.353748 402.599072-283.623346 54.889873-179.965585-21.034952-373.905138-183.379577-468.49592C556.878717 70.508198 354.278183 96.897137 226.557478 226.581838c-9.364978 9.492978-15.658964 21.972949-30.826929 43.796899 49.855885 0 88.255797-2.047995 126.313709 0.575999 35.156919 2.431994 53.779876 23.337946 53.481877 52.692878-0.276999 28.585934-20.201953 52.26588-54.014876 53.076878-88.319796 2.175995-176.702593 1.385997-265.021389 0.447999-29.119933-0.298999-53.204877-16.959961-54.099876-45.716895A5101.975242 5101.975242 0 0 1 1.619996 47.447251z">
      </path>
    </symbol>
    <symbol id="infinity-pro-pure-icon-redo" viewBox="0 0 1024 1024">
      <path
        d="M1022.398569 47.447251c-0.703998-28.287935-22.249949-46.121894-53.118878-45.481896-30.932929 0.660998-46.889892 19.519955-51.96788 47.82889-2.623994 14.676966-1.791996 30.036931-1.919996 45.097896-0.276999 25.684941-0.085 51.369882-0.084999 77.075823l-12.052973 5.461987c-13.503969-12.96997-26.772938-26.17594-40.532906-38.84791C738.733222 24.300304 591.620562-18.237598 426.907941 7.042344 194.228477 42.754261 21.877875 236.371815 1.653921 478.034258c-18.964956 226.706478 127.358706 445.753973 346.939201 519.459803 222.163488 74.537828 469.348918-12.223972 594.29763-208.850519 8.041981-12.629971 16.425962-25.620941 21.332951-39.615908 9.514978-27.177937 4.735989-52.479879-22.121949-67.006846-25.87794-13.994968-50.409884-8.383981-68.777842 15.359965-9.173979 11.881973-16.169963 25.428941-24.746943 37.801913-77.459821 111.827742-183.890576 172.755602-320.059262 179.411586-182.31358 8.87398-349.458195-109.353748-402.599072-283.623346-54.889873-179.965585 21.034952-373.905138 183.379577-468.49592 157.843636-91.966788 360.444169-65.577849 488.164875 64.105852 9.364978 9.492978 15.657964 21.972949 30.825929 43.796899-49.854885 0-88.254797-2.047995-126.312709 0.575999-35.156919 2.431994-53.779876 23.337946-53.481877 52.692878 0.276999 28.585934 20.201953 52.26588 54.014876 53.076878 88.319796 2.175995 176.702593 1.385997 265.021389 0.447999 29.119933-0.298999 53.203877-16.959961 54.099875-45.716895 2.901993-94.612782 3.114993-189.373564 0.746999-284.007345z">
      </path>
    </symbol>
    <symbol id="infinity-pro-pure-icon-zoom-out" viewBox="0 0 1024 1024">
      <path
        d="M1005.897 920.32L732.975 647.631a67.916 67.916 0 0 0-17.576-12.393 396.382 396.382 0 0 0 79.604-238.601C794.982 177.66 617.173 0 398.024 0 178.855 0 0 177.66 0 397.662 0 616.66 177.81 795.323 398.024 795.323c89.929 0 172.627-29.947 238.794-79.52 3.114 6.187 7.252 12.372 12.414 17.556l272.922 272.687a59.32 59.32 0 0 0 84.766 0c22.76-24.786 22.76-61.986-1.023-85.748zM394.825 692.873c-165.097 0-299.116-134.019-299.116-298.135 0-165.096 134.019-299.094 299.116-299.094 165.097 0 298.134 134.019 298.134 299.094 0 164.116-134.019 298.135-298.134 298.135zM213.303 341.286H554.59a42.66 42.66 0 0 1 42.66 42.66v21.33a42.66 42.66 0 0 1-42.66 42.661H213.303a42.66 42.66 0 0 1-42.66-42.66v-21.33a42.66 42.66 0 0 1 42.66-42.661z">
      </path>
    </symbol>
    <symbol id="infinity-pro-pure-icon-wrong" viewBox="0 0 1024 1024">
      <path
        d="M694.857 512l182.857 182.857-182.857 182.857L512 694.857 329.143 877.714 146.286 694.857 329.143 512 146.286 329.143l182.857-182.857L512 329.143l182.857-182.857 182.857 182.857L694.857 512z">
      </path>
    </symbol>
    <symbol id="infinity-pro-pure-icon-correct" viewBox="0 0 1024 1024">
      <path
        d="M168.229 350.354l187.977 223.817L860.16 150.674l141.166 168.229-672.183 564.663L0 490.789l168.229-140.435z">
      </path>
    </symbol>
    <symbol id="infinity-pro-pure-icon-more" viewBox="0 0 1024 1024">
      <path
        d="M512 170.666667a85.333333 85.333333 0 1 0 0-170.666667 85.333333 85.333333 0 0 0 0 170.666667z m0 256a85.333333 85.333333 0 1 0 0 170.666666 85.333333 85.333333 0 0 0 0-170.666666z m0 426.666666a85.333333 85.333333 0 1 0 0 170.666667 85.333333 85.333333 0 0 0 0-170.666667z">
      </path>
    </symbol>
    <symbol id="infinity-pro-pure-icon-dustbin" viewBox="0 0 1024 1024">
      <path d="M792 232v672H232V232h560m56-56H176v728c0 30.9 25.1 56 56 56h560c30.9 0 56-25.1 56-56V176z"></path>
      <path d="M932 176H92c-15.5 0-28 12.5-28 28s12.5 28 28 28h840c15.5 0 28-12.5 28-28s-12.5-28-28-28z"></path>
      <path
        d="M680 120v56H347.5v-56H680m0-56H347.5c-30.9 0-56 25.1-56 56v112H736V120c0-30.9-25.1-56-56-56zM372 344c-15.5 0-28 12.5-28 28v392c0 15.5 12.5 28 28 28s28-12.5 28-28V372c0-15.5-12.5-28-28-28z m140 0c-15.5 0-28 12.5-28 28v392c0 15.5 12.5 28 28 28s28-12.5 28-28V372c0-15.5-12.5-28-28-28z m140 0c-15.5 0-28 12.5-28 28v392c0 15.5 12.5 28 28 28s28-12.5 28-28V372c0-15.5-12.5-28-28-28z">
      </path>
    </symbol>
    <symbol id="infinity-pro-pure-icon-to-top" viewBox="0 0 1024 1024">
      <path
        d="M866.7 96H157.3c-17.8 0-32.2 14.4-32.2 32.2 0 17.8 14.4 32.2 32.2 32.2h709.5c17.8 0 32.2-14.4 32.2-32.2 0-17.8-14.4-32.2-32.3-32.2zM512 225c-16.5 0-33 6.3-45.6 18.9L169.9 540.3c-5.8 5.8-9.4 13.9-9.4 22.8s3.6 17 9.4 22.8c5.8 5.8 13.9 9.4 22.8 9.4s17-3.6 22.8-9.4l264.2-264.2v574c0 17.8 14.4 32.2 32.2 32.2 17.8 0 32.2-14.4 32.2-32.2v-574l264.2 264.2c5.8 5.8 13.9 9.4 22.8 9.4s17-3.6 22.8-9.4c5.8-5.8 9.4-13.9 9.4-22.8s-3.6-17-9.4-22.8L557.6 243.9C545 231.3 528.5 225 512 225z">
      </path>
    </symbol>
    <symbol id="infinity-pro-pure-icon-arrow-left" viewBox="0 0 1024 1024">
      <path d="M504.064 1024l140.032-142.208-264.96-269.248H1024V411.52H379.072l265.024-269.184L504.064 0 0 512z">
      </path>
    </symbol>
    <symbol id="infinity-pro-pure-icon-mobile" viewBox="0 0 1024 1024">
      <path
        d="M0.341333 70.058667V954.88c0 38.144 30.976 69.12 69.12 69.12h485.546667a69.12 69.12 0 0 0 69.12-69.12V70.058667a69.12 69.12 0 0 0-69.12-69.162667H69.504a69.12 69.12 0 0 0-69.12 69.162667z m196.053334-17.408h310.016c34.346667 0 62.165333 24.192 62.165333 54.101333v693.290667c0 29.909333-27.818667 54.186667-62.165333 54.186666H118.058667c-34.346667 0-62.165333-24.277333-62.165334-54.186666V106.837333c0-29.952 27.904-54.186667 62.165334-54.186666h78.336z m187.050666 84.821333a22.826667 22.826667 0 1 0 45.653334 0 22.826667 22.826667 0 0 0-45.653334 0z m-35.754666 23.466667a23.466667 23.466667 0 0 0 0-46.890667H195.413333a23.466667 23.466667 0 1 0 0 46.848h152.32zM265.088 925.013333a47.189333 47.189333 0 1 1 94.336 3.285334 47.189333 47.189333 0 0 1-94.293333-3.285334z">
      </path>
      <path
        d="M885.205333 779.818667a23.466667 23.466667 0 0 1-23.381333-23.466667v-152.32a23.466667 23.466667 0 1 1 46.848 0v152.32a23.466667 23.466667 0 0 1-23.466667 23.466667z">
      </path>
      <path
        d="M952.618667 397.909333h-269.056v55.594667h224.384c34.304 0 62.165333 27.861333 62.165333 62.165333v388.394667c0 34.304-27.861333 62.165333-62.165333 62.165333H683.52v55.552h269.098667a69.12 69.12 0 0 0 69.12-69.162666v-485.546667a69.12 69.12 0 0 0-69.12-69.12">
      </path>
    </symbol>
    <symbol id="infinity-pro-pure-icon-plus" viewBox="0 0 1024 1024">
      <path
        d="M32 416h960c19.2 0 32 12.8 32 32v128c0 19.2-12.8 32-32 32H32C12.8 608 0 595.2 0 576V448c0-19.2 12.8-32 32-32z">
      </path>
      <path
        d="M448 0h128c19.2 0 32 12.8 32 32v960c0 19.2-12.8 32-32 32H448c-19.2 0-32-12.8-32-32V32c0-19.2 12.8-32 32-32z">
      </path>
    </symbol>
    <symbol id="infinity-pro-pure-icon-gear" viewBox="0 0 1026 1024">
      <path
        d="M967.111111 546.133333c-11.377778-17.066667-11.377778-45.511111 0-62.577777l51.2-73.955556c11.377778-17.066667 11.377778-39.822222 0-62.577778L910.222222 164.977778c-11.377778-17.066667-28.444444-28.444444-51.2-28.444445l-96.711111 5.688889c-22.755556 0-45.511111-11.377778-51.2-28.444444L665.6 28.444444c-5.688889-17.066667-28.444444-28.444444-45.511111-28.444444H403.911111c-17.066667 0-39.822222 11.377778-45.511111 28.444444L312.888889 113.777778c-11.377778 17.066667-34.133333 28.444444-51.2 28.444444l-96.711111-5.688889c-22.755556 0-45.511111 11.377778-51.2 28.444445L5.688889 347.022222c-11.377778 17.066667-11.377778 39.822222 0 62.577778L56.888889 477.866667c11.377778 17.066667 11.377778 45.511111 0 62.577777l-51.2 73.955556c-11.377778 17.066667-11.377778 39.822222 0 62.577778L113.777778 859.022222c11.377778 17.066667 28.444444 28.444444 51.2 28.444445l96.711111-5.688889c22.755556 0 45.511111 11.377778 51.2 28.444444l45.511111 85.333334c5.688889 17.066667 28.444444 28.444444 45.511111 28.444444h210.488889c22.755556 0 39.822222-11.377778 51.2-28.444444l45.511111-85.333334c11.377778-17.066667 28.444444-34.133333 51.2-28.444444l96.711111 5.688889c22.755556 0 39.822222-11.377778 51.2-28.444445l102.4-176.355555c11.377778-17.066667 11.377778-39.822222 0-62.577778L967.111111 546.133333z m-142.222222 0l22.755555 28.444445c11.377778 17.066667 11.377778 39.822222 0 62.577778l-56.888888 96.711111c-11.377778 17.066667-28.444444 28.444444-51.2 28.444444h-39.822223c-22.755556 0-45.511111 11.377778-51.2 28.444445l-17.066666 34.133333c-11.377778 17.066667-28.444444 28.444444-51.2 28.444444H449.422222c-22.755556 0-39.822222-11.377778-51.2-28.444444l-17.066666-34.133333c-11.377778-17.066667-28.444444-34.133333-51.2-28.444445h-39.822223c-22.755556 0-39.822222-11.377778-51.2-28.444444l-56.888889-96.711111c-11.377778-17.066667-11.377778-39.822222 0-62.577778l22.755556-28.444445c11.377778-17.066667 11.377778-45.511111 0-62.577777l-22.755556-34.133334c-11.377778-17.066667-17.066667-39.822222-5.688888-56.888889l56.888888-96.711111c11.377778-17.066667 28.444444-28.444444 51.2-28.444444h39.822223c22.755556 0 45.511111-11.377778 51.2-28.444445l17.066666-34.133333c17.066667-22.755556 39.822222-34.133333 56.888889-34.133333H568.888889c22.755556 0 39.822222 11.377778 51.2 28.444444l17.066667 34.133333c11.377778 17.066667 28.444444 34.133333 51.2 28.444445h39.822222c22.755556 0 39.822222 11.377778 51.2 28.444444l56.888889 96.711111c11.377778 17.066667 11.377778 39.822222 0 62.577778l-22.755556 28.444445c0 22.755556 0 45.511111 11.377778 68.266666z">
      </path>
      <path
        d="M512 739.555556c-125.155556 0-227.555556-102.4-227.555556-227.555556s102.4-227.555556 227.555556-227.555556 227.555556 102.4 227.555556 227.555556-102.4 227.555556-227.555556 227.555556z m0-113.777778c62.577778 0 113.777778-51.2 113.777778-113.777778s-51.2-113.777778-113.777778-113.777778-113.777778 51.2-113.777778 113.777778 51.2 113.777778 113.777778 113.777778z">
      </path>
    </symbol>
    <symbol id="infinity-pro-pure-icon-user" viewBox="0 0 1024 1024">
      <path
        d="M723.2 556.8c64-57.6 108.8-140.8 108.8-236.8 0-179.2-140.8-320-320-320S192 140.8 192 320c0 96 44.8 179.2 108.8 236.8C121.6 640 0 819.2 0 1024h192c0-179.2 140.8-320 320-320s320 140.8 320 320h192c0-204.8-121.6-384-300.8-467.2zM320 320c0-108.8 83.2-192 192-192s192 83.2 192 192-83.2 192-192 192-192-83.2-192-192z">
      </path>
    </symbol>
    <symbol id="infinity-pro-pure-icon-bell" viewBox="0 0 1024 1024">
      <path
        d="M825.047 691.445v-311.74c0-208.792-130.076-297.405-227.505-310.543 0-47.663-54.715-68.707-86.395-68.707-31.566 0-84.461 20.987-84.461 66.375C333.01 82.3 198.953 170.06 198.953 379.649v311.796c0 104.538-18.542 139.574-35.718 146.342a38.562 38.562 0 0 0 17.46 72.916h661.756a38.79 38.79 0 0 0 15.13-74.622c-22.467-10.181-32.591-47.207-32.591-144.636zM540.097 61.199a374.53 374.53 0 0 0-28.325-1.365c-8.645 0-19.736 0.625-28.324 1.365 3.356-11.546 16.38-19.509 28.324-19.622 12.4 0 24.912 8.36 28.382 19.622zM231.94 851.892c27.017-34.865 24.343-73.768 24.343-137.242V372.255c0-177.568 124.332-259.071 255.83-259.071 131.384 0 255.772 81.503 255.772 259.128v342.395c0 63.417-8.702 102.377 18.258 137.185h-554.26z m326.64 86.737a8.531 8.531 0 0 0-7.791 6.484c-2.503 12.399-18.997 24.229-39.074 24.286-20.362 0-36.23-14.049-39.53-24.4a8.531 8.531 0 0 0-7.791-6.37H434.25a8.36 8.36 0 0 0-7.792 7.337c3.754 49.71 42.544 78.034 85.314 78.034 42.43 0 81.561-28.381 85.258-78.034a8.36 8.36 0 0 0-7.735-7.337h-30.713zM352.748 236.435a199.408 199.408 0 0 0-40.212 120.577v182.744a18.257 18.257 0 1 0 36.515 0V357.069c0-35.889 11.375-70.071 32.874-98.68a18.257 18.257 0 0 0-29.177-21.954z m54.942-50.222a18.257 18.257 0 0 0 19.281 30.997 190.993 190.993 0 0 1 16.437-8.986 18.314 18.314 0 1 0-15.754-32.988c-6.826 3.299-13.537 6.939-19.964 10.977z">
      </path>
    </symbol>
    <symbol id="infinity-pro-color-icon-img-add" viewBox="0 0 1024 1024">
      <path
        d="M870.401536 583.68a369.664 369.664 0 0 0-227.584-92.416c-90.624 0-179.2 71.424-266.24 140.288-66.304 52.736-134.656 107.264-182.784 107.264-67.328 0-124.928-51.2-144.64-69.376v-435.2A29.696 29.696 0 0 1 79.617536 204.8H716.801536V153.6H86.529536A87.296 87.296 0 0 0 0.001536 241.408v643.584A87.296 87.296 0 0 0 86.529536 972.8h748.544A87.296 87.296 0 0 0 921.601536 884.992V358.4h-51.2zM841.985536 921.6H79.617536A29.696 29.696 0 0 1 51.201536 892.672v-141.568a253.184 253.184 0 0 0 144.64 51.2c68.352 0 141.568-58.368 218.88-120.32s159.744-128 230.4-128c125.952 0 226.048 112.896 227.072 114.176v223.744A29.696 29.696 0 0 1 841.985536 921.6z"
        fill="#5C5C5C"></path>
      <path d="M870.401536 153.6V51.2h51.2v102.4h102.4v51.2h-102.4v102.4h-51.2V204.8h-102.4V153.6h102.4z"
        fill="#00C75D"></path>
      <path
        d="M284.929536 329.216a108.8 108.8 0 1 0 108.8 108.544 108.8 108.8 0 0 0-108.8-108.544z m0 167.168a58.624 58.624 0 1 1 58.624-58.624 58.624 58.624 0 0 1-58.624 58.624z"
        fill="#5C5C5C"></path>
    </symbol>
    <symbol id="infinity-pro-color-icon-infinity" viewBox="0 0 1024 1024">
      <path
        d="M772.779 408.576l-0.342-0.341c-27.648-27.648-64.512-43.008-103.765-43.008s-76.117 15.36-103.765 43.008l-53.248 53.248-53.248-53.248c-57.344-57.003-150.187-57.003-207.531 0-57.344 57.002-57.344 150.186 0 207.189l0.341 0.341c57.344 57.003 150.187 57.003 207.531 0L512 562.517l53.248 53.248c27.648 27.648 64.512 43.008 103.765 43.008s76.118-15.36 103.766-43.008c57.344-57.002 57.344-150.186 0-207.189zM473.77 513.706l-58.368 58.369c-32.086 32.085-84.651 32.085-117.078 0l-0.341-0.342c-32.085-32.085-32.085-84.65 0-116.736 15.701-15.701 36.523-24.234 58.368-24.234 22.187 0 43.008 8.533 58.368 24.234l59.05 58.71z m79.53-0.34l58.368-58.369c16.043-16.042 37.206-24.234 58.368-24.234 21.163 0 42.326 8.192 58.368 24.234l0.342 0.342c32.085 32.085 32.085 84.65 0 116.736-32.086 32.085-84.651 32.085-117.078 0l-58.368-58.71z m102.4 137.898c-20.48-2.048-39.936-8.192-57.344-18.432 17.75 10.24 37.547 16.725 57.344 18.432z m-57.685-18.773c-1.707-1.024-3.413-2.048-4.779-3.072 1.707 1.024 3.072 2.048 4.779 3.072z m-5.803-3.755c-1.365-1.024-2.389-1.707-3.754-2.73 1.024 1.023 2.389 2.047 3.754 2.73z m-5.802-4.096c-1.024-0.683-1.707-1.365-2.731-2.048 0.683 0.683 1.707 1.365 2.73 2.048z m-5.803-4.096c-0.341-0.341-1.024-0.683-1.365-1.024 0.682 0 1.024 0.683 1.365 1.024z m-1.707-215.723c0.342-0.341 1.024-0.682 1.366-1.365-0.342 0.683-1.024 1.024-1.366 1.365z m4.096-3.413c1.024-0.683 1.707-1.365 2.731-2.048-0.683 0.683-1.707 1.365-2.73 2.048z m4.779-3.413c1.365-1.024 2.39-1.707 3.755-2.731-1.024 0.683-2.39 1.707-3.755 2.73z m5.12-3.414c1.707-1.024 3.072-2.048 4.779-3.072-1.707 1.024-3.414 2.048-4.779 3.072z m5.12-3.413c17.408-10.24 36.864-16.725 57.344-18.432-20.139 1.707-39.595 8.192-57.344 18.432z m-85.333 78.848l-1.024 1.024-4.779-4.779 4.779 4.779 1.024-1.024z m-0.342 82.944l-7.509 7.51 7.51-7.51zM256 610.645c-54.613-54.613-54.613-143.018 0-197.632a136.946 136.946 0 0 1 38.23-26.965c-13.995 6.485-26.966 15.701-38.23 26.965-54.613 54.614-54.613 143.019 0 197.632l0.341 0.342-0.341-0.342z m512 0.342c-26.283 26.282-61.44 40.96-98.987 40.96h-3.754c37.205 1.024 74.41-12.63 102.741-40.96 54.613-54.614 54.613-143.019 0-197.632l-0.341-0.342c-27.99-27.989-65.195-41.642-102.059-40.96h3.413c37.206 0 72.363 14.678 98.987 40.96l0.341 0.342c54.272 54.613 54.272 143.018-0.341 197.632z m-111.957 40.277c2.048 0.341 4.096 0.341 6.144 0.341-1.707 0-4.096 0-6.144-0.341z m0.341-278.528c2.048 0 3.755-0.341 5.803-0.341-2.048 0-4.096 0-5.803 0.341z"
        fill="#FFED23"></path>
      <path d="M0 0h1024v1024H0z" fill="#FF4E50"></path>
      <path
        d="M772.779 408.576l-0.342-0.341c-27.648-27.648-64.512-43.008-103.765-43.008s-76.117 15.36-103.765 43.008l-53.248 53.248-53.248-53.248c-57.344-57.003-150.187-57.003-207.531 0-57.344 57.002-57.344 150.186 0 207.189l0.341 0.341c57.344 57.003 150.187 57.003 207.531 0L512 562.517l53.248 53.248c27.648 27.648 64.512 43.008 103.765 43.008s76.118-15.36 103.766-43.008c57.344-57.002 57.344-150.186 0-207.189zM473.77 513.706l-58.368 58.369c-32.086 32.085-84.651 32.085-117.078 0l-0.341-0.342c-32.085-32.085-32.085-84.65 0-116.736 15.701-15.701 36.523-24.234 58.368-24.234 22.187 0 43.008 8.533 58.368 24.234l59.05 58.71z m79.53-0.34l58.368-58.369c16.043-16.042 37.206-24.234 58.368-24.234 21.163 0 42.326 8.192 58.368 24.234l0.342 0.342c32.085 32.085 32.085 84.65 0 116.736-32.086 32.085-84.651 32.085-117.078 0l-58.368-58.71z"
        fill="#FFED23"></path>
      <path
        d="M669.013 658.773c-39.253 0-76.117-15.36-103.765-43.008L512 562.517l-53.248 53.248c-57.344 57.003-150.187 57.003-207.53 0l-0.342-0.341c-57.344-57.003-57.344-150.187 0-207.19 57.344-57.002 150.187-57.002 207.53 0l53.249 53.249 53.248-53.248c27.648-27.648 64.512-43.008 103.765-43.008s76.117 15.36 103.765 43.008l0.342 0.341c57.344 57.003 57.344 150.187 0 207.19-27.648 27.647-64.512 43.007-103.766 43.007zM512.341 552.96l58.027 58.027c26.283 26.282 61.44 40.96 98.987 40.96s72.362-14.678 98.986-40.96c54.614-54.614 54.614-143.019 0-197.632l-0.341-0.342c-26.283-26.282-61.44-40.96-98.987-40.96-37.205 0-72.362 14.678-98.986 40.96L512 471.04l-58.027-58.027c-54.613-54.613-143.36-54.613-197.632 0-54.613 54.614-54.613 143.019 0 197.632l0.342 0.342c54.613 54.613 143.36 54.613 197.632 0l58.026-58.027z m158.379 50.176c-22.87 0-45.739-8.875-63.147-26.283l-58.709-58.709c-1.365-1.365-2.048-3.072-2.048-4.779 0-1.706 0.683-3.413 2.048-4.778l58.368-58.368c34.816-34.816 91.819-34.816 126.635 0l0.341 0.341c34.816 34.816 34.816 91.477 0 126.635-17.75 17.066-40.619 25.941-63.488 25.941z m-0.341-172.373c-21.163 0-42.326 8.192-58.368 24.234l-58.368 58.368 58.709 58.71c32.085 32.085 84.65 32.085 117.077 0 32.086-32.086 32.086-84.651 0-116.736l-0.341-0.342c-16.384-16.042-37.547-24.234-58.71-24.234zM356.693 603.136c-22.869 0-45.738-8.875-63.146-26.283l-0.342-0.341c-34.816-34.816-34.816-91.477 0-126.635 17.067-16.725 39.254-26.282 63.147-26.282s46.421 9.216 63.147 26.282l58.709 58.71c1.365 1.365 2.048 3.072 2.048 4.778 0 1.707-0.683 3.414-2.048 4.779l-58.368 58.71c-17.408 17.407-40.277 26.282-63.147 26.282z m-58.709-148.139c-32.085 32.086-32.085 84.651 0 116.736l0.341 0.342c32.086 32.085 84.651 32.085 117.078 0l58.368-58.368-58.71-58.71c-15.701-15.701-36.522-24.234-58.368-24.234-22.186 0-43.008 8.533-58.709 24.234z"
        fill="#FFF700"></path>
      <path d="M444.075 543.061l44.032 44.032 24.234-24.234-38.912-49.152z" fill="#CE7F00"></path>
    </symbol>
</svg>
