<?xml version="1.0" encoding="UTF-8"?>
<svg width="18px" height="18px" viewBox="0 0 18 18" version="1.1" xmlns="http://www.w3.org/2000/svg" xmlns:xlink="http://www.w3.org/1999/xlink">
    <title>icon-backup</title>
    <g id="页面-1" stroke="none" stroke-width="1" fill="none" fill-rule="evenodd">
        <g id="我的" transform="translate(-300.000000, -313.000000)" fill="#333333" fill-rule="nonzero">
            <g id="编组-51备份-3" transform="translate(30.000000, 121.000000)">
                <g id="编组-31" transform="translate(270.000000, 192.000000)">
                    <g id="云上传">
                        <path d="M8.76635935,2.30492974 C6.1308099,2.41630327 3.92952516,4.40229547 3.53105716,6.98917572 L3.51,7.142 L3.5869966,7.13084905 C1.69722267,7.37868825 0.26,9.01990381 0.26,10.95 C0.26,13.0698202 2.00929779,14.8 4.14,14.8 L5.99999999,14.8 L5.99999999,13.4 L4.14,13.4 C2.78522848,13.4 1.68999999,12.3047715 1.68999999,10.95 C1.68999999,9.59522848 2.78522848,8.49999999 4.14,8.49999999 L4.80000001,8.49999999 L4.90000001,8.39999999 L4.90000001,7.79999999 C4.90000001,5.54522847 6.74522848,3.7 9,3.7 C11.2547715,3.7 13.1,5.54522847 13.1,7.79999999 L13.1,8.39999999 L13.2,8.49999999 L14.04,8.49999999 C15.3753178,8.49999999 16.49,9.60569279 16.49,10.95 C16.49,12.3047715 15.3947715,13.4 14.04,13.4 L12,13.4 L11.9,13.5 L11.9,14.7 L12,14.8 L14.04,14.8 C16.1349887,14.8 17.859202,13.0757867 17.8899895,10.9514491 L17.8849466,10.7537354 C17.7911716,8.91985425 16.399861,7.41729227 14.5763272,7.15387669 L14.459,7.139 L14.4694016,7.21907675 C14.1617453,4.41940393 11.8221435,2.29999999 9,2.29999999 L8.76635935,2.30492974 Z" id="路径"></path>
                        <polygon id="路径" points="9.57575813 8.20000001 8.37575814 8.20000001 8.27575814 8.30000001 8.27575814 12.132067 8.37575814 12.232067 9.57575813 12.232067 9.67575813 12.132067 9.67575813 8.30000001"></polygon>
                        <path d="M10.9752349,14.8023411 C9.51663574,14.8023411 8.3667332,13.7407944 8.28043685,12.2795648 L8.27523491,12.1023411 L9.67523491,12.1023411 C9.67523491,12.8233715 10.1560254,13.335048 10.8365501,13.396191 L10.9752349,13.4023411 L12.074593,13.4023411 L12.074593,14.8023411 L10.9752349,14.8023411 Z" id="路径"></path>
                        <polygon id="路径" points="9.10687171 6.81969454 9.035 6.74082947 8.96504745 6.81928933 6.32504746 9.45928932 7.30587212 10.4413024 9.035 8.74 10.7350475 10.4407107 11.7168717 9.45969453"></polygon>
                    </g>
                </g>
            </g>
        </g>
    </g>
</svg>