<?xml version="1.0" encoding="utf-8"?>
<svg xmlns="http://www.w3.org/2000/svg">
  <symbol id="icon-sousuo1" viewBox="0 0 1024 1024">
    <path d="M424.024 766.098c-91.619 0-177.754-35.679-242.538-100.464-133.735-133.737-133.735-351.344 0-485.078 64.784-64.784 150.919-100.462 242.538-100.462s177.754 35.677 242.539 100.462c133.733 133.735 133.735 351.34 0 485.078-64.785 64.783-150.922 100.464-242.539 100.464zM424.024 196.085c-60.637 0-117.643 23.613-160.523 66.489-88.512 88.51-88.51 232.53 0 321.040 42.876 42.876 99.885 66.491 160.523 66.491s117.643-23.614 160.523-66.491c88.51-88.51 88.51-232.53 0-321.040-42.876-42.876-99.885-66.489-160.523-66.489z" fill=""></path>
    <path d="M886.838 943.904c-14.842 0-29.684-5.663-41.010-16.986l-261.286-261.285c-22.647-22.649-22.647-59.369 0-82.018 22.647-22.647 59.37-22.647 82.018 0l261.286 261.286c22.647 22.649 22.647 59.369 0 82.018-11.325 11.322-26.167 16.985-41.010 16.985z" fill=""></path>
  </symbol>
  <symbol id="icon-back" viewBox="0 0 1024 1024">
    <path d="M957.190385 452.601168l-682.637332 0 312.744887-313.793776-77.341482-77.600379L62.715367 509.962597l447.240067 448.749444 80.70202-80.993662L274.553053 567.31277l682.637332 0L957.190385 452.601168 957.190385 452.601168z"></path>
  </symbol>
  <symbol id="icon-xinjianbizhiku" viewBox="0 0 1024 1024">
    <path d="M822.1696 204.24704V651.0592a18.61632 18.61632 0 1 1-37.25312 0v-409.6H151.90016V874.496h409.6a18.61632 18.61632 0 1 1 0 37.23264H114.688V204.24704h707.50208z m-123.14624 450.74432c10.30144 0 18.61632 8.33536 18.61632 18.61632v91.136h91.136a18.61632 18.61632 0 1 1 0 37.23264h-91.136v91.136a18.61632 18.61632 0 1 1-37.23264 0v-91.136h-91.136a18.61632 18.61632 0 1 1 0-37.23264h91.136v-91.136c0-10.28096 8.31488-18.6368 18.61632-18.6368z m-58.73664-281.7024l39.30112 157.696v2.00704a108.72832 108.72832 0 0 0-64.8192 99.36896v43.54048h-43.52c-41.22624 0-76.65664 23.20384-95.10912 57.01632H230.5024l163.2256-201.9328L471.04 600.1664l169.24672-226.87744z m290.816-275.53792v378.69568a18.432 18.432 0 0 1-36.74112 2.31424l-0.14336-2.31424V134.59456H540.85632a18.432 18.432 0 0 1-18.28864-16.09728l-0.14336-2.31424a18.432 18.432 0 0 1 16.11776-18.28864l2.31424-0.14336h390.22592zM289.52576 318.81216a61.27616 61.27616 0 1 1 0 122.5728 61.25568 61.25568 0 0 1 0-122.5728z"></path>
  </symbol>
  <symbol id="icon-xuanzhong" viewBox="0 0 1024 1024">
    <path d="M512 0c282.7776 0 512 229.2224 512 512s-229.2224 512-512 512S0 794.7776 0 512 229.2224 0 512 0z m195.8912 279.7056l-240.7424 280.7808-149.4016-126.6176L251.5456 512 430.08 663.1936l48.4352 41.5232 0.4096-0.0512 34.0992-40.2944 272.6912-318.0544-77.7728-66.6112z"></path>
  </symbol>
  <symbol id="icon-zidingyiyanse" viewBox="0 0 1024 1024">
    <path d="M643.614118 506.699294a48.399059 48.399059 0 0 1 0 68.427294l-115.471059 115.471059a48.399059 48.399059 0 0 1-68.427294 0l-115.471059-115.471059a48.399059 48.399059 0 0 1 0-68.427294l82.763294-82.733176c15.058824-15.058824 15.058824-39.454118 0-54.512942l-11.535059-11.535058a28.310588 28.310588 0 0 1 40.056471-40.026353l188.084706 188.807529zM493.929412 425.261176l-115.651765 115.651765h231.303529l-115.651764-115.651765z m260.21647 230.430118c0 27.105882-21.564235 49.061647-48.188235 49.061647-26.624 0-48.188235-21.985882-48.188235-49.061647 0-10.601412 3.312941-20.690824 9.33647-29.033412l28.370824-50.657882a11.926588 11.926588 0 0 1 20.961882 0l28.370824 50.657882c6.023529 8.342588 9.336471 18.462118 9.33647 29.033412z"></path>
    <path d="M632.470588 66.258824a24.094118 24.094118 0 0 1 3.011765 48.007529L632.470588 114.447059H150.588235a36.141176 36.141176 0 0 0-35.96047 32.436706L114.447059 150.588235v722.82353a36.141176 36.141176 0 0 0 32.436706 35.96047L150.588235 909.552941h722.82353a36.141176 36.141176 0 0 0 35.96047-32.436706L909.552941 873.411765V421.647059a24.094118 24.094118 0 0 1 48.00753-3.011765l0.180705 3.011765v451.764706a84.329412 84.329412 0 0 1-79.209411 84.178823L873.411765 957.741176H150.588235a84.329412 84.329412 0 0 1-84.178823-79.209411L66.258824 873.411765V150.588235a84.329412 84.329412 0 0 1 79.209411-84.178823L150.588235 66.258824h481.882353zM873.411765 66.258824a24.094118 24.094118 0 0 1 23.913411 21.082352l0.180706 3.011765v51.2h51.2a24.094118 24.094118 0 0 1 3.011765 48.00753l-3.011765 0.180705h-51.2V240.941176a24.094118 24.094118 0 0 1-48.007529 3.011765L849.317647 240.941176V189.741176h-51.2a24.094118 24.094118 0 0 1-3.011765-48.007529l3.011765-0.180706h51.2V90.352941a24.094118 24.094118 0 0 1 24.094118-24.094117z"></path>
  </symbol>
  <symbol id="icon-xingzhuangjiehe" viewBox="0 0 1024 1024">
    <path d="M512 204.8a102.4 102.4 0 1 1 0-204.8 102.4 102.4 0 0 1 0 204.8z m0 409.6a102.4 102.4 0 1 1 0-204.8 102.4 102.4 0 0 1 0 204.8z m0 409.6a102.4 102.4 0 1 1 0-204.8 102.4 102.4 0 0 1 0 204.8z"></path>
  </symbol>
  <symbol id="icon-zhu_shengxu" viewBox="0 0 1024 1024">
    <path d="M909.458286 905.874286V166.546286a21.942857 21.942857 0 0 0-36.425143-16.530286L666.916571 330.313143a21.942857 21.942857 0 0 0 14.482286 38.473143h84.845714v537.088h143.213715zM408.137143 332.946286V189.732571H157.549714v143.213715H408.137143zM551.350857 619.52V476.16H157.549714V619.52h393.801143z m143.286857 286.427429v-143.213715H157.549714v143.213715h537.088z"></path>
  </symbol>
  <symbol id="icon-jiangxu" viewBox="0 0 1024 1024">
    <path d="M736.907636 0v939.752727a27.927273 27.927273 0 0 1-46.545454 20.759273L333.265455 639.162182a27.927273 27.927273 0 0 1 18.618181-48.686546h202.658909V0h182.272z"></path>
  </symbol>
  <symbol id="icon-shengxu" viewBox="0 0 1024 1024">
    <path d="M736.907636 1024V84.247273a27.927273 27.927273 0 0 0-46.545454-20.759273L333.265455 384.837818a27.927273 27.927273 0 0 0 18.618181 48.686546h202.658909V1024h182.272z"></path>
  </symbol>
  <symbol id="icon-paixu-jiangxu" viewBox="0 0 1024 1024">
    <path d="M909.458286 118.125714v739.328a21.942857 21.942857 0 0 1-36.425143 16.530286L666.916571 693.686857a21.942857 21.942857 0 0 1 14.482286-38.473143h84.845714V118.125714h143.213715zM408.137143 691.053714v143.213715H157.549714V691.053714H408.137143zM551.350857 404.48V547.84H157.549714V404.48h393.801143z m143.286857-286.427429v143.213715H157.549714V118.125714h537.088z"></path>
  </symbol>
  <symbol id="icon-bendibizhi" viewBox="0 0 1024 1024">
    <path d="M96 896a31.168 31.168 0 0 1-23.04-8.96 31.168 31.168 0 0 1-8.96-23.04v-704c0-9.344 3.008-17.024 8.96-23.04A31.168 31.168 0 0 1 96 128h832c9.344 0 17.024 3.008 23.04 8.96 5.952 6.016 8.96 13.696 8.96 23.04v704a31.168 31.168 0 0 1-8.96 23.04 31.168 31.168 0 0 1-23.04 8.96h-832z m316.032-228.032L342.976 599.04A31.616 31.616 0 0 0 320 588.992a31.616 31.616 0 0 0-23.04 10.048L128 768h779.008L664.96 477.952a31.232 31.232 0 0 0-24.96-11.968 31.232 31.232 0 0 0-24.96 12.032L458.944 664.96a29.824 29.824 0 0 1-23.04 11.52 32.832 32.832 0 0 1-24-8.512zM256 384c0 17.344 4.352 33.344 12.992 48 8.64 14.656 20.48 26.304 35.456 35.008 15.04 8.704 30.848 12.992 47.552 12.992 16.64 0 32.64-4.352 48-12.992s27.136-20.288 35.456-35.008A96 96 0 0 0 448 384c-0.64-27.328-10.048-49.984-28.032-68.032-17.984-17.92-40.704-26.944-68.032-26.944-27.264 0-49.92 8.96-67.968 26.944-17.984 18.048-27.328 40.704-28.032 68.032H256z"></path>
  </symbol>
  <symbol id="icon-juxing1" viewBox="0 0 1024 1024">
    <path d="M135.168 179.785143a277.211429 277.211429 0 0 1 368.932571-20.553143l8.411429 7.094857 6.802286-5.851428a275.602286 275.602286 0 0 1 341.138285-4.534858l12.361143 10.020572 11.410286 10.459428 3.145143 3.145143a275.894857 275.894857 0 0 1 22.454857 365.129143l-9.874286 11.922286-148.48 149.796571-187.611428 188.269715c-3.291429 3.291429-8.777143 7.314286-17.042286 12.434285a67.291429 67.291429 0 0 1-72.630857-4.681143l-6.729143-5.705142-331.337143-327.68a274.432 274.432 0 0 1-12.726857-376.685715l11.776-12.580571z m71.168 52.004571l-10.752 10.093715a187.830857 187.830857 0 0 0-7.753143 255.780571l9.216 9.801143 317.44 313.929143 175.689143-176.274286 96.548571-96.475429v-0.365714l44.178286-44.470857c65.609143-70.217143 67.657143-178.029714 6.656-250.587429l-9.142857-10.093714-2.194286-2.194286a188.928 188.928 0 0 0-257.243428-8.996571l-9.874286 9.216-41.106286 41.252571H507.611429l-42.496-41.984a190.610286 190.610286 0 0 0-258.852572-8.630857z"></path>
  </symbol>
  <symbol id="icon-kejian2x" viewBox="0 0 1024 1024">
    <path d="M512 192C298.666667 192 116.451556 324.664889 42.666667 512c73.784889 187.335111 256 320 469.333333 320S907.548444 699.335111 981.333333 512C907.548444 324.664889 725.333333 192 512 192z m0 533.333333c-117.76 0-213.333333-95.573333-213.333333-213.333333 0-117.76 95.573333-213.333333 213.333333-213.333333 117.76 0 213.333333 95.573333 213.333333 213.333333 0 117.76-95.573333 213.333333-213.333333 213.333333z m0-341.333333A127.829333 127.829333 0 0 0 384 512 127.829333 127.829333 0 0 0 512 640 127.829333 127.829333 0 0 0 640 512 127.829333 127.829333 0 0 0 512 384z" fill="#333333"></path>
  </symbol>
  <symbol id="icon-bukejian2x" viewBox="0 0 1024 1024">
    <path d="M93.184 453.745778a38.968889 38.968889 0 0 0-34.247111 57.571555l15.530667 23.665778c24.462222 35.953778 52.053333 68.437333 82.261333 96.938667l10.808889 9.841778-74.808889 74.752a39.367111 39.367111 0 0 0 0 55.182222l4.778667 3.982222c15.075556 10.808889 36.352 9.500444 50.289777-3.925333l82.090667-82.090667 13.255111 8.533333c34.872889 21.333333 71.907556 38.172444 110.819556 50.403556l13.653333 3.925333-38.627556 106.894222a38.912 38.912 0 0 0 23.438223 49.777778l5.461333 1.592889a38.912 38.912 0 0 0 44.259556-25.031111l42.552888-117.646222-4.551111-0.455111A546.133333 546.133333 0 0 0 512 772.323556l24.177778-0.568889c8.021333-0.284444 16.042667-0.796444 23.950222-1.536l19.057778-2.104889 42.666666 117.76 2.389334 5.290666c9.386667 16.952889 29.582222 24.462222 47.388444 18.033778l5.290667-2.275555a39.025778 39.025778 0 0 0 18.090667-47.502223l-38.741334-106.837333 13.880889-3.982222a498.460444 498.460444 0 0 0 111.502222-50.858667l13.312-8.590222 82.659556 82.488889 4.949333 4.152889c15.587556 10.808889 36.465778 9.102222 50.119111-3.982222l4.096-4.835556a39.480889 39.480889 0 0 0-3.982222-50.460444l-75.605333-75.491556 11.093333-10.012444a593.066667 593.066667 0 0 0 83.285333-99.100445l10.524445-16.270222a37.546667 37.546667 0 0 0 7.68-22.926222 38.968889 38.968889 0 0 0-71.850667-21.048889C808.277333 615.480889 671.288889 694.385778 512 694.385778l-16.384-0.284445c-146.944-5.063111-273.635556-78.051556-360.106667-207.644444l-9.443555-14.620445a38.912 38.912 0 0 0-32.881778-18.090666z" fill="#333332"></path>
  </symbol>
  <symbol id="icon-sort" viewBox="0 0 1024 1024">
    <path d="M177.902933 380.381867A55.159467 55.159467 0 0 1 161.109333 341.333333c0-5.597867 2.730667-11.127467 2.730667-16.725333l2.8672-7.304533c5.597867-8.3968 8.328533-9.4208 13.9264-15.018667l225.4848-225.962667 75.1616 78.097067-136.3968 136.669867h508.859733v106.018133h-634.197333a61.303467 61.303467 0 0 1-41.710933-16.725333zM539.8528 801.655467L679.048533 662.186667H171.281067V556.168533h638.634666c30.583467 0 52.906667 25.053867 52.906667 52.974934a55.159467 55.159467 0 0 1-16.725333 39.048533L617.813333 876.9536l-77.960533-75.298133z" fill="#333333"></path>
  </symbol>
  <symbol id="icon-zan2x" viewBox="0 0 1024 1024">
    <path d="M558.848 67.84a57.6 57.6 0 0 1 81.28-0.192l43.136 42.752a117.952 117.952 0 0 1 32 107.968L691.2 333.312h183.936a138.24 138.24 0 0 1 137.92 128.448l0.384 9.92-0.192 1.664 0.192 1.728V552.32c0 17.344-3.52 34.24-10.496 52.096l-121.536 284.16a138.048 138.048 0 0 1-127.36 84.48H391.04c-29.888 0-57.6-9.472-80.192-25.6l-4.736-3.584H148.864a57.6 57.6 0 0 1-57.152-50.304l-0.448-7.232V402.176a57.6 57.6 0 0 1 57.6-57.6l134.528-0.064 1.6-1.984 8.128-9.024z m40.832 121.984L374.912 414.656a23.616 23.616 0 0 0-7.04 16.64c0 4.096-0.32 7.936-0.96 11.584h0.512v384l0.448 7.872c0 12.8 10.304 23.104 23.04 23.104h363.136a23.04 23.04 0 0 0 21.312-14.272l120.96-282.752a23.68 23.68 0 0 0 1.92-8.512l-0.064-71.232-0.384-6.4 0.256-4.16-0.32-3.52a23.04 23.04 0 0 0-17.92-17.92l-4.672-0.512H620.352a57.6 57.6 0 0 1-56.384-69.376l38.656-185.344-0.128-1.024L601.984 192l-2.304-2.176zM252.864 459.712h-46.4v368.96h46.464V459.712z"></path>
  </symbol>
  <symbol id="icon-zan-dianji2x" viewBox="0 0 1024 1024">
    <path d="M558.848 67.84L293.12 333.44l-8.128 9.088-1.6 1.984-134.528 0.064a57.6 57.6 0 0 0-57.6 57.6v484.16l0.448 7.232a57.6 57.6 0 0 0 57.152 50.368l157.184-0.064 4.736 3.584c22.592 16.128 50.304 25.6 80.192 25.6h363.072c56.192 0 106.048-33.728 127.36-84.48l121.536-284.16c7.04-17.856 10.496-34.752 10.496-52.096V475.072l-0.192-1.728 0.192-1.664-0.384-9.92a138.24 138.24 0 0 0-137.92-128.384L691.2 333.312l24.064-114.944a117.952 117.952 0 0 0-32-107.968L640 67.648a57.6 57.6 0 0 0-81.28 0.128z"></path>
  </symbol>
  <symbol id="icon-bianzu32x" viewBox="0 0 1024 1024">
    <path d="M512 0C229.236364 0 0 229.236364 0 512s229.236364 512 512 512 512-229.236364 512-512S794.763636 0 512 0z m0 93.090909a418.909091 418.909091 0 1 1 0 837.818182 418.909091 418.909091 0 0 1 0-837.818182z" fill="#333333"></path>
    <path d="M696.599273 373.713455A58.181818 58.181818 0 0 1 786.618182 447.208727l-4.049455 4.887273-255.534545 280.343273a58.181818 58.181818 0 0 1-81.873455 4.096l-4.514909-4.514909-162.210909-181.201455A58.181818 58.181818 0 0 1 360.727273 468.712727l4.468363 4.468364 119.249455 133.213091 212.200727-232.680727z" fill="#FFFFFF"></path>
  </symbol>
  <symbol id="icon-juxing2x" viewBox="0 0 2002 1024">
    <path d="M2002.905516 60.106551h-9.628115V43.329802a33.740264 33.740264 0 0 0-33.766024-33.714503V0.000064C1983.475401 0.000064 2002.905516 19.397979 2002.905516 43.329802v16.776749z m0 153.805111h-9.628115V137.009106H2002.905516v76.902556z m0 153.811551h-9.628115V290.814217H2002.905516v76.908996z m0 153.805111h-9.628115V444.632209H2002.905516V521.528324z m0 153.811551h-9.628115V598.424439H2002.905516v76.908996z m0 153.805111h-9.628115v-76.902555H2002.905516v76.902555z m-0.077282 154.088481l-9.608795-0.560299a34.261921 34.261921 0 0 0 0.064402-2.009346v-74.61628H2002.905516v74.61628c0 0.862988-0.025761 1.719536-0.077282 2.576085zM1863.397673 1023.99356v-9.615235h77.024919V1023.99356h-77.024919z m-154.049839 0v-9.615235h77.024919V1023.99356h-77.024919z m-154.036959 0v-9.615235h77.02492V1023.99356H1555.310875z m-154.049839 0v-9.615235h77.02492V1023.99356h-77.02492z m-154.036959 0v-9.615235h77.02492V1023.99356h-77.02492z m-154.043398 0v-9.615235h77.024919V1023.99356h-77.024919z m-154.043399 0v-9.615235h77.024919V1023.99356h-77.024919z m-154.043399 0v-9.615235h77.024919V1023.99356h-77.024919z m-154.043399 0v-9.615235h77.02492V1023.99356h-77.02492z m-154.043399 0v-9.615235h77.02492V1023.99356h-77.02492z m-154.043399 0v-9.615235h77.02492V1023.99356h-77.02492z m-154.043399 0v-9.615235h77.02492V1023.99356h-77.02492zM13.588844 1012.156453l6.614097-6.981189a33.656541 33.656541 0 0 0 23.184758 9.209501h48.514107V1023.99356H43.394139a43.291096 43.291096 0 0 1-29.805295-11.837107zM0 858.512347h9.628115v76.902555H0v-76.896115z m0-153.805111h9.628115v76.896115H0v-76.896115zM0 550.895684h9.628115v76.902556H0v-76.896115z m0-153.805111h9.628115v76.896116H0v-76.896116z m0-153.811551h9.628115v76.902556H0v-76.896116z m0-153.805111h9.628115v76.896115H0v-76.896115zM91.000177 0.000064v9.615235H43.394139c-8.86817 0-17.176042 3.413312-23.429486 9.434909L13.279714 12.133421A43.291096 43.291096 0 0 1 43.394139 0.000064h47.606038z m154.049839 0v9.615235H168.025096V0.000064h77.02492z m154.036958 0v9.615235h-77.024919V0.000064h77.024919z m154.049839 0v9.615235h-77.024919V0.000064h77.024919z m154.036959 0v9.615235h-77.024919V0.000064h77.024919z m154.049839 0v9.615235h-77.024919V0.000064h77.024919z m154.036959 0v9.615235h-77.02492V0.000064h77.02492z m154.049839 0v9.615235h-77.02492V0.000064h77.02492z m154.036958 0v9.615235h-77.024919V0.000064h77.024919z m154.049839 0v9.615235h-77.024919V0.000064h77.024919z m154.036959 0v9.615235h-77.024919V0.000064h77.024919z m154.049839 0v9.615235h-77.024919V0.000064h77.024919z m154.036959 0v9.615235h-77.02492V0.000064h77.02492z" fill="#DBDBDB"></path>
  </symbol>
  <symbol id="icon-bianzu72x" viewBox="0 0 1024 1024">
    <path d="M512 0c282.7776 0 512 229.2224 512 512s-229.2224 512-512 512S0 794.7776 0 512 229.2224 0 512 0z m195.8912 330.9056l-240.7424 280.7808-149.4016-126.6176L251.5456 563.2 430.08 714.3936l48.4352 41.5232 0.4096-0.0512 34.0992-40.2944 272.6912-318.0544-77.7728-66.6112z"></path>
  </symbol>
  <symbol id="icon-xingzhuangjiehe2x" viewBox="0 0 1024 1024">
    <path d="M555.885714 0v468.114286h468.114286v87.771428H555.856457L555.885714 1024h-87.771428l-0.029257-468.114286H0v-87.771428h468.114286V0h87.771428z"></path>
  </symbol>
  <symbol id="icon-xuxianbiankuang" viewBox="0 0 1808 1024">
    <path d="M1802.584523 53.937047l-9.349981 2.000149A52.654654 52.654654 0 0 0 1741.757009 14.35514v-9.570093c29.485458 0 54.740935 20.671402 60.827514 49.152z m1.378094 153.111925h-9.570094v-76.560748h9.570094v76.560748z m0 153.121495h-9.570094v-76.560747h9.570094v76.560747z m0 153.121496h-9.570094v-76.560748h9.570094v76.560748z m0 153.121495h-9.570094v-76.560748h9.570094v76.560748z m0 153.121495h-9.570094v-76.560747h9.570094v76.560747z m-2.296823 154.269907l-9.216-2.583925c1.282393-4.593645 1.942729-9.349981 1.942729-14.211589v-60.913645h9.570094V957.009346c0 5.732486-0.775178 11.369271-2.296823 16.785944z m-139.043887 45.410093v-9.570093h76.560747v9.570093h-76.560747z m-153.121496 0v-9.570093h76.560748v9.570093h-76.560748z m-153.121495 0v-9.570093h76.560748v9.570093h-76.560748z m-153.121495 0v-9.570093h76.560747v9.570093h-76.560747z m-153.121496 0v-9.570093h76.560748v9.570093h-76.560748z m-153.121495 0v-9.570093h76.560748v9.570093h-76.560748z m-153.121495 0v-9.570093h76.560747v9.570093h-76.560747z m-153.121496 0v-9.570093h76.560748v9.570093h-76.560748z m-153.121495 0v-9.570093h76.560748v9.570093h-76.560748z m-153.121495 0v-9.570093h76.560747v9.570093h-76.560747z m-153.121496 0v-9.570093h76.560748v9.570093h-76.560748zM4.785047 957.009346h9.570093a52.654654 52.654654 0 0 0 41.562916 51.467962l-2.00972 9.359552A62.224748 62.224748 0 0 1 4.785047 957.009346z m0-152.202767h9.570093v76.560748h-9.570093v-76.560748z m0-153.121495h9.570093v76.560748h-9.570093v-76.560748z m0-153.121495h9.570093v76.560747h-9.570093v-76.560747z m0-153.121496h9.570093v76.560748h-9.570093v-76.560748z m0-153.121495h9.570093v76.560748h-9.570093v-76.560748z m7.273271-154.547439l8.450392 4.497944A52.377121 52.377121 0 0 0 14.35514 66.990654v48.769196h-9.570093V66.990654c0-10.326131 2.526505-20.288598 7.273271-29.217495zM158.270206 4.785047v9.570093h-76.560748v-9.570093h76.560748z m153.121495 0v9.570093h-76.560748v-9.570093h76.560748z m153.121495 0v9.570093h-76.560747v-9.570093h76.560747z m153.121496 0v9.570093h-76.560748v-9.570093h76.560748z m153.121495 0v9.570093h-76.560748v-9.570093h76.560748z m153.121495 0v9.570093h-76.560747v-9.570093h76.560747z m153.121496 0v9.570093h-76.560748v-9.570093h76.560748z m153.121495 0v9.570093h-76.560748v-9.570093h76.560748z m153.121495 0v9.570093h-76.560747v-9.570093h76.560747z m153.121496 0v9.570093h-76.560748v-9.570093h76.560748z m153.121495 0v9.570093h-76.560748v-9.570093h76.560748z"></path>
  </symbol>
  <symbol id="icon-icon-zhuxiao" viewBox="0 0 1024 1024">
    <path d="M512 537.6a51.2 51.2 0 0 0 51.2-51.2V128a51.2 51.2 0 0 0-102.4 0v358.4a51.2 51.2 0 0 0 51.2 51.2z m153.6-379.392v114.688a307.2 307.2 0 1 1-307.2 0V158.208a409.6 409.6 0 1 0 307.2 0z"></path>
  </symbol>
  <symbol id="icon-icon-miyao" viewBox="0 0 1024 1024">
    <path d="M512 578.176a40.512 40.512 0 0 0-40.512 40.512v127.552a40.512 40.512 0 1 0 81.024 0V618.688A40.512 40.512 0 0 0 512 578.176z"></path>
    <path d="M499.52 62.848c124.032-6.976 227.008 87.616 233.6 210.624l0.256 12.416v13.952H626.816v-16a114.752 114.752 0 0 0-229.184-9.408l-0.384 9.408-0.064 119.488h438.656c37.568 0 68.928 26.688 76.16 62.144l1.216 7.68 0.384 8v402.624a77.76 77.76 0 0 1-68.992 77.312l-8.768 0.448H188.16a77.76 77.76 0 0 1-77.248-68.992l-0.512-8.768V481.152c0-40.32 30.592-73.408 69.76-77.376l8-0.384 102.464-0.064V283.84a221.44 221.44 0 0 1 185.088-218.432l11.84-1.6 11.968-0.96z m307.456 447.104H216.96v344.96h590.016v-344.96z"></path>
  </symbol>
  <symbol id="icon-nv" viewBox="0 0 1024 1024">
    <path d="M598.08 188.928a251.904 251.904 0 0 0-251.776 251.52 251.904 251.904 0 0 0 251.776 251.392 251.904 251.904 0 0 0 251.84-251.392 251.84 251.84 0 0 0-251.84-251.52z m0 610.176a357.696 357.696 0 0 1-232.192-85.44l-51.712 51.648 84.864 84.864-75.968 75.776-84.8-84.8-98.432 98.24-75.904-75.84 98.304-98.24-89.856-89.728L148.352 599.68l89.792 89.728 57.152-56.96a356.032 356.032 0 0 1-56.384-192.064c0-197.824 161.024-358.656 359.168-358.656 198.08 0 359.232 160.832 359.232 358.656 0 197.696-161.152 358.656-359.232 358.656z"></path>
  </symbol>
  <symbol id="icon-nan" viewBox="0 0 1024 1024">
    <path d="M434.56 342.592c-138.752 0-251.52 111.424-251.52 248.576 0 136.96 112.832 248.448 251.52 248.448 138.624 0 251.584-111.552 251.584-248.448-0.064-137.152-112.96-248.576-251.584-248.576z m522.688 63.04h-119.104V272.192l-104.576 103.36c44.8 60.48 71.616 134.848 71.616 215.488 0 201.92-166.208 366.08-370.624 366.08-204.352 0-370.624-164.16-370.624-366.08 0-201.856 166.272-366.208 370.56-366.208 80 0 153.728 25.344 214.336 67.904l112.64-111.36h-151.68V63.808h347.456v341.888z"></path>
  </symbol>
  <symbol id="icon-shibai" viewBox="0 0 1024 1024">
    <path d="M512 64a448 448 0 1 1-0.0512 896.0512A448 448 0 0 1 512 64z m0 583.4752a71.2704 71.2704 0 1 0 0 142.5408 71.2704 71.2704 0 0 0 0-142.5408z m24.0128-398.5408H487.936a31.2832 31.2832 0 0 0-31.232 31.232v272.0256c0 17.2544 13.9776 31.232 31.232 31.232h48.0256c17.2544 0 31.232-13.9776 31.232-31.232V280.2176a31.2832 31.2832 0 0 0-31.232-31.2832z"></path>
  </symbol>
  <symbol id="icon-icon_sina" viewBox="0 0 1024 1024">
    <path d="M709.664 515.808c-30.048-5.856-15.456-21.984-15.456-21.984s29.408-48.384-5.76-83.616c-43.648-43.552-149.6 5.568-149.6 5.568-40.448 12.576-29.728-5.696-24-36.864 0-36.64-12.576-98.72-120.32-62.048-107.744 36.832-200.192 166.016-200.192 166.016-64.32 85.76-55.776 152.064-55.776 152.064 16.032 146.4 171.584 186.592 292.576 196.128 127.296 10.016 299.104-43.904 351.2-154.528 52.096-110.88-42.56-154.72-72.672-160.736z"></path>
    <path d="M438.08 754.944c103.68-15.136 190.592-77.44 181.44-152.32-9.216-74.848-107.68-124.32-219.936-110.56-112.256 13.792-178.144 98.24-170.368 165.6 7.776 67.424 105.184 112.416 208.864 97.28z"></path>
    <path d="M416.224 727.936c65.152-10.304 112-56.416 104.64-102.944-7.36-46.56-66.176-75.936-131.328-65.6-65.184 10.304-112.032 56.416-104.64 102.976 7.36 46.528 66.144 75.904 131.328 65.6z"></path>
    <path d="M334.4 674.4c7.712 11.84 25.504 13.984 39.712 4.736 14.24-9.248 19.52-26.336 11.84-38.208-7.712-11.84-25.504-13.952-39.712-4.736-14.24 9.28-19.52 26.368-11.84 38.208zM411.52 632.864a11.936 11.936 0 1 0 20.032-13.024 11.936 11.936 0 0 0-20.032 13.024z"></path>
    <path d="M711.2 286.4l3.424-0.48 9.92-0.896c15.456-0.896 31.936 0.48 47.808 5.44 43.584 13.568 68.064 49.888 63.296 112.096l-0.96 10.592-0.896 4.224a29.216 29.216 0 0 1-28.128 21.312c-15.04 0-27.424-11.136-29.12-27.072l-0.16-4.064 0.832-5.12c1.28-9.6 1.344-19.808-0.608-29.152-5.312-25.472-23.168-37.024-64.608-28.064a29.28 29.28 0 0 1-29.312-29.312c0-16.064 12.608-29.056 28.512-29.504z"></path>
    <path d="M790.528 186.56c-44.896-10.56-91.04-1.504-104 0.992-1.024 0.096-1.984 1.056-2.88 1.216-0.416 0.096-0.736 0.576-0.736 0.576a30.528 30.528 0 0 0-22.08 29.408c0 16.64 13.504 30.272 30.304 30.272 0 0 16.32-2.176 27.424-6.56 11.008-4.416 104-3.296 150.176 74.336 25.248 56.608 11.104 94.464 9.344 100.576 0 0-5.984 14.72-5.984 29.216 0 16.704 13.44 27.2 30.176 27.2 13.952 0 25.664-1.856 29.12-25.504h0.16c49.6-165.28-60.64-242.976-141.024-261.728z"></path>
  </symbol>
  <symbol id="icon-icon_wechat" viewBox="0 0 1024 1024">
    <path d="M669.056 396.096c127.232 0 240.544 92.288 240.544 205.44 0 63.872-42.368 120.416-99.2 163.04l21.312 70.784-77.696-42.56c-28.352 7.136-56.768 14.24-84.96 14.24-134.752 0-240.896-92.128-240.896-205.504 0-113.152 106.144-205.44 240.896-205.44z m-276.416-212.48c139.264 0 261.248 84.8 285.76 198.88a247.456 247.456 0 0 0-27.296-1.664c-134.528 0-240.8 100.416-240.8 224.064 0 20.576 3.2 40.384 8.736 59.36-8.736 0.704-17.536 1.12-26.432 1.12-35.36 0-63.776-7.2-99.2-14.208L194.4 700.8l28.352-85.216c-70.88-49.472-113.312-113.344-113.312-191.104 0-134.752 127.52-240.864 283.2-240.864z m197.984 332.288a34.144 34.144 0 1 0 0 68.288 34.144 34.144 0 0 0 0-68.288z m170.656 0a34.144 34.144 0 1 0 0 68.288 34.144 34.144 0 0 0 0-68.288zM313.344 308.832a34.144 34.144 0 1 0 0 68.256 34.144 34.144 0 0 0 0-68.256z m193.536 0a34.144 34.144 0 1 0 0 68.256 34.144 34.144 0 0 0 0-68.256z"></path>
  </symbol>
  <symbol id="icon-icon_qq" viewBox="0 0 1024 1024">
    <path d="M811.872 599.328c-13.76-80-71.68-132.384-71.68-132.384 8.256-72.608-22.08-85.44-22.08-85.44-6.4-224.64-199.872-220.736-203.936-220.64-4.096-0.096-197.6-4.032-203.968 220.608 0 0-30.336 12.896-22.08 85.504 0 0-57.92 52.384-71.68 132.352 0 0-7.36 135.104 66.176 16.544 0 0 16.544 45.024 46.88 85.472 0 0-54.24 18.4-49.632 66.176 0 0-1.856 53.312 115.84 49.632 0 0 82.688-6.4 107.52-41.344h21.856c24.832 34.944 107.552 41.344 107.552 41.344 117.632 3.68 115.84-49.6 115.84-49.6 4.544-47.808-49.664-66.208-49.664-66.208a379.392 379.392 0 0 0 46.88-85.472c73.504 118.56 66.176-16.544 66.176-16.544z"></path>
  </symbol>
  <symbol id="icon-icon-Google" viewBox="0 0 1024 1024">
    <path d="M509.76 581.984V459.52h311.68l1.216 7.04c3.52 19.84 5.088 34.24 5.088 52.416 0 182.016-125.568 308.736-309.472 308.736-177.984 0-322.016-141.12-322.016-315.744 0-174.592 144-315.744 322.016-315.744 83.648 0 157.248 29.024 215.744 82.56l6.784 6.176-97.536 92.16-5.856-5.504c-29.216-27.52-69.056-45.024-119.136-45.024-102.4 0-185.792 83.104-185.792 185.376s83.392 185.376 185.792 185.376c90.56 0 149.088-50.336 165.952-109.792l1.44-5.6H509.76z"></path>
  </symbol>
  <symbol id="icon-icon_Facebook" viewBox="0 0 1024 1024">
    <path d="M402.176 329.344c0-104.384 63.648-167.2 163.136-167.2l14.912 0.128c29.856 0.48 59.424 2.368 75.2 4.32l10.976 1.568v123.072h-72.288c-39.52 0-50.688 13.44-50.688 49.888v68.16h120.096l-18.08 137.216h-102.016v308h-141.248v-308H298.656V409.28h103.52v-79.936z"></path>
  </symbol>
  <symbol id="icon-paixu2" viewBox="0 0 1024 1024">
    <path d="M407.552 154.038857A59.099429 59.099429 0 0 0 365.714286 136.045714c-5.997714 0-11.922286 2.925714-17.92 2.925715l-7.826286 3.072c-8.996571 5.997714-10.093714 8.923429-16.091429 14.921142L81.773714 398.628571l83.675429 80.530286 146.432-146.139428v545.206857h113.590857v-679.497143a65.682286 65.682286 0 0 0-17.92-44.690286z" fill="#333333"></path>
    <path d="M858.916571 541.842286L709.485714 690.980571V146.944H595.894857v684.251429c0 32.768 26.843429 56.685714 56.758857 56.685714a59.099429 59.099429 0 0 0 41.837715-17.92l245.101714-244.589714-80.676572-83.529143z" fill="#333333" opacity=".5"></path>
  </symbol>
  <symbol id="icon-paixu1" viewBox="0 0 1024 1024">
    <path d="M407.552 154.038857A59.099429 59.099429 0 0 0 365.714286 136.045714c-5.997714 0-11.922286 2.925714-17.92 2.925715l-7.826286 3.072c-8.996571 5.997714-10.093714 8.923429-16.091429 14.921142L81.773714 398.628571l83.675429 80.530286 146.432-146.139428v545.206857h113.590857v-679.497143a65.682286 65.682286 0 0 0-17.92-44.690286z" fill="#333333" opacity=".5"></path>
    <path d="M858.916571 541.842286L709.485714 690.980571V146.944H595.894857v684.251429c0 32.768 26.843429 56.685714 56.758857 56.685714a59.099429 59.099429 0 0 0 41.837715-17.92l245.101714-244.589714-80.676572-83.529143z" fill="#333333"></path>
  </symbol>
  <symbol id="icon-caozuo-shoucang-line" viewBox="0 0 1024 1024">
    <path d="M701.76 128c-78.912 0-141.504 36.8-189.44 97.28C463.68 164.736 401.728 128 322.88 128 180.16 128 64 245.248 64 389.76c0 86.272 41.728 146.688 75.008 195.008 96.384 141.44 329.28 293.312 339.456 300.672a55.36 55.36 0 0 0 33.28 10.56 58.88 58.88 0 0 0 33.28-10.56c10.112-7.36 243.008-159.744 339.968-300.672 33.28-48.32 75.008-108.8 75.008-195.008C960 245.76 843.84 128 701.76 128z"></path>
  </symbol>
  <symbol id="icon-xiazai" viewBox="0 0 1024 1024">
    <path d="M135.0144 615.7312v181.0432c0 22.9888 18.688 41.6256 41.8304 41.6256h670.2592a41.728 41.728 0 0 0 41.8816-41.6256v-181.0944H972.8v181.0944A125.2864 125.2864 0 0 1 847.104 921.6H176.896A125.2352 125.2352 0 0 1 51.2 796.7744v-181.0944h83.8144zM387.072 102.4h249.6512a41.472 41.472 0 0 1 41.6256 41.3696V383.488h124.8256a41.216 41.216 0 1 1 27.648 72.2944l-291.328 256.8192-27.5968 22.528-27.5968-22.528-291.1744-256.8192a41.216 41.216 0 0 1-11.264-45.6192 41.5744 41.5744 0 0 1 38.8608-26.6752H345.6V143.7696A41.472 41.472 0 0 1 387.072 102.4z m41.6768 322.4576a41.472 41.472 0 0 1-41.6256 41.3696H330.3936L512 626.3296l181.5552-160.1024h-56.7808a41.472 41.472 0 0 1-41.6256-41.3696V185.1392h-166.4l0.0512 239.7184z"></path>
  </symbol>
  <symbol id="icon-bianzu3" viewBox="0 0 1024 1024">
    <path d="M512 0c282.763636 0 512 229.236364 512 512s-229.236364 512-512 512S0 794.763636 0 512 229.236364 0 512 0z m0 93.090909a418.909091 418.909091 0 1 0 0 837.818182 418.909091 418.909091 0 0 0 0-837.818182z"></path>
    <path d="M696.599273 373.713455A58.181818 58.181818 0 0 1 786.618182 447.208727l-4.049455 4.887273-255.534545 280.343273a58.181818 58.181818 0 0 1-81.873455 4.096l-4.514909-4.514909-162.210909-181.201455A58.181818 58.181818 0 0 1 360.727273 468.712727l4.468363 4.468364 119.249455 133.213091 212.200727-232.680727z"></path>
  </symbol>
  <symbol id="icon-douban" viewBox="0 0 1024 1024">
    <path d="M0 0m102.4 0l819.2 0q102.4 0 102.4 102.4l0 819.2q0 102.4-102.4 102.4l-819.2 0q-102.4 0-102.4-102.4l0-819.2q0-102.4 102.4-102.4Z" fill="#333333"></path>
    <path d="M651.9552 389.6064c-46.1568-0.384-92.3392-0.0768-138.496-0.0768-47.1552 0-94.3104-0.3072-141.4656 0.0768-46.1568 0.384-67.8912 22.4768-68.608 69.12-0.3328 20.608-0.512 41.2672 0.0768 61.8752 1.152 40.9856 23.68 64.6656 64 64.9216 96.256 0.64 192.512 0.5888 288.768 0 39.168-0.2304 62.2336-22.9376 64.2048-61.8496 1.152-22.528 0.9472-45.2096 0.256-67.7632-1.408-44.288-23.8848-65.92-68.736-66.304z m19.3024 116.4544c-1.024 22.0928-8.3968 30.1056-30.5664 30.72-30.464 0.8704-60.928 0.256-91.392 0.256l-38.3232 0.0256c-40.2688 0-80.5632 0.256-120.832-0.1024-31.1296-0.256-37.4016-6.9632-37.8624-38.5536-0.128-10.8288-0.5632-21.6576 0.2304-32.4352 1.3312-18.5856 8.8576-27.2384 27.6224-27.3664 87.424-0.5888 174.8736-0.5888 262.3232-0.0512 20.352 0.128 27.6992 8.6272 28.7744 29.184 0.6656 12.7488 0.5888 25.5744 0 38.3232z m50.432 190.848c-23.6032-0.2816-47.2064 0.1024-70.784-0.2048-6.1184-0.1024-12.2112-1.792-20.0704-3.0208 4.9664-9.5488 8.448-16.512 12.16-23.3216 3.7376-6.912 7.7824-13.6704 11.648-20.48 5.888-10.2912 6.7584-20.48-1.2032-30.1568-11.8016-14.3104-29.4656-12.288-41.2672 5.9904-11.7248 18.1248-22.2976 37.0432-32.512 56.064-5.76 10.6752-12.9536 15.6672-25.6 15.2832a1721.6 1721.6 0 0 0-85.504-0.0768c-11.2384 0.256-18.176-3.8656-23.4496-13.696a1139.2 1139.2 0 0 0-30.9504-53.5808c-11.3152-18.5088-22.1696-23.168-35.5072-16.4352-15.0016 7.552-17.7152 20.8896-7.5776 40.1664 6.784 12.8256 14.208 25.3184 24.4224 43.392h-61.952c-13.7728 0.0256-27.5712-0.5376-41.2928 0.3328-16.1792 1.024-25.1392 9.6-25.8048 22.784-0.7168 14.3616 8.832 23.7568 26.3936 25.344 6.8352 0.6144 13.7728 0.256 20.6336 0.256h395.0848c3.9168 0 7.8592 0.0256 11.776-0.0512 25.1392-0.4352 36.736-7.8336 37.248-23.7056 0.512-16.3328-11.0848-24.576-35.9168-24.8832zM328.96 327.2448c60.928 0.256 121.856 0.1024 182.784 0.1024h117.9136c25.5488-0.0256 51.1232 0.5376 76.6208-0.4608 17.9712-0.6912 26.9312-10.4192 26.112-25.088-0.7168-13.3632-9.5744-21.504-25.6-23.1936-3.8656-0.4096-7.8336-0.1792-11.776-0.1792-121.856 0-243.712-0.0768-365.5424 0.0512-26.9312 0-38.6816 8.32-37.9392 25.7024 0.6912 16.1024 11.264 22.9888 37.4272 23.0912z" fill="#FFFFFF"></path>
  </symbol>
  <symbol id="icon-QQ" viewBox="0 0 1024 1024">
    <path d="M0 0m102.4 0l819.2 0q102.4 0 102.4 102.4l0 819.2q0 102.4-102.4 102.4l-819.2 0q-102.4 0-102.4-102.4l0-819.2q0-102.4 102.4-102.4Z" fill="#333333"></path>
    <path d="M274.6624 561.024c-20.1216 47.36-23.3984 92.5952-7.2448 101.0176 11.1616 5.8368 28.6208-7.424 44.9792-31.744 6.4768 26.496 22.4768 50.4832 45.3632 69.7344-23.9872 8.8576-39.68 23.3216-39.68 39.7312 0 26.9824 42.4192 48.7936 94.7968 48.7936 47.232 0 86.3488-17.7408 93.568-41.0368h11.264c7.2448 23.296 46.4128 41.0368 93.5936 41.0368 52.3776 0 94.7968-21.8368 94.7968-48.7936 0-16.384-15.6672-30.8736-39.68-39.7312 22.8352-19.2768 38.912-43.2384 45.3632-69.7344 16.384 24.32 33.792 37.5808 44.9536 31.744 16.1536-8.448 12.9792-53.6576-7.2192-101.0176-15.8208-37.2224-37.2736-64.64-53.6832-70.7072a72.1408 72.1408 0 0 0-10.496-45.6704c0.1536-0.8448 0.1536-1.7152 0.1536-2.56 0-6.6048-1.5872-12.8-4.2752-18.176-4.1472-96.768-67.1744-173.6448-169.1136-173.6448-102.0416 0-165.0688 76.8512-169.1904 173.6448a40.4736 40.4736 0 0 0-4.2752 18.176c0 0.8448 0.0768 1.7152 0.1024 2.56-6.784 10.8288-10.752 24.0896-10.752 38.5024 0 2.4064 0.0768 4.7872 0.256 7.168-16.2816 6.0672-37.7856 33.5104-53.5808 70.7072z" fill="#FFFFFF"></path>
  </symbol>
  <symbol id="icon-QQkongjian" viewBox="0 0 1024 1024">
    <path d="M0 0m102.4 0l819.2 0q102.4 0 102.4 102.4l0 819.2q0 102.4-102.4 102.4l-819.2 0q-102.4 0-102.4-102.4l0-819.2q0-102.4 102.4-102.4Z" fill="#333333"></path>
    <path d="M801.536 421.5552c-5.376-15.36-200.96-29.1328-200.96-29.1328s-72.32-181.6064-89.8048-181.6064c-17.4848 0-89.856 181.6064-89.856 181.6064s-194.7136 13.696-200.96 29.1328c-6.1952 15.4624 145.408 141.3888 145.408 141.3888s-44.7488 191.232-34.304 199.6288c10.4448 8.3712 179.6864-94.2592 179.6864-94.2592s167.936 106.1888 179.712 94.2592c8.6528-8.7808-14.592-116.224-27.136-170.5984-0.4352-1.7408-65.7152 7.2704-138.0864 7.7312-64.256 0.4352-135.936-3.9168-135.936-3.9168l167.3216-124.2624s-51.9936-9.472-91.4944-13.0304c-56.448-5.0688-105.9072-4.9664-99.7632-6.528 9.8048-2.4576 78.3872-8.8832 145.408-6.528 61.184 2.176 121.6768 13.0304 121.6768 13.0304l-167.3216 119.04s36.5568 5.632 66.8928 6.784c57.7792 2.2016 128.3072 0.6144 128.1536 0-2.1504-9.1136-4.0448-21.3504-4.0448-21.3504s150.784-126.0032 145.408-141.3888z" fill="#FFFFFF"></path>
  </symbol>
  <symbol id="icon-linked" viewBox="0 0 1024 1024">
    <path d="M0 0m102.4 0l819.2 0q102.4 0 102.4 102.4l0 819.2q0 102.4-102.4 102.4l-819.2 0q-102.4 0-102.4-102.4l0-819.2q0-102.4 102.4-102.4Z" fill="#333333"></path>
    <path d="M380.3392 426.8288V738.304h-103.7056V426.8288h103.68z m6.5792-96.1792a49.6896 49.6896 0 0 1-15.872 38.3488c-10.8032 10.24-25.0112 15.3856-42.5984 15.3856h-0.6656c-17.1776 0-31.0016-5.12-41.472-15.3856-10.4448-10.2912-15.6928-23.04-15.7184-38.3488 0-15.5136 5.376-28.3392 16.1792-38.5024 10.752-10.1632 24.8576-15.232 42.2656-15.232s31.3344 5.0688 41.8048 15.232c10.4448 10.1632 15.7952 22.9888 16 38.5024h0.0768z m366.464 229.12v178.4832H649.984V571.648c0-21.9904-4.2496-39.2192-12.7232-51.6864-8.448-12.4672-21.7088-18.688-39.7312-18.688-13.2096 0-24.2432 3.584-33.152 10.8544a66.9952 66.9952 0 0 0-19.968 26.88c-2.304 6.272-3.456 14.7456-3.456 25.4464v173.7984h-103.3728c0.4352-83.6096 0.64-151.3984 0.64-203.3664 0-51.968-0.1024-82.9952-0.3328-93.056l-0.3072-15.0784h103.3728v45.2608h-0.64c4.1984-6.7072 8.4736-12.5696 12.8768-17.6128 4.4032-5.0432 10.3168-10.496 17.7408-16.3328 7.424-5.8624 16.5632-10.4192 27.3664-13.696a123.1104 123.1104 0 0 1 35.9936-4.864c35.84 0 64.64 11.904 86.4256 35.6864 21.76 23.808 32.6656 58.624 32.6912 104.5248l-0.0256 0.0256z" fill="#FFFFFF"></path>
  </symbol>
  <symbol id="icon-google" viewBox="0 0 1024 1024">
    <path d="M0 0m102.4 0l819.2 0q102.4 0 102.4 102.4l0 819.2q0 102.4-102.4 102.4l-819.2 0q-102.4 0-102.4-102.4l0-819.2q0-102.4 102.4-102.4Z" fill="#333333"></path>
    <path d="M516.864 477.2352V560.64h137.9328c-5.5808 35.7632-41.6768 104.8576-137.9328 104.8576-82.9952 0-150.784-68.6848-150.784-153.4976 0-84.8128 67.8144-153.4976 150.784-153.4976 47.232 0 78.848 20.0448 96.9728 37.4784l65.9456-63.616C637.44 292.864 582.5024 268.8 516.864 268.8a242.9952 242.9952 0 0 0-243.2 243.2c0 134.4768 108.7232 243.2 243.2 243.2 140.3648 0 233.472-98.688 233.472-237.6448 0-15.9744-1.7152-28.16-3.84-40.32h-229.632z" fill="#FFFFFF"></path>
  </symbol>
  <symbol id="icon-facebook" viewBox="0 0 1024 1024">
    <path d="M0 0m102.4 0l819.2 0q102.4 0 102.4 102.4l0 819.2q0 102.4-102.4 102.4l-819.2 0q-102.4 0-102.4-102.4l0-819.2q0-102.4 102.4-102.4Z" fill="#333333"></path>
    <path d="M639.7184 285.0304v75.4176h-44.8512c-16.384 0-27.4432 3.4304-33.152 10.2912-5.7088 6.8608-8.576 17.152-8.576 30.8736v53.9904h83.712l-11.136 84.5568h-72.576v216.8576h-87.424v-216.832h-72.8576v-84.5824h72.8576v-62.2848c0-35.4304 9.9072-62.8992 29.696-82.432 19.8144-19.5328 46.208-29.2864 79.1552-29.2864 28.0064 0 49.7152 1.152 65.152 3.4304z" fill="#FFFFFF"></path>
  </symbol>
  <symbol id="icon-Twitter" viewBox="0 0 1024 1024">
    <path d="M0 0m102.4 0l819.2 0q102.4 0 102.4 102.4l0 819.2q0 102.4-102.4 102.4l-819.2 0q-102.4 0-102.4-102.4l0-819.2q0-102.4 102.4-102.4Z" fill="#333333"></path>
    <path d="M766.5152 378.9824c-19.1488 8.448-39.424 14.0032-60.2112 16.512a105.6768 105.6768 0 0 0 46.1056-58.0352 216.576 216.576 0 0 1-66.6368 25.2416 104.8576 104.8576 0 0 0-178.688 95.5136 296.96 296.96 0 0 1-216.1408-109.2352 102.7584 102.7584 0 0 0-14.1824 52.736c0 36.4544 18.5344 68.48 46.6176 87.296a104.5248 104.5248 0 0 1-47.4624-13.1328v1.3056a104.9088 104.9088 0 0 0 84.096 102.8864 106.496 106.496 0 0 1-47.1552 1.792 105.216 105.216 0 0 0 98.1248 72.832 210.304 210.304 0 0 1-130.048 44.8768c-8.32 0-16.5888-0.512-24.9344-1.4336a298.2656 298.2656 0 0 0 161.0496 47.0784c192.9728 0 298.368-159.744 298.368-298.0864 0-4.4544 0-8.96-0.3328-13.4144a211.7632 211.7632 0 0 0 52.4288-54.3232l-0.9984-0.4096z" fill="#FFFFFF"></path>
  </symbol>
  <symbol id="icon-shouqi" viewBox="0 0 1024 1024">
    <path d="M984.615385 433.230769v157.538462H39.384615v-157.538462z"></path>
  </symbol>
  <symbol id="icon-icon-backup" viewBox="0 0 1024 1024">
    <path d="M498.688 131.128889a316.074667 316.074667 0 0 0-297.813333 266.467555l-1.194667 8.704 4.380444-0.625777C96.540444 419.783111 14.791111 513.137778 14.791111 622.933333c0 120.604444 99.555556 219.022222 220.728889 219.022223H341.333333v-79.644445H235.52a139.264 139.264 0 0 1-139.377778-139.377778A139.264 139.264 0 0 1 235.52 483.555556h37.546667l5.688889-5.688889v-34.133334c0-128.284444 104.96-233.244444 233.244444-233.244444s233.244444 104.96 233.244444 233.244444v34.133334l5.688889 5.688889h47.786667a140.344889 140.344889 0 0 1 139.377778 139.377777 139.264 139.264 0 0 1-139.377778 139.377778H682.666667l-5.688889 5.688889v68.266667l5.688889 5.688889h116.053333c119.182222 0 217.315556-98.076444 219.022222-218.965334l-0.284444-11.207111c-5.347556-104.334222-84.48-189.838222-188.245334-204.8l-6.656-0.853333 0.568889 4.551111A312.832 312.832 0 0 0 512 130.844444l-13.312 0.284445z"></path>
    <path d="M544.768 466.488889h-68.266667l-5.688889 5.688889v217.998222l5.688889 5.688889h68.266667l5.688889-5.688889V472.177778z"></path>
    <path d="M624.355556 842.069333c-82.944 0-148.366222-60.359111-153.315556-143.473777l-0.284444-10.126223h79.644444c0 41.016889 27.363556 70.144 66.104889 73.614223l7.850667 0.341333h62.577777v79.644444h-62.577777zM518.087111 387.982222l-4.096-4.551111-3.982222 4.551111-150.186667 150.186667 55.751111 55.808 98.417778-96.768 96.711111 96.711111 55.864889-55.751111z"></path>
  </symbol>
  <symbol id="icon-icon-jiedian" viewBox="0 0 1024 1024">
    <path d="M376.512 177.28L307.904 253.12l287.68 258.816-287.36 258.624 68.224 76.16 354.24-318.464 18.432-16.256-42.752-37.888z"></path>
  </symbol>
  <symbol id="icon-dingwei" viewBox="0 0 1024 1024">
    <path d="M512 270.336l12.003556 0.398222a166.115556 166.115556 0 1 1-22.186667 0L512 270.222222z m0.056889 85.333333a80.213333 80.213333 0 1 0-0.227556 160.426667 80.213333 80.213333 0 0 0 0.227556-160.426667z"></path>
    <path d="M512.113778 42.666667c102.058667 0 199.736889 41.472 270.734222 114.858666a397.653333 397.653333 0 0 1 10.069333 541.866667l-10.126222 10.865778-270.677333 277.219555-270.791111-277.219555a397.596444 397.596444 0 0 1 0-552.732445A376.547556 376.547556 0 0 1 512.170667 42.666667z m0 88.576a294.058667 294.058667 0 0 0-211.057778 89.315555 310.613333 310.613333 0 0 0-9.728 421.831111l9.671111 10.524445 211.057778 216.974222 211.057778-216.974222a310.613333 310.613333 0 0 0 9.728-421.888l-9.671111-10.524445a294.115556 294.115556 0 0 0-211.057778-89.315555z"></path>
  </symbol>
  <symbol id="icon-tianjia1" viewBox="0 0 1024 1024">
    <path d="M546.117818 477.882182h136.564364v68.235636h-136.564364v136.564364h-68.235636v-136.564364H341.317818v-68.235636h136.564364V341.317818h68.235636v136.564364zM512 819.2a307.2 307.2 0 1 0 0-614.4 307.2 307.2 0 0 0 0 614.4z m0 68.282182a375.482182 375.482182 0 1 1 0-750.964364 375.482182 375.482182 0 0 1 0 750.964364z"></path>
  </symbol>
  <symbol id="icon-paixu" viewBox="0 0 1024 1024">
    <path d="M950.857143 457.142857v109.714286H73.142857v-109.714286zM950.857143 164.571429v109.714285H73.142857v-109.714285zM950.857143 749.714286v109.714285H73.142857v-109.714285z"></path>
  </symbol>
  <symbol id="icon-tianqi-guanli" viewBox="0 0 1024 1024">
    <path d="M452.2496 277.3504h529.1008v85.2992H452.2496V277.3504z m-409.6 0h194.1504v85.2992H42.6496V277.3504z m748.8 384h189.9008v85.2992h-189.9008v-85.2992z m-748.8 0h531.2v85.2992H42.6496v-85.2992z"></path>
    <path d="M341.3504 490.6496A171.1616 171.1616 0 0 1 170.6496 320c0-93.8496 76.8-170.6496 170.7008-170.6496C435.2 149.3504 512 226.1504 512 320c0 93.8496-76.8 170.6496-170.6496 170.6496z m0-256C294.4 234.6496 256 273.0496 256 320s38.4 85.3504 85.3504 85.3504c46.8992 0 85.2992-38.4 85.2992-85.3504s-38.4-85.3504-85.2992-85.3504z m341.2992 640A171.1616 171.1616 0 0 1 512 704c0-93.8496 76.8-170.6496 170.6496-170.6496 93.9008 0 170.7008 76.8 170.7008 170.6496 0 93.8496-76.8 170.6496-170.7008 170.6496z m0-256c-46.8992 0-85.2992 38.4-85.2992 85.3504s38.4 85.3504 85.2992 85.3504c46.9504 0 85.3504-38.4 85.3504-85.3504s-38.4-85.3504-85.3504-85.3504z"></path>
  </symbol>
  <symbol id="icon-right" viewBox="0 0 1024 1024">
    <path d="M765.696 486.826667L314.88 134.741333a7.936 7.936 0 0 0-12.8 6.229334v77.312a16.213333 16.213333 0 0 0 5.973333 12.629333L668.16 512 308.053333 793.088a15.872 15.872 0 0 0-5.973333 12.629333v77.312c0 6.656 7.68 10.410667 12.8 6.229334l450.816-352.085334a32 32 0 0 0 0-50.346666z"></path>
  </symbol>
  <symbol id="icon-left" viewBox="0 0 1024 1024">
    <path d="M723.968 218.282667v-77.312a8.021333 8.021333 0 0 0-12.8-6.229334L260.266667 486.826667a31.829333 31.829333 0 0 0 0 50.346666l450.816 352a7.936 7.936 0 0 0 12.885333-6.314666v-77.226667a16.213333 16.213333 0 0 0-6.058667-12.629333L357.888 512l360.021333-281.088a16.213333 16.213333 0 0 0 6.058667-12.629333z"></path>
  </symbol>
  <symbol id="icon-juxing" viewBox="0 0 1024 1024">
    <path d="M1024 0v1024H0V0h1024z m-128 128H128v768h768V128z"></path>
  </symbol>
  <symbol id="icon-daiban-yiwancheng" viewBox="0 0 1024 1024">
    <path d="M1024 0v1024H0V0h1024z m-128 128H128v768h768V128z"></path>
    <path d="M712.64 280.192L442.24 603.328 305.92 474.944a67.84 67.84 0 0 0-94.976 2.048 66.432 66.432 0 0 0 2.048 94.848l188.672 177.792c12.544 11.776 29.184 18.368 46.464 18.368l3.008-0.064c19.584-1.152 36.928-9.856 48.896-24.128l316.416-378.24a66.496 66.496 0 0 0-9.216-94.528 67.84 67.84 0 0 0-94.592 9.152z"></path>
  </symbol>
  <symbol id="icon-shijiantixing" viewBox="0 0 1024 1024">
    <path d="M225.28 933.546667l-45.226667-45.283556 54.840889-59.107555a405.333333 405.333333 0 1 1 554.211556 0l57.457778 59.164444-45.226667 45.226667-62.577778-64.170667A403.512889 403.512889 0 0 1 512 938.666667a403.512889 403.512889 0 0 1-226.759111-69.347556L225.28 933.546667zM512 192a341.333333 341.333333 0 1 0 0 682.666667 341.333333 341.333333 0 0 0 0-682.666667z m32.028444 181.532444v127.772445h83.626667v64H512a31.971556 31.971556 0 0 1-32.028444-31.971556V373.532444h64.056888z m285.411556-282.737777l135.736889 135.793777-45.283556 45.283556-135.736889-135.736889 45.283556-45.283555zM242.062222 133.688889L104.106667 271.872l-47.502223-42.837333 137.955556-138.24 47.502222 42.894222z"></path>
  </symbol>
  <symbol id="icon-tianjia-qianwang" viewBox="0 0 1024 1024">
    <path d="M512 0c282.7776 0 512 229.2224 512 512s-229.2224 512-512 512S0 794.7776 0 512 229.2224 0 512 0z m0 76.8a435.2 435.2 0 1 0 0 870.4 435.2 435.2 0 0 0 0-870.4z"></path>
    <path d="M716.8 473.6v76.8H256v-76.8z"></path>
    <path d="M772.6592 513.536l-231.936 231.936L486.4 691.2l177.664-177.664L486.4 335.872l54.272-54.272z"></path>
  </symbol>
  <symbol id="icon-tianjia-jiarudaochangyong" viewBox="0 0 1024 1024">
    <path d="M512 0c282.7776 0 512 229.2224 512 512s-229.2224 512-512 512S0 794.7776 0 512 229.2224 0 512 0z m51.2 256H460.8v204.7488L256 460.8v102.4l204.8-0.0512V768h102.4v-204.8512L768 563.2V460.8l-204.8-0.0512V256z"></path>
  </symbol>
  <symbol id="icon-icon-pic" viewBox="0 0 1024 1024">
    <path d="M118.153846 157.538462v708.923076h787.692308V157.538462H118.153846z m708.923077 630.153846l-433.230769-354.461539-196.923077 196.923077V236.307692h630.153846v551.384616z m-236.307692-393.846154a78.769231 78.769231 0 1 0 157.538461 0 78.769231 78.769231 0 0 0-157.538461 0z"></path>
  </symbol>
  <symbol id="icon-icon-link" viewBox="0 0 1024 1024">
    <path d="M646.025846 215.788308l-178.688 178.688-51.081846-51.042462 229.769846-229.769846 255.291077 255.291077L671.507692 598.646154l-51.042461-51.042462 178.688-178.688-153.166769-153.206154zM377.974154 790.173538l178.688-178.727384 51.081846 51.081846-229.769846 229.769846-255.291077-255.291077L352.492308 407.236923l51.042461 51.042462-178.688 178.727384 153.166769 153.166769z m268.051692-472.260923L697.107692 368.955077 377.974154 688.049231 326.892308 637.006769l319.094154-319.094154z"></path>
  </symbol>
  <symbol id="icon-icon-zitixiao" viewBox="0 0 1024 1024">
    <path d="M984.615385 405.858462h-315.076923V336.029538h315.076923v69.828924z m-375.059693 421.100307h-90.387692L454.498462 654.572308H190.700308L129.732923 827.076923H39.384615L280.733538 196.923077h87.473231l241.348923 630.035692z m-180.381538-243.672615L333.430154 321.378462c-2.953846-8.428308-6.262154-23.04-9.767385-43.953231h-2.087384c-2.993231 18.944-6.419692 33.634462-10.24 43.953231l-94.916923 261.947076h212.676923z"></path>
  </symbol>
  <symbol id="icon-icon-zitida" viewBox="0 0 1024 1024">
    <path d="M1017.304615 405.858462h-138.712615v138.436923h-69.671385v-138.436923H669.538462V336.029538h139.421538V196.923077h69.632v139.106461h138.712615v69.828924zM609.555692 826.958769h-90.387692L454.498462 654.572308H190.700308L129.732923 827.076923H39.384615L280.733538 196.923077h87.473231l241.348923 630.035692z m-180.381538-243.672615L333.430154 321.378462c-2.953846-8.428308-6.262154-23.04-9.767385-43.953231h-2.087384c-2.993231 18.944-6.419692 33.634462-10.24 43.953231l-94.916923 261.947076h212.676923z"></path>
  </symbol>
  <symbol id="icon-icon-jiacu" viewBox="0 0 1024 1024">
    <path d="M723.219692 556.937846c-17.880615-27.096615-44.307692-45.095385-79.163077-53.996308v-1.732923a207.950769 207.950769 0 0 0 46.592-28.987077c12.603077-10.082462 22.291692-20.755692 29.065847-31.980307a143.36 143.36 0 0 0 18.904615-74.318769c0-50.727385-15.990154-91.490462-47.970462-122.328616-31.665231-30.523077-79.044923-46.08-142.099692-46.670769H275.692308v630.153846h294.439384c50.412308 0 92.553846-16.541538 126.267077-49.703385 34.028308-31.704615 51.357538-74.791385 51.908923-129.220923 0-32.846769-8.349538-63.251692-25.088-91.214769z m-343.197538-274.904615h157.538461c35.446154 0.590769 61.597538 9.058462 78.296616 25.521231 17.014154 17.604923 25.521231 39.069538 25.521231 64.393846 0 25.363692-8.507077 46.395077-25.521231 63.133538-16.699077 18.116923-42.811077 27.214769-78.296616 27.214769h-157.538461V282.072615z m166.793846 454.734769H380.022154V547.446154h166.754461c36.076308 0.590769 62.503385 9.964308 79.163077 28.120615 16.738462 18.432 25.127385 40.605538 25.127385 66.56a94.523077 94.523077 0 0 1-25.048615 65.654154c-16.738462 18.747077-43.126154 28.396308-79.202462 28.987077z"></path>
  </symbol>
  <symbol id="icon-icon-xinjian" viewBox="0 0 1024 1024">
    <path d="M468.676923 157.538462h86.646154v311.138461H866.461538v86.646154h-311.177846L555.323077 866.461538h-86.646154l-0.039385-311.138461H157.538462v-86.646154h311.138461z"></path>
  </symbol>
  <symbol id="icon-xiugai" viewBox="0 0 1024 1024">
    <path d="M823.881143 984.941714H200.118857a161.206857 161.206857 0 0 1-161.060571-161.060571V200.118857c0-88.795429 72.265143-161.060571 161.060571-161.060571H570.514286v114.102857H200.118857a47.177143 47.177143 0 0 0-47.104 47.030857v623.689143c0 25.965714 21.211429 47.104 47.104 47.104h623.616c25.965714 0 47.104-21.211429 47.104-47.104V476.16h114.102857v347.574857c0 88.941714-72.411429 161.206857-161.060571 161.206857zM375.222857 568.246857l484.790857-484.790857 80.530286 80.530286L455.753143 648.777143 375.222857 568.32z"></path>
  </symbol>
  <symbol id="icon-you11" viewBox="0 0 1024 1024">
    <path d="M354.304 125.248L271.68 216.512 600 512l-328.32 295.488 82.56 91.264 379.008-341.12c5.376-4.864 14.848-13.824 28.608-27.264L780.864 512l-44.544-42.88-382.08-343.872z"></path>
  </symbol>
  <symbol id="icon-you1" viewBox="0 0 1024 1024">
    <path d="M898.752 354.304l-91.264-82.624L512 600l-295.488-328.32-91.264 82.56 341.12 379.008c4.864 5.376 13.824 14.848 27.264 28.608l18.368 19.008 42.88-44.544 343.872-382.08z"></path>
  </symbol>
  <symbol id="icon-shezhi" viewBox="0 0 1024 1024">
    <path d="M660.809143 912.310857H281.490286c-19.419429-33.133714-33.28-56.868571-41.581715-71.204571L91.062857 583.387429c-8.411429-14.628571-22.820571-38.326857-43.154286-71.094858 20.333714-32.841143 34.742857-56.576 43.154286-71.204571L239.908571 183.296c8.265143-14.336 22.125714-38.034286 41.581715-71.204571h461.202285c19.382857 33.133714 33.206857 56.868571 41.508572 71.204571l148.809143 257.828571c8.411429 14.628571 21.942857 38.326857 40.448 71.131429-18.541714 32.804571-32.036571 56.502857-40.448 71.131429l-148.918857 257.828571c-8.265143 14.336-22.052571 38.034286-41.398858 71.094857h-81.92zM363.154286 192.109714h-35.84c-8.521143 14.518857-14.555429 24.941714-18.139429 31.195429l-148.918857 257.828571A1196.617143 1196.617143 0 0 0 143.36 512c7.606857 14.518857 13.238857 25.014857 16.932571 31.414857l148.809143 257.792 18.212572 31.195429h369.115428c8.630857-14.555429 14.774857-24.941714 18.358857-31.195429l148.845715-257.828571c3.657143-6.363429 9.508571-16.822857 17.554285-31.378286l-17.554285-30.902857-148.845715-257.828572c-3.584-6.217143-9.728-16.603429-18.358857-31.158857H363.190857zM512 655.908571a143.725714 143.725714 0 0 1-143.616-143.616A143.725714 143.725714 0 0 1 512 368.713143a143.652571 143.652571 0 0 1 143.616 143.469714c0 79.213714-64.402286 143.725714-143.616 143.725714z m-63.634286-143.725714a63.634286 63.634286 0 0 0 127.268572 0 63.634286 63.634286 0 0 0-127.268572 0z"></path>
  </symbol>
  <symbol id="icon-guanbi1" viewBox="0 0 1024 1024">
    <path d="M1024 114.980571L911.36 2.340571 516.242286 397.677714 118.491429 0 5.851429 112.64l397.677714 397.604571-396.434286 396.434286 112.64 112.566857 396.434286-396.434285 395.264 395.264L1024 905.435429 628.736 510.244571z"></path>
  </symbol>
  <symbol id="icon-sousuo" viewBox="0 0 1024 1024">
    <path d="M970.105263 853.854316l-155.486316-160.229053C916.210526 532.587789 897.562947 316.469895 758.245053 175.858526a409.977263 409.977263 0 0 0-583.518316 0c-161.145263 162.546526-161.145263 426.199579 0 588.746106a409.869474 409.869474 0 0 0 526.928842 47.535157L854.878316 970.105263 970.105263 853.854316zM253.466947 685.217684a305.906526 305.906526 0 0 1 0-429.918316 299.331368 299.331368 0 0 1 425.984 0 305.906526 305.906526 0 0 1 0 429.918316 299.331368 299.331368 0 0 1-425.984 0z"></path>
  </symbol>
  <symbol id="icon-guanbi" viewBox="0 0 1536 1024">
    <path d="M1024 0a512 512 0 1 1 0 1024H512A512 512 0 1 1 512 0h512z m0 128H512a384 384 0 0 0-14.4 767.744L512 896h512a384 384 0 0 0 14.4-767.744L1024 128z"></path>
    <path d="M512 512m-320 0a320 320 0 1 0 640 0 320 320 0 1 0-640 0Z"></path>
  </symbol>
  <symbol id="icon-kaiqi" viewBox="0 0 1536 1024">
    <path d="M1024 0a512 512 0 1 1 0 1024H512A512 512 0 1 1 512 0h512z m0 128H512a384 384 0 0 0-14.4 767.744L512 896h512a384 384 0 0 0 14.4-767.744L1024 128z"></path>
    <path d="M1024 512m-320 0a320 320 0 1 0 640 0 320 320 0 1 0-640 0Z"></path>
  </symbol>
  <symbol id="icon-tianjia" viewBox="0 0 1024 1024">
    <path d="M938.666667 85.333333H85.333333v853.333334h853.333334V85.333333z m-85.333334 85.333334v682.666666H170.666667V170.666667h682.666666z"></path>
    <path d="M725.333333 469.333333v85.333334H298.666667v-85.333334z"></path>
    <path d="M554.666667 725.333333h-85.333334V298.666667h85.333334z"></path>
  </symbol>
  <symbol id="icon-shezhi2x" viewBox="0 0 1024 1024">
    <path d="M512 298.666667a213.333333 213.333333 0 1 0 0 426.666666 213.333333 213.333333 0 0 0 0-426.666666z m0 85.333333a128 128 0 1 1 0 256 128 128 0 0 1 0-256z"></path>
    <path d="M750.421333 85.333333H273.578667L36.522667 512l237.056 426.666667h476.842666l237.056-426.666667-237.056-426.666667z m-50.218666 85.333334l189.610666 341.333333-189.610666 341.333333H323.754667l-189.610667-341.333333 189.610667-341.333333h376.448z"></path>
  </symbol>
  <symbol id="icon-wode2x" viewBox="0 0 1024 1024">
    <path d="M512 469.333333c-135.04 0-269.653333 34.730667-403.541333 103.722667l-23.125334 11.946667V938.666667h853.333334v-353.706667l-23.125334-11.904C781.696 504.064 647.04 469.333333 512 469.333333z m20.181333 85.632c100.821333 2.901333 201.941333 27.52 303.573334 74.112l17.578666 8.32V853.333333H170.666667v-215.978666l17.578666-8.277334C296.618667 579.413333 404.48 554.666667 512 554.666667l20.181333 0.298666z"></path>
    <path d="M512 42.666667a256 256 0 1 0 0 512 256 256 0 0 0 0-512z m0 85.333333a170.666667 170.666667 0 1 1 0 341.333333 170.666667 170.666667 0 0 1 0-341.333333z"></path>
  </symbol>
</svg>