<?xml version="1.0" encoding="UTF-8"?>
<svg width="18px" height="18px" viewBox="0 0 18 18" version="1.1" xmlns="http://www.w3.org/2000/svg" xmlns:xlink="http://www.w3.org/1999/xlink">
    <title>icon-backup@2x</title>
    <g id="页面-1" stroke="none" stroke-width="1" fill="none" fill-rule="evenodd">
        <g id="历史备份节点" transform="translate(-727.000000, -369.000000)" fill="#333333" fill-rule="nonzero">
            <g id="编组" transform="translate(727.000000, 369.000000)">
                <g id="云上传">
                    <path d="M14.04,14.7 L13.1464071,14.7 C12.8150362,14.7 12.5464071,14.4313709 12.5464071,14.1 C12.5464071,13.7686292 12.8150362,13.5 13.1464071,13.5 L14.04,13.5 L14.04,13.5 C15.45,13.5 16.59,12.36 16.59,10.95 C16.59,9.53999998 15.42,8.39999999 14.04,8.39999999 L13.2,8.39999999 L13.2,7.79999999 C13.2,5.49 11.31,3.6 9,3.6 C6.69000001,3.6 4.80000001,5.49 4.80000001,7.79999999 L4.80000001,8.39999999 L4.14,8.39999999 C2.73000001,8.39999999 1.58999999,9.54 1.58999999,10.95 C1.58999999,12.36 2.73000001,13.5 4.14,13.5 L4.62187738,13.5 C4.95324823,13.5 5.22187739,13.7686292 5.22187739,14.1 C5.22187739,14.4313709 4.95324823,14.7 4.62187738,14.7 L4.14,14.7 L4.14,14.7 C2.07,14.7 0.36,13.02 0.36,10.95 C0.36,9.05999999 1.76999999,7.47 3.6,7.23000001 C3.90000001,4.53000001 6.21,2.39999999 9,2.39999999 C11.79,2.39999999 14.07,4.5 14.37,7.23000001 C16.29,7.41000001 17.79,9 17.79,10.95 C17.76,13.02 16.08,14.7 14.04,14.7 Z" id="路径"></path>
                    <path d="M9.70305463,7.95257631 L9.70708363,7.9566284 L11.1924068,9.45902427 C11.4234222,9.69269495 11.4223468,10.0690706 11.19,10.3014174 C10.9580404,10.533377 10.5819596,10.533377 10.35,10.3014174 L9.53903031,9.4906831 L9.54,13.3173902 C9.54,13.648761 9.27137085,13.9173902 8.94000001,13.9173902 C8.60862916,13.9173902 8.34000001,13.648761 8.34000001,13.3173902 L8.33903031,9.5996831 L7.62351446,10.3049615 C7.38904041,10.5355276 7.01252831,10.5339457 6.78000001,10.3014174 C6.54804041,10.0694578 6.54804042,9.69337696 6.78000001,9.46141737 L8.28884107,7.95257631 C8.67936536,7.56205202 9.31253034,7.56205202 9.70305463,7.95257631 Z" id="形状结合" transform="translate(8.985498, 10.788537) scale(1, -1) translate(-8.985498, -10.788537) "></path>
                </g>
            </g>
        </g>
    </g>
</svg>