<?xml version="1.0" encoding="UTF-8"?>
<svg width="26px" height="13px" viewBox="0 0 26 13" version="1.1" xmlns="http://www.w3.org/2000/svg" xmlns:xlink="http://www.w3.org/1999/xlink">
    <title>Shape@2x</title>
    <g id="页面-1" stroke="none" stroke-width="1" fill="none" fill-rule="evenodd">
        <g id="强烈建议-hover" transform="translate(-882.000000, -372.000000)" fill="#FFD206" fill-rule="nonzero">
            <path d="M906.160584,373.919767 L906.145985,373.904651 C904.963504,372.680233 903.386861,372 901.708029,372 C900.029197,372 898.452555,372.680233 897.270073,373.904651 L894.992701,376.262791 L892.715328,373.904651 C890.262774,371.380233 886.291971,371.380233 883.839416,373.904651 C881.386861,376.42907 881.386861,380.555814 883.839416,383.080233 L883.854015,383.095349 C886.306569,385.619767 890.277372,385.619767 892.729927,383.095349 L895.007299,380.737209 L897.284672,383.095349 C898.467153,384.319767 900.043796,385 901.722628,385 C903.40146,385 904.978102,384.319767 906.160584,383.095349 C908.613139,380.57093 908.613139,376.444186 906.160584,373.919767 Z M893.372263,378.575581 L890.875912,381.160465 C889.50365,382.581395 887.255474,382.581395 885.868613,381.160465 L885.854015,381.145349 C884.481752,379.724419 884.481752,377.396512 885.854015,375.975581 C886.525547,375.280233 887.416058,374.902326 888.350365,374.902326 C889.29927,374.902326 890.189781,375.280233 890.846715,375.975581 L893.372263,378.575581 Z M896.773723,378.560465 L899.270073,375.975581 C899.956204,375.265116 900.861314,374.902326 901.766423,374.902326 C902.671533,374.902326 903.576642,375.265116 904.262774,375.975581 L904.277372,375.990698 C905.649635,377.411628 905.649635,379.739535 904.277372,381.160465 C902.905109,382.581395 900.656934,382.581395 899.270073,381.160465 L896.773723,378.560465 Z" id="Shape"></path>
        </g>
    </g>
</svg>