<?xml version="1.0" encoding="UTF-8"?>
<svg width="20px" height="20px" viewBox="0 0 20 20" version="1.1" xmlns="http://www.w3.org/2000/svg" xmlns:xlink="http://www.w3.org/1999/xlink">
    <title>左@2x</title>
    <g id="页面-1" stroke="none" stroke-width="1" fill="none" fill-rule="evenodd">
        <g id="选择升级方式" transform="translate(-350.000000, -191.000000)" fill="#333333" fill-rule="nonzero" stroke="#333333" stroke-width="0.4">
            <g id="编组" transform="translate(320.000000, 161.000000)">
                <g id="左" transform="translate(30.000000, 30.000000)">
                    <path d="M9.76933594,17.6978516 C10.0800781,17.3871094 10.0800781,16.8849609 9.76933594,16.5742188 L3.97363281,10.7783203 L17.9492188,10.7783203 C18.3878906,10.7783203 18.7439453,10.4222656 18.7439453,9.98378906 C18.7439453,9.54511719 18.3878906,9.1890625 17.9492188,9.1890625 L3.97363281,9.1890625 L9.76933594,3.39335938 C10.0800781,3.08261719 10.0800781,2.58027344 9.76933594,2.26972656 C9.45859375,1.95898438 8.95644531,1.95898438 8.64570312,2.26972656 L1.49414062,9.421875 C1.42011719,9.49492188 1.36230469,9.58320313 1.32167969,9.68105469 C1.28125,9.77714844 1.26054687,9.88046875 1.26054687,9.98378906 C1.26054687,10.0871094 1.28125,10.1904297 1.32167969,10.2873047 C1.36230469,10.3851563 1.4203125,10.4724609 1.49414062,10.5464844 L8.64550781,17.6986328 C8.95644531,18.0085938 9.45859375,18.0085938 9.76933594,17.6978516 L9.76933594,17.6978516 Z" id="路径"></path>
                </g>
            </g>
        </g>
    </g>
</svg>