<?xml version="1.0" encoding="UTF-8"?>
<svg width="16px" height="16px" viewBox="0 0 16 16" version="1.1" xmlns="http://www.w3.org/2000/svg" xmlns:xlink="http://www.w3.org/1999/xlink">
    <title>10生活方式@2x</title>
    <g id="页面-1" stroke="none" stroke-width="1" fill="none" fill-rule="evenodd">
        <g id="添加-you备份" transform="translate(-14.000000, -533.000000)" fill-rule="nonzero">
            <g id="编组-8" transform="translate(-1.000000, 0.000000)">
                <g id="编组-9" transform="translate(1.000000, 170.000000)">
                    <g id="生活缴费" transform="translate(14.000000, 363.000000)">
                        <path d="M13.3046875,9.4421875 C13.275,8.5921875 13.0453125,7.7921875 12.6640625,7.0890625 C12.29375,6.4078125 11.4390625,5.196875 10.559375,4.003125 C9.6671875,2.79375 8.7484375,1.603125 8.28125,1.0015625 C8.121875,0.7953125 7.8109375,0.7953125 7.6515625,1.0015625 C6.721875,2.196875 4.015625,5.715625 3.26875,7.0875 C2.8578125,7.84375 2.625,8.7109375 2.625,9.634375 C2.625,12.5671875 4.9875,14.946875 7.9125,14.9765625 C8.046875,14.978125 8.18125,14.9734375 8.3125,14.965625 C10.5046875,14.8234375 12.35625,13.3390625 13.0328125,11.325 C13.203125,10.81875 13.2984375,10.28125 13.3078125,9.7203125 C13.309375,9.6265625 13.3078125,9.534375 13.3046875,9.4421875 Z M12.49375,10.121875 C12.215625,12.3625 10.275,14.1 7.9703125,14.078125 C7.7125,14.075 7.4609375,14.0515625 7.2171875,14.0078125 L7.1703125,13.9984375 C5.0828125,13.603125 3.5046875,11.76875 3.5046875,9.5671875 L3.5046875,9.55625 C3.50625,8.8 4.0375,8.14375 4.7734375,7.9734375 C5.0125,7.9171875 5.2625,7.8890625 5.51875,7.8890625 C6.515625,7.8890625 7.409375,8.33125 8.0140625,9.03125 C8.05,9.0890625 8.0875,9.1453125 8.1265625,9.2 C8.3171875,9.0859375 8.5203125,8.990625 8.7328125,8.9171875 C9.0703125,8.8 9.434375,8.7359375 9.8125,8.7359375 C10.9171875,8.7359375 11.8953125,9.2796875 12.4921875,10.115625 C12.49375,10.1171875 12.49375,10.11875 12.49375,10.121875 L12.49375,10.121875 Z" id="形状" fill="#CCCCCC"></path>
                        <path d="M8.3171875,9.440625 C8.20625,9.3125 8.10625,9.175 8.015625,9.0296875 C8.125,9.1578125 8.2265625,9.2953125 8.3171875,9.440625 Z" id="路径" fill="#EE5451"></path>
                        <path d="M12.49375,10.115625 L12.49375,10.121875 C12.0015625,10.415625 11.4265625,10.5828125 10.8125,10.5828125 C9.815625,10.5828125 8.921875,10.140625 8.3171875,9.440625 C8.25,9.3625 8.1875,9.2828125 8.128125,9.2 C8.31875,9.0859375 8.521875,8.990625 8.734375,8.9171875 C9.071875,8.8 9.4359375,8.7359375 9.8140625,8.7359375 C10.91875,8.7359375 11.896875,9.2796875 12.49375,10.115625 L12.49375,10.115625 Z" id="路径" fill="#E3E3E3"></path>
                    </g>
                </g>
            </g>
        </g>
    </g>
</svg>