<?xml version="1.0" encoding="UTF-8"?>
<svg width="18px" height="18px" viewBox="0 0 18 18" version="1.1" xmlns="http://www.w3.org/2000/svg" xmlns:xlink="http://www.w3.org/1999/xlink">
    <title>链接@2x</title>
    <g id="页面-1" stroke="none" stroke-width="1" fill="none" fill-rule="evenodd">
        <g id="侧边栏关闭-默认" transform="translate(-1393.000000, -290.000000)" fill="#C3C3C3" fill-rule="nonzero">
            <g id="编组-8" transform="translate(1019.000000, 79.000000)">
                <g id="编组-4" transform="translate(181.000000, 190.000000)">
                    <g id="网站名称+链接" transform="translate(62.000000, 20.000000)">
                        <g id="链接" transform="translate(131.000000, 1.000000)">
                            <path d="M9,1 C13.418278,1 17,4.581722 17,9 C17,13.418278 13.418278,17 9,17 C4.581722,17 1,13.418278 1,9 C1,4.581722 4.581722,1 9,1 Z M11.4805576,9.75132585 L6.51944243,9.75132585 C6.6919154,13.0695284 7.97765448,15.5 9,15.5 C10.0223455,15.5 11.3080846,13.0695284 11.4805576,9.75132585 Z M5.01739974,9.75113696 L2.54285115,9.75042951 C2.80783155,12.0554722 4.27860612,13.9936694 6.30844755,14.9182938 C5.59144602,13.6129775 5.1124914,11.7934759 5.01739974,9.75113696 Z M15.4571488,9.75042951 L12.9826003,9.75113696 C12.8875086,11.7934759 12.408554,13.6129775 11.6914441,14.9182264 C13.7213939,13.9936694 15.1921685,12.0554722 15.4571488,9.75042951 Z M6.30855591,3.08177365 L6.16963347,3.14693644 C4.21146511,4.09559624 2.80133298,5.99797547 2.5427357,8.25057549 L5.01735328,8.24986151 C5.11233531,6.2071171 5.59132916,4.3872352 6.30855591,3.08177365 Z M9,2.5 C7.97755201,2.5 6.69165766,4.9309588 6.5193906,8.24967193 L11.4806094,8.24967193 C11.313211,5.02475285 10.0942428,2.63811747 9.08729001,2.50579035 L9,2.5 L9,2.5 Z M11.6915524,3.08170619 L11.7797627,3.24745337 C12.4478834,4.53913313 12.8916185,6.29215003 12.9826467,8.24986151 L15.4572643,8.25057549 C15.1925959,5.94509119 13.7216889,4.00646499 11.6915524,3.08170619 Z"></path>
                        </g>
                    </g>
                </g>
            </g>
        </g>
    </g>
</svg>