<?xml version="1.0" encoding="UTF-8"?>
<svg width="16px" height="16px" viewBox="0 0 16 16" version="1.1" xmlns="http://www.w3.org/2000/svg" xmlns:xlink="http://www.w3.org/1999/xlink">
    <title>phone</title>
    <g id="页面-1" stroke="none" stroke-width="1" fill="none" fill-rule="evenodd">
        <g id="iNfinity_设置备份" transform="translate(-897.000000, -359.000000)">
            <g id="编组-3" transform="translate(720.000000, 342.000000)">
                <g id="phone" transform="translate(177.000000, 17.000000)">
                    <rect id="矩形" fill="#D8D8D8" opacity="0" x="0" y="0" width="16" height="16"></rect>
                    <path d="M11,1 C12.1045695,1 13,1.8954305 13,3 L13,13 C13,14.1045695 12.1045695,15 11,15 L5,15 C3.8954305,15 3,14.1045695 3,13 L3,3 C3,1.8954305 3.8954305,1 5,1 L11,1 Z M11,2 L5,2 C4.48716416,2 4.06449284,2.38604019 4.00672773,2.88337887 L4,3 L4,13 C4,13.5128358 4.38604019,13.9355072 4.88337887,13.9932723 L5,14 L11,14 C11.5128358,14 11.9355072,13.6139598 11.9932723,13.1166211 L12,13 L12,3 C12,2.48716416 11.6139598,2.06449284 11.1166211,2.00672773 L11,2 Z M9.5,12 C9.77614237,12 10,12.2238576 10,12.5 C10,12.7761424 9.77614237,13 9.5,13 L6.5,13 C6.22385763,13 6,12.7761424 6,12.5 C6,12.2238576 6.22385763,12 6.5,12 L9.5,12 Z" id="形状结合" fill="#8E8E93" fill-rule="nonzero"></path>
                </g>
            </g>
        </g>
    </g>
</svg>