<?xml version="1.0" encoding="UTF-8"?>
<svg width="16px" height="16px" viewBox="0 0 16 16" version="1.1" xmlns="http://www.w3.org/2000/svg" xmlns:xlink="http://www.w3.org/1999/xlink">
    <title>5音乐@2x</title>
    <g id="页面-1" stroke="none" stroke-width="1" fill="none" fill-rule="evenodd">
        <g id="添加-you备份" transform="translate(-14.000000, -343.000000)" fill="#333333" fill-rule="nonzero">
            <g id="编组-8" transform="translate(-1.000000, 0.000000)">
                <g id="编组-9" transform="translate(1.000000, 170.000000)">
                    <g id="音乐" transform="translate(14.000000, 173.000000)">
                        <path d="M8.03515625,1.00917969 C4.16972656,1.00917969 1.025,4.15390625 1.025,8.01933594 C1.025,11.8865234 4.16972656,15.03125 8.03515625,15.03125 C11.9005859,15.03125 15.0453125,11.8865234 15.0453125,8.02109375 C15.0453125,4.15566406 11.9005859,1.00917969 8.03515625,1.00917969 Z M11.5613281,6.48476563 C11.20625,6.85390625 10.6191406,6.86445313 10.2517578,6.509375 L9.40625,5.69375 C9.31484375,5.60585938 9.16191406,5.67089844 9.16191406,5.79746094 L9.16191406,11.5490234 C9.16191406,12.5861328 8.21972656,13.4 7.01738281,13.4 C5.81503906,13.4 4.87285156,12.5878906 4.87285156,11.5490234 C4.87285156,10.5558594 5.7359375,9.76835938 6.86445312,9.70332031 C6.94707031,9.69804688 7.01738281,9.76484375 7.01738281,9.84746094 L7.01738281,11.3802734 C7.01738281,11.4751953 7.10703125,11.5472656 7.1984375,11.5191406 C7.20371094,11.5173828 7.20722656,11.515625 7.21074219,11.515625 C7.27050781,11.4962891 7.30917969,11.4400391 7.30917969,11.3785156 L7.30917969,3.81816406 C7.30917969,2.79863281 8.53261719,2.27832031 9.26738281,2.98496094 L11.5384766,5.17167969 C11.9058594,5.53027344 11.9164062,6.115625 11.5613281,6.48476563 L11.5613281,6.48476563 Z" id="形状"></path>
                    </g>
                </g>
            </g>
        </g>
    </g>
</svg>