<?xml version="1.0" encoding="UTF-8"?>
<svg width="16px" height="16px" viewBox="0 0 16 16" version="1.1" xmlns="http://www.w3.org/2000/svg" xmlns:xlink="http://www.w3.org/1999/xlink">
    <title>4新闻@2x</title>
    <g id="页面-1" stroke="none" stroke-width="1" fill="none" fill-rule="evenodd">
        <g id="添加-you备份" transform="translate(-14.000000, -305.000000)" fill="#CCCCCC" fill-rule="nonzero">
            <g id="编组-8" transform="translate(-1.000000, 0.000000)">
                <g id="编组-9" transform="translate(1.000000, 170.000000)">
                    <g id="新闻" transform="translate(14.000000, 135.000000)">
                        <path d="M12.66,1.4816 C13.544,1.4816 14.26,2.1976 14.26,3.0816 L14.26,13.1048 C14.26,13.9888 13.5432,14.7056 12.66,14.7056 L3.4288,14.7056 C2.5448,14.7056 1.8288,13.9896 1.8288,13.1056 L1.8288,3.0816 C1.8288,2.1976 2.5448,1.4816 3.4288,1.4816 L12.66,1.4816 Z M8.4016,7.6144 L4.3104,7.6144 C3.848,7.6144 3.4728,7.9896 3.4728,8.452 C3.4728,8.9144 3.848,9.2896 4.3104,9.2896 L4.3104,9.2896 L8.4016,9.2896 C8.864,9.2896 9.2392,8.9144 9.2392,8.452 C9.2392,7.9896 8.864,7.6144 8.4016,7.6144 L8.4016,7.6144 Z M9.9952,3.8224 L4.3104,3.8224 C3.848,3.8224 3.4728,4.1976 3.4728,4.66 C3.4728,5.1224 3.848,5.4976 4.3104,5.4976 L4.3104,5.4976 L9.9952,5.4976 C10.4576,5.4976 10.832,5.1232 10.8328,4.66 C10.8328,4.1976 10.4576,3.8224 9.9952,3.8224 L9.9952,3.8224 Z" id="形状结合"></path>
                    </g>
                </g>
            </g>
        </g>
    </g>
</svg>