<?xml version="1.0" encoding="UTF-8"?>
<svg width="9px" height="9px" viewBox="0 0 9 9" version="1.1" xmlns="http://www.w3.org/2000/svg" xmlns:xlink="http://www.w3.org/1999/xlink">
    <title>编组</title>
    <g id="页面-1" stroke="none" stroke-width="1" fill="none" fill-rule="evenodd">
        <g id="1.3.1我的_个人信息" transform="translate(-290.000000, -1426.000000)">
            <g id="个人信息_修改密码" transform="translate(80.000000, 1120.000000)">
                <g id="编组-16" transform="translate(130.000000, 75.000000)">
                    <g id="编组" transform="translate(80.000000, 231.000000)">
                        <rect id="矩形" fill="#FFFFFF" opacity="0" x="0" y="0" width="9" height="9"></rect>
                        <path d="M1.14644661,2.14644661 C1.32001296,1.97288026 1.58943736,1.95359511 1.7843055,2.08859116 L1.85355339,2.14644661 L3.85355339,4.14644661 C4.02711974,4.32001296 4.04640489,4.58943736 3.91140884,4.7843055 L3.85355339,4.85355339 L1.85355339,6.85355339 C1.65829124,7.04881554 1.34170876,7.04881554 1.14644661,6.85355339 C0.972880258,6.67998704 0.953595107,6.41056264 1.08859116,6.2156945 L1.14644661,6.14644661 L2.793,4.5 L1.14644661,2.85355339 C0.972880258,2.67998704 0.953595107,2.41056264 1.08859116,2.2156945 L1.14644661,2.14644661 Z" id="路径-5" fill="#C7C7CC" fill-rule="nonzero"></path>
                        <path d="M5.14644661,2.14644661 C5.32001296,1.97288026 5.58943736,1.95359511 5.7843055,2.08859116 L5.85355339,2.14644661 L7.85355339,4.14644661 C8.02711974,4.32001296 8.04640489,4.58943736 7.91140884,4.7843055 L7.85355339,4.85355339 L5.85355339,6.85355339 C5.65829124,7.04881554 5.34170876,7.04881554 5.14644661,6.85355339 C4.97288026,6.67998704 4.95359511,6.41056264 5.08859116,6.2156945 L5.14644661,6.14644661 L6.793,4.5 L5.14644661,2.85355339 C4.97288026,2.67998704 4.95359511,2.41056264 5.08859116,2.2156945 L5.14644661,2.14644661 Z" id="路径-5备份" fill="#C7C7CC" fill-rule="nonzero"></path>
                    </g>
                </g>
            </g>
        </g>
    </g>
</svg>