<?xml version="1.0" encoding="UTF-8"?>
<svg width="16px" height="16px" viewBox="0 0 16 16" version="1.1" xmlns="http://www.w3.org/2000/svg" xmlns:xlink="http://www.w3.org/1999/xlink">
    <title>16其他@2x</title>
    <g id="页面-1" stroke="none" stroke-width="1" fill="none" fill-rule="evenodd">
        <g id="添加-you备份" transform="translate(-14.000000, -761.000000)" fill="#CCCCCC" fill-rule="nonzero">
            <g id="编组-8" transform="translate(-1.000000, 0.000000)">
                <g id="编组-9" transform="translate(1.000000, 170.000000)">
                    <g id="其他" transform="translate(14.000000, 591.000000)">
                        <path d="M8,1.02049211 C4.14531747,1.02049211 1.02049211,4.14533347 1.02049211,8 C1.02049211,11.8546665 4.14533347,14.9795079 8,14.9795079 C11.8546665,14.9795079 14.9795079,11.8546825 14.9795079,8 C14.9795079,4.14531747 11.8546665,1.02049211 8,1.02049211 Z M4.84302044,8.86336664 C4.36619173,8.86336664 3.9796538,8.47682872 3.9796538,8 C3.9796538,7.52317128 4.36619172,7.13663336 4.84302044,7.13663336 C5.31984916,7.13663336 5.70638708,7.52317128 5.70638708,8 C5.70638708,8.47682872 5.31984914,8.86336664 4.84302044,8.86336664 Z M8,8.86336664 C7.5231713,8.86336664 7.13663336,8.47682872 7.13663336,8 C7.13663336,7.52317128 7.52317128,7.13663336 8,7.13663336 C8.4768287,7.13663336 8.86336664,7.52317128 8.86336664,8 C8.86336664,8.47682872 8.4768287,8.86336664 8,8.86336664 Z M11.1569796,8.86336664 C10.6801509,8.86336664 10.2936129,8.47682872 10.2936129,8 C10.2936129,7.52317128 10.6801508,7.13663336 11.1569796,7.13663336 C11.6338083,7.13663336 12.0203462,7.52317128 12.0203462,8 C12.0203462,8.47682872 11.6338083,8.86336664 11.1569796,8.86336664 Z" id="形状"></path>
                    </g>
                </g>
            </g>
        </g>
    </g>
</svg>