<?xml version="1.0" encoding="UTF-8"?>
<svg width="16px" height="16px" viewBox="0 0 16 16" version="1.1" xmlns="http://www.w3.org/2000/svg" xmlns:xlink="http://www.w3.org/1999/xlink">
    <title>pad</title>
    <g id="页面-1" stroke="none" stroke-width="1" fill="none" fill-rule="evenodd">
        <g id="iNfinity_设置备份" transform="translate(-861.000000, -359.000000)">
            <g id="编组-3" transform="translate(720.000000, 342.000000)">
                <g id="pad" transform="translate(141.000000, 17.000000)">
                    <rect id="矩形" fill="#D8D8D8" opacity="0" x="0" y="0" width="16" height="16"></rect>
                    <path d="M13,2 C14.1045695,2 15,2.8954305 15,4 L15,12 C15,13.1045695 14.1045695,14 13,14 L3,14 C1.8954305,14 1,13.1045695 1,12 L1,4 C1,2.8954305 1.8954305,2 3,2 L13,2 Z M13,3 L3,3 C2.48716416,3 2.06449284,3.38604019 2.00672773,3.88337887 L2,4 L2,12 C2,12.5128358 2.38604019,12.9355072 2.88337887,12.9932723 L3,13 L13,13 C13.5128358,13 13.9355072,12.6139598 13.9932723,12.1166211 L14,12 L14,4 C14,3.48716416 13.6139598,3.06449284 13.1166211,3.00672773 L13,3 Z M9.5,11 C9.77614237,11 10,11.2238576 10,11.5 C10,11.7761424 9.77614237,12 9.5,12 L6.5,12 C6.22385763,12 6,11.7761424 6,11.5 C6,11.2238576 6.22385763,11 6.5,11 L9.5,11 Z" id="形状结合" fill="#8E8E93" fill-rule="nonzero"></path>
                </g>
            </g>
        </g>
    </g>
</svg>