<?xml version="1.0" encoding="UTF-8"?>
<svg width="16px" height="16px" viewBox="0 0 16 16" version="1.1" xmlns="http://www.w3.org/2000/svg" xmlns:xlink="http://www.w3.org/1999/xlink">
    <title>pc</title>
    <g id="页面-1" stroke="none" stroke-width="1" fill="none" fill-rule="evenodd">
        <g id="iNfinity_设置备份" transform="translate(-825.000000, -359.000000)">
            <g id="编组-3" transform="translate(720.000000, 342.000000)">
                <g id="pc" transform="translate(105.000000, 17.000000)">
                    <rect id="矩形" fill="#D8D8D8" opacity="0" x="0" y="0" width="16" height="16"></rect>
                    <path d="M11.5,14 C11.7761424,14 12,14.2238576 12,14.5 C12,14.7761424 11.7761424,15 11.5,15 L4.5,15 C4.22385763,15 4,14.7761424 4,14.5 C4,14.2238576 4.22385763,14 4.5,14 L11.5,14 Z M13,1 C14.1045695,1 15,1.8954305 15,3 L15,11 C15,12.1045695 14.1045695,13 13,13 L3,13 C1.8954305,13 1,12.1045695 1,11 L1,3 C1,1.8954305 1.8954305,1 3,1 L13,1 Z M13,2 L3,2 C2.48716416,2 2.06449284,2.38604019 2.00672773,2.88337887 L2,3 L2,11 C2,11.5128358 2.38604019,11.9355072 2.88337887,11.9932723 L3,12 L13,12 C13.5128358,12 13.9355072,11.6139598 13.9932723,11.1166211 L14,11 L14,3 C14,2.48716416 13.6139598,2.06449284 13.1166211,2.00672773 L13,2 Z" id="形状结合" fill="#151515" fill-rule="nonzero"></path>
                </g>
            </g>
        </g>
    </g>
</svg>