<?xml version="1.0" encoding="UTF-8"?>
<svg width="16px" height="16px" viewBox="0 0 16 16" version="1.1" xmlns="http://www.w3.org/2000/svg" xmlns:xlink="http://www.w3.org/1999/xlink">
    <title>6图片@2x</title>
    <g id="页面-1" stroke="none" stroke-width="1" fill="none" fill-rule="evenodd">
        <g id="添加-you备份" transform="translate(-14.000000, -381.000000)" fill="#CCCCCC" fill-rule="nonzero">
            <g id="编组-8" transform="translate(-1.000000, 0.000000)">
                <g id="编组-9" transform="translate(1.000000, 170.000000)">
                    <g id="图-片" transform="translate(14.000000, 211.000000)">
                        <path d="M12.75,2.13928571 L3.26785714,2.13928571 C2.36071429,2.13928571 1.625,2.875 1.625,3.78214286 L1.625,11.55 C1.60357143,11.6357143 1.60357143,11.7178571 1.625,11.8 L1.625,12.2214286 C1.625,13.1285714 2.36071429,13.8642857 3.26785714,13.8642857 L12.75,13.8642857 C13.6571429,13.8642857 14.3928571,13.1285714 14.3928571,12.2214286 L14.3928571,3.78214286 C14.3928571,2.875 13.6571429,2.13928571 12.75,2.13928571 Z M3.26785714,3.13928571 L12.75,3.13928571 C13.1035714,3.13928571 13.3928571,3.42857143 13.3928571,3.78214286 L13.3928571,10.0214286 C13.0214286,9.51785714 12.5714286,8.96785714 12.1035714,8.53214286 C11.825,8.27142857 11.4785714,8.16428571 11.1,8.21785714 C10.5035714,8.30357143 9.85,8.8 9.10357143,9.73214286 C8.925,9.95357143 8.76428571,10.175 8.63214286,10.3642857 C7.975,9.45714286 6.68214286,7.78214286 5.58571429,7.01071429 C5.26071429,6.78214286 4.89642857,6.72857143 4.525,6.85 C4.12142857,6.98214286 3.72857143,7.325 3.32857143,7.89642857 C3.09642857,8.225 2.86071429,8.63214286 2.62142857,9.11071429 L2.62142857,3.78214286 C2.625,3.425 2.91071429,3.13928571 3.26785714,3.13928571 Z" id="形状"></path>
                        <path d="M10.1428571,5.55 C10.1428571,6.17132034 10.6465368,6.675 11.2678571,6.675 C11.8891775,6.675 12.3928571,6.17132034 12.3928571,5.55 C12.3928571,4.92867966 11.8891775,4.425 11.2678571,4.425 C10.6465368,4.425 10.1428571,4.92867966 10.1428571,5.55 Z" id="路径"></path>
                    </g>
                </g>
            </g>
        </g>
    </g>
</svg>