<?xml version="1.0" encoding="UTF-8"?>
<svg width="16px" height="16px" viewBox="0 0 16 16" version="1.1" xmlns="http://www.w3.org/2000/svg" xmlns:xlink="http://www.w3.org/1999/xlink">
    <title>1受欢迎@2x</title>
    <g id="页面-1" stroke="none" stroke-width="1" fill="none" fill-rule="evenodd">
        <g id="添加-you备份" transform="translate(-14.000000, -191.000000)" fill="#CCCCCC" fill-rule="nonzero">
            <g id="编组-8" transform="translate(-1.000000, 0.000000)">
                <g id="编组-9" transform="translate(1.000000, 170.000000)">
                    <g id="popular_fill" transform="translate(14.000000, 21.000000)">
                        <path d="M8,15.1176667 C4.41066667,15.1176667 2,11.941 2,9.47066667 C2,7.706 2.681,6.49566667 4.11766667,5.05866667 C5.353,3.82366667 6.67666667,2.23766667 6.66666667,1 C8.10233334,1.23933333 10,3 10,5.66666667 C10.5293333,5.49 11.1666667,5 11.1766667,4.17666667 C13.0903333,5.61166667 14,7.70566667 14,9.47033333 C14,12.117 11.5893333,15.117 8,15.117 L8,15.1176667 Z M8,10.762 C8.73637966,10.762 9.33333333,10.1650463 9.33333333,9.42866667 C9.33333333,8.93766667 8.889,8.23933334 8,7.33333333 C7.111,8.23933333 6.66666667,8.93766666 6.66666667,9.42866667 C6.66666667,10.1650463 7.26362034,10.762 8,10.762 L8,10.762 Z" id="形状"></path>
                    </g>
                </g>
            </g>
        </g>
    </g>
</svg>