<?xml version="1.0" encoding="UTF-8"?>
<svg width="18px" height="18px" viewBox="0 0 18 18" version="1.1" xmlns="http://www.w3.org/2000/svg" xmlns:xlink="http://www.w3.org/1999/xlink">
    <title>不可见@2x</title>
    <g id="页面-1" stroke="none" stroke-width="1" fill="none" fill-rule="evenodd">
        <g id="登录英文" transform="translate(-1017.000000, -440.000000)" fill="#333332" fill-rule="nonzero">
            <g id="不可见" transform="translate(1017.000000, 440.000000)">
                <path d="M1.638,7.97599997 C1.25968495,7.97599997 0.953,8.28268495 0.953,8.661 C0.953,8.77721926 0.982099261,8.88919748 1.03603529,8.98813384 L1.30900937,9.40373585 C1.73984851,10.0362494 2.22430731,10.6073052 2.7549823,11.1084069 L2.945,11.281 L1.63030982,12.5952688 C1.36623689,12.8593418 1.36623689,13.3006582 1.63028932,13.5647107 L1.71413345,13.6359444 C1.97877975,13.8259098 2.35265671,13.8022892 2.59831087,13.5660833 L4.041,12.123 L4.27428058,12.2734451 C4.88692272,12.6479664 5.53828378,12.9442003 6.22169785,13.1589124 L6.462,13.228 L5.78295702,15.1070012 C5.65497866,15.4589412 5.83910665,15.8567892 6.19471799,15.982299 L6.29142248,16.009506 C6.61602644,16.0751263 6.95519914,15.893565 7.06929903,15.570282 L7.817,13.502 L7.73714739,13.4936382 C8.15058055,13.5484723 8.57195593,13.576 9,13.576 L9.42542768,13.5668473 C9.56646579,13.5607482 9.70671712,13.5516037 9.84613461,13.5394218 L10.181,13.502 L10.9309821,15.571068 L10.9729273,15.6650907 C11.1375636,15.9629181 11.4931244,16.0958157 11.8061743,15.9819793 L11.89858,15.9413157 C12.1917912,15.7848311 12.3333812,15.4269307 12.2169793,15.1068257 L11.536,13.229 L11.7796049,13.158503 C12.4675627,12.9422462 13.1230243,12.6433745 13.739191,12.2651932 L13.974,12.114 L15.4273414,13.5647627 L15.5139088,13.6374693 C15.7883911,13.8274146 16.1554569,13.7967121 16.3953109,13.5660833 L16.4669844,13.4815322 C16.6581226,13.2141676 16.6343579,12.8329365 16.3967107,12.5952893 L15.068,11.268 L15.2625164,11.0918357 C15.7996907,10.5820275 16.2896795,9.99977382 16.7273396,9.35032386 L16.912,9.064 C17.0002615,8.94889191 17.047,8.80729427 17.047,8.661 C17.047,8.41627306 16.9164397,8.19013604 16.7045,8.06777257 C16.4925603,7.9454091 16.2314397,7.9454091 16.0195,8.06777257 C15.9246683,8.12252369 15.8442672,8.19916459 15.7836112,8.29080667 C14.2079779,10.8188707 11.8014483,12.206 9,12.206 L8.71162169,12.201062 C6.12921849,12.1122706 3.90221649,10.8285082 2.3819879,8.55022506 L2.21629235,8.29370662 C2.09142355,8.09745467 1.87504158,7.97599997 1.638,7.97599997 Z" id="形状结合"></path>
            </g>
        </g>
    </g>
</svg>