<?xml version="1.0" encoding="UTF-8"?>
<svg width="18px" height="18px" viewBox="0 0 18 18" version="1.1" xmlns="http://www.w3.org/2000/svg" xmlns:xlink="http://www.w3.org/1999/xlink">
    <title>可见@2x</title>
    <g id="页面-1" stroke="none" stroke-width="1" fill="none" fill-rule="evenodd">
        <g id="登录英文" transform="translate(-1037.000000, -440.000000)" fill="#333333" fill-rule="nonzero">
            <g id="可见" transform="translate(1037.000000, 440.000000)">
                <path d="M9,3.375 C5.25000001,3.375 2.0475,5.70749999 0.750000006,9 C2.0475,12.2925 5.25000001,14.625 9,14.625 C12.75,14.625 15.9525,12.2925 17.25,9 C15.9525,5.70749999 12.75,3.375 9,3.375 Z M9,12.75 C6.93,12.75 5.25000001,11.07 5.25000001,9 C5.25000001,6.93 6.93,5.25000001 9,5.25000001 C11.07,5.25000001 12.75,6.93 12.75,9 C12.75,11.07 11.07,12.75 9,12.75 Z M9,6.75 C7.75499999,6.75 6.75,7.75499999 6.75,9 C6.75,10.245 7.75499999,11.25 9,11.25 C10.245,11.25 11.25,10.245 11.25,9 C11.25,7.75499999 10.245,6.75 9,6.75 L9,6.75 Z" id="形状"></path>
            </g>
        </g>
    </g>
</svg>