<?xml version="1.0" encoding="UTF-8"?>
<svg width="16px" height="16px" viewBox="0 0 16 16" version="1.1" xmlns="http://www.w3.org/2000/svg" xmlns:xlink="http://www.w3.org/1999/xlink">
    <title>15阅读@2x</title>
    <g id="页面-1" stroke="none" stroke-width="1" fill="none" fill-rule="evenodd">
        <g id="添加-you备份" transform="translate(-14.000000, -723.000000)" fill="#CCCCCC" fill-rule="nonzero">
            <g id="编组-8" transform="translate(-1.000000, 0.000000)">
                <g id="编组-9" transform="translate(1.000000, 170.000000)">
                    <g id="阅读" transform="translate(14.000000, 553.000000)">
                        <path d="M12.0313902,14.1058703 L13.6989597,13.6531345 C14.0009064,13.5708189 14.1810451,13.2583674 14.0981241,12.9430175 L11.2862452,2.30691423 C11.2044679,1.99678151 10.8887963,1.81302062 10.5908527,1.89417685 L8.9232832,2.34691266 C8.6207646,2.42922826 8.44119778,2.74167974 8.52411876,3.05702964 L11.3354259,13.6931329 C11.417775,14.0032657 11.7328747,14.1864469 12.0313902,14.1058703 Z M4.16762209,14.0867406 C4.48043434,14.0867406 4.7343441,13.8316782 4.7343441,13.5053142 L4.7343441,2.49415325 C4.7343441,2.17300646 4.47643127,1.91330653 4.1676221,1.91330653 L2.441722,1.91330653 C2.12890975,1.91330653 1.875,2.16778927 1.875,2.49415325 L1.875,13.5053142 C1.875,13.826461 2.13291283,14.086161 2.441722,14.086161 L4.16762209,14.0861609 L4.16762209,14.0867406 Z M7.59883501,14.0867406 C7.91164725,14.0867406 8.16555702,13.8322579 8.16555702,13.5058939 L8.16555702,2.49415325 C8.16555702,2.17300646 7.90764418,1.91330653 7.59883502,1.91330653 L5.87293491,1.91330653 C5.56012267,1.91330653 5.30621292,2.16778927 5.30621292,2.49415325 L5.30621292,13.5053142 C5.30621292,13.826461 5.56412575,14.086161 5.87293491,14.086161 L7.59883501,14.0861609 L7.59883501,14.0867406 Z" id="形状"></path>
                    </g>
                </g>
            </g>
        </g>
    </g>
</svg>