<?xml version="1.0" encoding="UTF-8"?>
<svg width="12px" height="12px" viewBox="0 0 12 12" version="1.1" xmlns="http://www.w3.org/2000/svg" xmlns:xlink="http://www.w3.org/1999/xlink">
    <title>刷新@2x</title>
    <g id="页面-1" stroke="none" stroke-width="1" fill="none" fill-rule="evenodd">
        <g id="添加-断网提示2" transform="translate(-364.000000, -358.000000)" fill="#333333" fill-rule="nonzero">
            <g id="编组-6备份" transform="translate(204.000000, 355.000000)">
                <g id="刷新" transform="translate(160.000000, 3.000000)">
                    <path d="M9.79120312,8.31840234 L11.6000039,5.67120703 L10.3208086,5.67120703 C10.1504062,3.0808125 7.99920703,1.0288125 5.36560547,1.0288125 C2.62000781,1.0288125 0.400007812,3.25441406 0.400007812,6.00080859 C0.400007812,8.7448125 2.62560937,10.9712109 5.37120703,10.9712109 C6.60240234,10.9712109 7.72640625,10.5208125 8.59521094,9.77840625 L7.93040625,8.92241016 C7.24640625,9.52080469 6.35200781,9.88801172 5.37120703,9.88801172 C3.22320703,9.88801172 1.48241016,8.14640625 1.48241016,6.00080859 C1.48241016,3.85201172 3.22401562,2.11120312 5.37120703,2.11120312 C7.40721094,2.11120312 9.07040625,3.67839844 9.23760937,5.67120703 L7.98241406,5.67120703 L9.79121484,8.31840234 L9.79120312,8.31840234 Z" id="路径"></path>
                </g>
            </g>
        </g>
    </g>
</svg>