<?xml version="1.0" encoding="UTF-8"?>
<svg width="24px" height="24px" viewBox="0 0 24 24" version="1.1" xmlns="http://www.w3.org/2000/svg" xmlns:xlink="http://www.w3.org/1999/xlink">
    <title>刷新</title>
    <g id="页面-1" stroke="none" stroke-width="1" fill="none" fill-rule="evenodd">
        <g id="8.3我的【登录】" transform="translate(-230.000000, -516.000000)">
            <g id="2" transform="translate(122.000000, 404.000000)">
                <g id="刷新" transform="translate(108.000000, 112.000000)">
                    <rect id="矩形" fill="#FFFFFF" opacity="0" x="0" y="0" width="24" height="24"></rect>
                    <path d="M11.7696816,21.9733467 L11.6862894,21.9498039 C11.6410451,21.9348684 11.59723,21.9167904 11.5551027,21.8958282 C11.5547471,21.8954055 11.5537665,21.8949172 11.5527864,21.8944272 L11.5257215,21.8805946 C11.5017364,21.8676493 11.4783403,21.8537526 11.4555838,21.8389552 L11.5527864,21.8944272 C11.505613,21.8708405 11.4611185,21.8440283 11.4194366,21.8143916 C11.4022176,21.8020251 11.3850366,21.7889069 11.3683058,21.7752578 C11.3551836,21.7648204 11.342587,21.7540347 11.3303049,21.7429766 C11.3138277,21.7277961 11.297455,21.7120005 11.2816344,21.695667 C11.2730173,21.6871725 11.2642897,21.6778167 11.2557605,21.6683132 C11.2410869,21.6516029 11.2266456,21.6344156 11.212786,21.6167501 C11.1956552,21.5951808 11.1794161,21.572534 11.1641793,21.5493021 C11.1589564,21.5412611 11.1542525,21.5338968 11.1496432,21.5264676 C11.1391465,21.5094953 11.128985,21.4918807 11.1193764,21.4739921 C11.1115519,21.4597274 11.1040485,21.4449596 11.0969065,21.4299862 C11.0891027,21.4131091 11.081768,21.3965121 11.0748894,21.3797349 C11.0672814,21.3618939 11.0602878,21.3433417 11.053839,21.3245364 C11.0493385,21.3105715 11.0449057,21.2966634 11.0407769,21.2826635 C11.0342515,21.2614103 11.028625,21.2396104 11.0237281,21.2175359 C11.0211911,21.2053462 11.0186934,21.1931028 11.0164241,21.180811 C11.0103281,21.1481162 11.0059285,21.1147044 11.0032183,21.0808162 C10.991668,20.9413854 11.0094048,20.7980128 11.0594357,20.6601042 C11.0723035,20.6242671 11.0861656,20.5917788 11.1016412,20.5602253 L13.1055728,16.5527864 C13.3525621,16.0588079 13.9532351,15.8585836 14.4472136,16.1055728 C14.9059079,16.33492 15.1113142,16.8692292 14.9405643,17.3398958 L14.8944272,17.4472136 L13.7105703,19.8167076 C17.3069248,19.0333372 20,15.8311693 20,12 C20,7.581722 16.418278,4 12,4 C7.581722,4 4,7.581722 4,12 C4,15.0606391 5.73354719,17.810559 8.42196415,19.1574554 C8.91574501,19.4048395 9.11548904,20.0056724 8.86810492,20.4994533 C8.6207208,20.9932341 8.01988787,21.1929782 7.526107,20.945594 C4.16724254,19.2628036 2,15.8249143 2,12 C2,6.4771525 6.4771525,2 12,2 C17.5228475,2 22,6.4771525 22,12 C22,17.5228475 17.5228475,22 12,22 C11.9176789,21.9996232 11.8432626,21.9908247 11.7696816,21.9733467 Z" id="形状结合" fill="#151515" fill-rule="nonzero"></path>
                </g>
            </g>
        </g>
    </g>
</svg>