<?xml version="1.0" encoding="UTF-8"?>
<svg width="16px" height="16px" viewBox="0 0 16 16" version="1.1" xmlns="http://www.w3.org/2000/svg" xmlns:xlink="http://www.w3.org/1999/xlink">
    <title>icon-zhuxiao</title>
    <g id="页面-1" stroke="none" stroke-width="1" fill="none" fill-rule="evenodd">
        <g id="1.3.1我的_个人信息" transform="translate(-1000.000000, -1556.000000)">
            <g id="个人信息_账号设置" transform="translate(680.000000, 1120.000000)">
                <g id="编组-10备份-3" transform="translate(220.000000, 428.000000)">
                    <g id="icon-zhuxiao" transform="translate(100.000000, 8.000000)">
                        <rect id="矩形" fill="#FFFFFF" opacity="0" x="0" y="0" width="16" height="16"></rect>
                        <path d="M8,8.4 C8.4418278,8.4 8.8,8.0418278 8.8,7.6 L8.8,2 C8.8,1.55817221 8.44182779,1.20000003 8,1.20000003 C7.55817221,1.20000003 7.2,1.55817221 7.2,2 L7.2,7.6 C7.2,8.0418278 7.5581722,8.4 8,8.4 Z M10.4,2.472 L10.4,4.264 C12.2814465,5.35025363 13.1987302,7.56477249 12.636444,9.66325335 C12.0741577,11.7617342 10.1725073,13.2209219 8,13.2209219 C5.82749274,13.2209219 3.92584229,11.7617342 3.36355603,9.66325335 C2.80126978,7.56477249 3.71855353,5.35025363 5.6,4.264 L5.6,2.472 C2.76027386,3.62072578 1.13270805,6.62060547 1.71784526,9.62746927 C2.30298248,12.6343331 4.93673124,14.8049588 8,14.8049588 C11.0632688,14.8049588 13.6970175,12.6343331 14.2821547,9.62746927 C14.8672919,6.62060547 13.2397261,3.62072578 10.4,2.472 Z" fill="#FF5A5A" fill-rule="nonzero"></path>
                    </g>
                </g>
            </g>
        </g>
    </g>
</svg>