<?xml version="1.0" encoding="UTF-8"?>
<svg width="16px" height="16px" viewBox="0 0 16 16" version="1.1" xmlns="http://www.w3.org/2000/svg" xmlns:xlink="http://www.w3.org/1999/xlink">
    <title>搜索结果@2x</title>
    <g id="页面-1" stroke="none" stroke-width="1" fill="none" fill-rule="evenodd">
        <g id="添加-you备份" transform="translate(-14.000000, -800.000000)" fill="#CCCCCC" fill-rule="nonzero">
            <g id="搜索1" transform="translate(14.000000, 800.000000)">
                <path d="M8.47733334,1 C12.0543333,1 14.9538889,3.89994444 14.9538889,7.47772222 C14.9538889,9.01188888 14.4125555,10.4573889 13.4780556,11.5937222 L15.8148889,13.9301667 C15.9333067,14.0471408 15.9999559,14.2066607 15.9999559,14.3731111 C15.9999559,14.5395615 15.9333067,14.6990814 15.8148889,14.8160556 C15.6972204,14.9333013 15.5380531,14.9993997 15.3719444,15 C15.2058358,14.9993997 15.0466685,14.9333013 14.929,14.8160556 L12.5933333,12.48 C10.0185175,14.5990259 6.25554247,14.4165991 3.89777778,12.0584444 C2.04547409,10.2058312 1.49133474,7.41993929 2.49369083,4.99950809 C3.49604692,2.57907689 5.85756149,1.0006242 8.47733334,1 Z M11.9238079,5.29645026 C11.1042081,3.83146391 9.44315743,3.05589455 7.82273495,3.42999856 C7.49985711,3.50454078 7.29854132,3.8267134 7.37308354,4.14959123 C7.44762577,4.47246907 7.76979838,4.67378486 8.09267621,4.59924264 C9.18342287,4.34742393 10.3128685,4.87477895 10.8765593,5.88234297 C11.0383491,6.1715327 11.4039402,6.27481074 11.6931299,6.11302094 C11.9823197,5.95123114 12.0855977,5.58563999 11.9238079,5.29645026 Z" id="形状结合"></path>
            </g>
        </g>
    </g>
</svg>