<?xml version="1.0" encoding="UTF-8"?>
<svg width="16px" height="16px" viewBox="0 0 16 16" version="1.1" xmlns="http://www.w3.org/2000/svg" xmlns:xlink="http://www.w3.org/1999/xlink">
    <title>7购物@2x</title>
    <g id="页面-1" stroke="none" stroke-width="1" fill="none" fill-rule="evenodd">
        <g id="添加-you备份" transform="translate(-14.000000, -419.000000)" fill="#CCCCCC" fill-rule="nonzero">
            <g id="编组-8" transform="translate(-1.000000, 0.000000)">
                <g id="编组-9" transform="translate(1.000000, 170.000000)">
                    <g id="购物" transform="translate(14.000000, 249.000000)">
                        <path d="M14.6104,12.8168 L13.8568,3.128 C13.7968,2.36 13.156,1.7672 12.3856,1.7672 L3.6936,1.7672 C2.9232,1.7672 2.2824,2.36 2.2224,3.128 L1.4688,12.8176 C1.4024,13.6752 2.08,14.4072 2.94,14.4072 L13.14,14.4072 C13.9992,14.4072 14.6768,13.6744 14.6104,12.8168 L14.6104,12.8168 Z M11.5464,4.9016 C11.5464,6.8352 9.9728,8.4088 8.0392,8.4088 C6.1056,8.4088 4.5328,6.8352 4.5328,4.9016 L4.5328,4.2632 C4.5328,4.0368 4.716,3.8536 4.9424,3.8536 C5.1688,3.8536 5.352,4.0368 5.352,4.2632 L5.352,4.9016 C5.352,6.3832 6.5576,7.5888 8.0392,7.5888 C9.5208,7.5888 10.7264,6.3832 10.7264,4.9016 L10.7264,4.2632 C10.7264,4.0368 10.9096,3.8536 11.136,3.8536 C11.3624,3.8536 11.5456,4.0368 11.5456,4.2632 L11.5456,4.9016 L11.5464,4.9016 Z" id="形状"></path>
                    </g>
                </g>
            </g>
        </g>
    </g>
</svg>