<?xml version="1.0" encoding="UTF-8"?>
<svg width="16px" height="16px" viewBox="0 0 16 16" version="1.1" xmlns="http://www.w3.org/2000/svg" xmlns:xlink="http://www.w3.org/1999/xlink">
    <title>8社交@2x</title>
    <g id="页面-1" stroke="none" stroke-width="1" fill="none" fill-rule="evenodd">
        <g id="添加-you备份" transform="translate(-14.000000, -457.000000)" fill="#CCCCCC" fill-rule="nonzero">
            <g id="编组-8" transform="translate(-1.000000, 0.000000)">
                <g id="编组-9" transform="translate(1.000000, 170.000000)">
                    <g id="社交APP" transform="translate(14.000000, 287.000000)">
                        <path d="M6.65928126,0.828124993 C3.43805469,0.828124993 0.828124993,3.14400782 0.828124993,6.00221094 C0.828124993,7.63381251 1.68263281,9.08548438 3.01512499,10.0366016 L3.01512499,12.6522266 L5.57021094,11.0807422 C5.93010167,11.1417212 6.29447196,11.1724147 6.65949218,11.1725 C9.88029686,11.1725 12.4906541,8.8566172 12.4906541,6.00305469 C12.4950781,3.14400782 9.88029688,0.828124993 6.65928126,0.828124993 Z M3.74560156,6.74196875 C3.44549492,6.74564764 3.17289057,6.56768839 3.05550629,6.29146663 C2.93812201,6.01524486 2.99921075,5.69547809 3.21015186,5.48198013 C3.42109296,5.26848216 3.74010054,5.20354538 4.01771647,5.31759329 C4.29533241,5.4316412 4.47656301,5.70208175 4.4765,6.00221094 C4.47790304,6.19730045 4.40163185,6.38493268 4.26451269,6.52371389 C4.12739353,6.66249509 3.94069382,6.7410213 3.74560156,6.74196875 L3.74560156,6.74196875 Z M6.65928126,6.74196875 C6.30889675,6.74420843 6.00572017,6.49863491 5.93515205,6.15542294 C5.86458393,5.81221096 6.04627707,5.46694295 6.36912127,5.33075948 C6.69196547,5.19457601 7.06605062,5.30540333 7.2626137,5.59546759 C7.45917677,5.88553185 7.42347617,6.27405194 7.17734375,6.52343749 C7.04033614,6.66228701 6.85371039,6.74091421 6.65864844,6.74196875 L6.65928126,6.74196875 Z M9.57675781,6.74197786 C9.22646933,6.74370195 8.92370458,6.49782708 8.85352902,6.15463558 C8.78335347,5.81144407 8.96529898,5.46645599 9.28815106,5.33054589 C9.61100313,5.19463579 9.98490276,5.30563136 10.1813031,5.59568636 C10.3777035,5.88574137 10.3419408,6.27412517 10.095875,6.52343749 C9.95872443,6.66233136 9.77195197,6.74095642 9.57675781,6.74197786 L9.57675781,6.74197786 Z M13.3725781,5.24874219 L13.3955703,5.61640626 C13.4004219,5.96529689 13.3955703,5.93281251 13.3955703,6.25491407 C13.3955703,9.64615626 10.7588516,11.9943125 7.09592188,11.9943125 L5.83641406,11.9943125 C6.83836719,12.9823438 8.00084376,13.5887891 9.61367187,13.5887891 C9.95105182,13.5880149 10.2877693,13.5588732 10.6202656,13.5016719 L12.9730625,14.9674766 L12.9730625,12.5543516 C14.2505,11.6684141 15.0727344,10.2937344 15.0727344,8.74967187 C15.0538644,7.38798406 14.4309565,6.10507206 13.3725781,5.24810938 L13.3725781,5.24874219 Z" id="形状"></path>
                    </g>
                </g>
            </g>
        </g>
    </g>
</svg>