<?xml version="1.0" encoding="UTF-8"?>
<svg width="16px" height="16px" viewBox="0 0 16 16" version="1.1" xmlns="http://www.w3.org/2000/svg" xmlns:xlink="http://www.w3.org/1999/xlink">
    <title>9旅行@2x</title>
    <g id="页面-1" stroke="none" stroke-width="1" fill="none" fill-rule="evenodd">
        <g id="添加-you备份" transform="translate(-14.000000, -495.000000)" fill="#CCCCCC" fill-rule="nonzero">
            <g id="编组-8" transform="translate(-1.000000, 0.000000)">
                <g id="编组-9" transform="translate(1.000000, 170.000000)">
                    <g id="旅行" transform="translate(14.000000, 325.000000)">
                        <path d="M1.756656,8.028224 L0.58744,10.828384 L2.07688,10.820928 L3.745056,9.056016 L6.560032,9.056016 L5.353664,15.013088 L6.746208,15.00672 L10.142128,9.152752 L14.334848,9.12304 C14.908368,9.118944 15.190352,8.85456 15.340224,8.564432 C15.421216,8.407648 15.474272,8.221936 15.481712,8.005968 C15.466832,7.812336 15.41912,7.631344 15.332848,7.46976 C15.18832,7.199264 14.893456,6.933552 14.320032,6.933552 L10.127248,6.933552 L6.738768,0.990768 L5.249488,0.998192 L7.208096,6.955984 L3.72272,6.9708 L2.039728,5.23568 L0.542832,5.24304 L1.756656,8.028224 Z" id="路径"></path>
                    </g>
                </g>
            </g>
        </g>
    </g>
</svg>