<?xml version="1.0" encoding="UTF-8"?>
<svg width="16px" height="16px" viewBox="0 0 16 16" version="1.1" xmlns="http://www.w3.org/2000/svg" xmlns:xlink="http://www.w3.org/1999/xlink">
    <title>13科技@2x</title>
    <g id="页面-1" stroke="none" stroke-width="1" fill="none" fill-rule="evenodd">
        <g id="添加-you备份" transform="translate(-14.000000, -647.000000)" fill="#CCCCCC" fill-rule="nonzero">
            <g id="编组-8" transform="translate(-1.000000, 0.000000)">
                <g id="编组-9" transform="translate(1.000000, 170.000000)">
                    <g id="科技" transform="translate(14.000000, 477.000000)">
                        <path d="M1.75075,14.125 C3.45875,15.833875 7.614125,14.44875 11.031,11.031 C14.44875,7.615 15.833875,3.45875 14.125,1.75075 C12.416125,0.041875 8.261625,1.427 4.843875,4.843875 C1.427,8.2625 0.041875,12.416125 1.75075,14.125 Z M2.617,13.25875 C1.5495,12.19125 2.710625,8.7105 5.710125,5.710125 C8.7105,2.710625 12.192125,1.5495 13.25875,2.617 C14.32625,3.6845 13.165125,7.16525 10.165625,10.165625 C7.164375,13.165125 3.683625,14.325375 2.617,13.25875 L2.617,13.25875 Z" id="形状"></path>
                        <path d="M14.125,14.125 C15.833875,12.416125 14.44875,8.261625 11.031,4.843875 C7.615,1.427 3.45875,0.041875 1.75075,1.75075 C0.041875,3.45875 1.427,7.614125 4.843875,11.031 C8.2625,14.44875 12.416125,15.833875 14.125,14.125 Z M13.25875,13.25875 C12.19125,14.32625 8.7105,13.165125 5.710125,10.165625 C2.710625,7.164375 1.5495,3.683625 2.617,2.617 C3.6845,1.5495 7.16525,2.710625 10.165625,5.710125 C13.165125,8.7105 14.325375,12.192125 13.25875,13.25875 L13.25875,13.25875 Z" id="形状"></path>
                        <path d="M6.25,8 C6.25,8.96649831 7.03350169,9.75 8,9.75 C8.96649831,9.75 9.75,8.96649831 9.75,8 C9.75,7.03350169 8.96649831,6.25 8,6.25 C7.03350169,6.25 6.25,7.03350169 6.25,8 Z" id="路径"></path>
                    </g>
                </g>
            </g>
        </g>
    </g>
</svg>