<?xml version="1.0" encoding="UTF-8"?>
<svg width="16px" height="16px" viewBox="0 0 16 16" version="1.1" xmlns="http://www.w3.org/2000/svg" xmlns:xlink="http://www.w3.org/1999/xlink">
    <title>感叹号</title>
    <g id="定稿" stroke="none" stroke-width="1" fill="none" fill-rule="evenodd">
        <g id="我的_备份与恢复_弹窗" transform="translate(-50.000000, -627.000000)" fill-rule="nonzero">
            <g id="感叹号" transform="translate(50.000000, 627.000000)">
                <rect id="矩形" fill="#000000" opacity="0" x="0" y="0" width="16" height="16"></rect>
                <path d="M8,1 C4.134375,1 1,4.134375 1,8 C1,11.865625 4.134375,15 8,15 C11.865625,15 15,11.865625 15,8 C15,4.134375 11.865625,1 8,1 Z M8,13.8125 C4.790625,13.8125 2.1875,11.209375 2.1875,8 C2.1875,4.790625 4.790625,2.1875 8,2.1875 C11.209375,2.1875 13.8125,4.790625 13.8125,8 C13.8125,11.209375 11.209375,13.8125 8,13.8125 Z M7.25,10.75 C7.25,11.1642136 7.58578644,11.5 8,11.5 C8.41421356,11.5 8.75,11.1642136 8.75,10.75 C8.75,10.3357864 8.41421356,10 8,10 C7.58578644,10 7.25,10.3357864 7.25,10.75 Z M7.625,9 L8.375,9 C8.44375,9 8.5,8.94375 8.5,8.875 L8.5,4.625 C8.5,4.55625 8.44375,4.5 8.375,4.5 L7.625,4.5 C7.55625,4.5 7.5,4.55625 7.5,4.625 L7.5,8.875 C7.5,8.94375 7.55625,9 7.625,9 Z" id="形状" fill="#FF3838"></path>
            </g>
        </g>
    </g>
</svg>