<?xml version="1.0" encoding="UTF-8"?>
<svg width="54px" height="37px" viewBox="0 0 54 37" version="1.1" xmlns="http://www.w3.org/2000/svg" xmlns:xlink="http://www.w3.org/1999/xlink">
    <!-- Generator: Sketch 58 (84663) - https://sketch.com -->
    <title>australia-flag</title>
    <desc>Created with Sketch.</desc>
    <g id="Page-1" stroke="none" stroke-width="1" fill="none" fill-rule="evenodd">
        <g id="Desktop-Checkout-Page1" transform="translate(-266.000000, -3138.000000)" fill-rule="nonzero">
            <g id="Location-Copy-9" transform="translate(250.000000, 3112.000000)">
                <g id="australia-flag" transform="translate(16.000000, 26.000000)">
                    <rect id="Rectangle" fill="#0052B4" x="0" y="0.0351210937" width="54" height="36.0003867"></rect>
                    <g id="Group" fill="#F0F0F0">
                        <path d="M23.5614023,18.0347344 C23.5901953,18.0026719 23.6186719,17.9705039 23.6471484,17.938125 C23.6186719,17.9706094 23.5895625,18.0024609 23.5606641,18.0347344 L23.5614023,18.0347344 Z" id="Path"></path>
                        <polygon id="Path" points="19.9564805 22.4567227 21.112207 24.8733281 23.7222422 24.2702578 22.553332 26.6805352 24.6521602 28.3449375 22.0390664 28.9339805 22.0463437 31.6126758 19.9564805 29.9367773 17.8667227 31.6126758 17.874 28.9339805 15.2609062 28.3449375 17.3597344 26.6805352 16.1908242 24.2702578 18.8007539 24.8733281"></polygon>
                        <polygon id="Path" points="40.8244219 25.4587852 41.375707 26.6114531 42.6205547 26.3237344 42.0630469 27.4733437 43.0641563 28.2673125 41.8177266 28.5481758 41.8211016 29.8258242 40.8244219 29.026582 39.8277422 29.8258242 39.8311172 28.5481758 38.584793 28.2673125 39.5857969 27.4733437 39.0283945 26.3237344 40.2732422 26.6114531"></polygon>
                        <polygon id="Path" points="35.6962148 13.2308438 36.2475 14.3836172 37.4923477 14.095793 36.9348398 15.2455078 37.9358438 16.0394766 36.6895195 16.3203398 36.6928945 17.5980938 35.6962148 16.7986406 34.6994297 17.5980938 34.7029102 16.3203398 33.4564805 16.0394766 34.4574844 15.2455078 33.9001875 14.095793 35.1449297 14.3836172"></polygon>
                        <polygon id="Path" points="40.8244219 6.24353906 41.375707 7.3963125 42.6205547 7.10838281 42.0630469 8.25820313 43.0640508 9.05206641 41.8177266 9.33303516 41.8211016 10.6106836 40.8244219 9.81123047 39.8277422 10.6106836 39.8311172 9.33303516 38.584793 9.05206641 39.5857969 8.25820313 39.0283945 7.10838281 40.2732422 7.3963125"></polygon>
                        <polygon id="Path" points="45.3037852 11.4840703 45.8550703 12.6367383 47.0998125 12.3490195 46.5425156 13.4986289 47.5435195 14.2924922 46.2970898 14.5734609 46.3005703 15.8511094 45.3037852 15.0518672 44.3071055 15.8511094 44.3104805 14.5734609 43.0641563 14.2924922 44.0651602 13.4986289 43.5076523 12.3490195 44.7525 12.6367383"></polygon>
                        <polygon id="Path" points="42.1009102 17.5980938 42.5343867 18.9324844 43.937543 18.9324844 42.8023828 19.75725 43.2360703 21.0916406 42.1009102 20.2669805 40.9655391 21.0916406 41.3992266 19.75725 40.2640664 18.9324844 41.6672227 18.9324844"></polygon>
                        <polygon id="Path" points="27 0.0351210937 27 3.25750781 22.236293 5.90466797 27 5.90466797 27 12.1651875 20.7664805 12.1651875 27 15.6282539 27 18.0347344 24.1860937 18.0347344 16.4347734 13.7288672 16.4347734 18.0347344 10.5652266 18.0347344 10.5652266 12.9118008 1.34409375 18.0347344 0 18.0347344 0 14.8123477 4.76370703 12.1651875 0 12.1651875 0 5.90466797 6.23351953 5.90466797 0 2.44044141 0 0.0351210937 2.81390625 0.0351210937 10.5652266 4.34109375 10.5652266 0.0351210937 16.4347734 0.0351210937 16.4347734 5.15805469 25.6559063 0.0351210937"></polygon>
                    </g>
                    <polygon id="Path" fill="#D80027" points="15.1875 0.0348046875 11.8125 0.0348046875 11.8125 7.34716406 0 7.34716406 0 10.7221641 11.8125 10.7221641 11.8125 18.0347344 15.1875 18.0347344 15.1875 10.7221641 27 10.7221641 27 7.34716406 15.1875 7.34716406"></polygon>
                    <polygon id="Path" fill="#0052B4" points="16.4347734 12.1651875 27 18.0347344 27 16.3749727 19.4223867 12.1651875"></polygon>
                    <polygon id="Path" fill="#F0F0F0" points="16.4347734 12.1651875 27 18.0347344 27 16.3749727 19.4223867 12.1651875"></polygon>
                    <g id="Group" transform="translate(0.000000, 12.128906)" fill="#D80027">
                        <polygon id="Path" points="16.4347734 0.03628125 27 5.90582813 27 4.24606641 19.4223867 0.03628125"></polygon>
                        <polygon id="Path" points="7.57750781 0.03628125 0 4.24606641 0 5.90582813 0 5.90582813 10.5652266 0.03628125"></polygon>
                    </g>
                    <polygon id="Path" fill="#0052B4" points="10.5652266 5.90435156 0 0.0348046875 0 1.69456641 7.57761328 5.90435156"></polygon>
                    <polygon id="Path" fill="#F0F0F0" points="10.5652266 5.90435156 0 0.0348046875 0 1.69456641 7.57761328 5.90435156"></polygon>
                    <g id="Group" fill="#D80027">
                        <polygon id="Path" points="10.5652266 5.90435156 0 0.0348046875 0 1.69456641 7.57761328 5.90435156"></polygon>
                        <polygon id="Path" points="19.4224922 5.90435156 27 1.69456641 27 0.0348046875 27 0.0348046875 16.4347734 5.90435156"></polygon>
                    </g>
                </g>
            </g>
        </g>
    </g>
</svg>