<?xml version="1.0" encoding="UTF-8"?>
<svg width="54px" height="35px" viewBox="0 0 54 35" version="1.1" xmlns="http://www.w3.org/2000/svg" xmlns:xlink="http://www.w3.org/1999/xlink">
    <!-- Generator: Sketch 58 (84663) - https://sketch.com -->
    <title>ch-flag</title>
    <desc>Created with Sketch.</desc>
    <g id="Page-1" stroke="none" stroke-width="1" fill="none" fill-rule="evenodd">
        <g id="Desktop-Checkout-Page1" transform="translate(-264.000000, -1262.000000)" fill-rule="nonzero">
            <g id="Location-Copy-6" transform="translate(248.000000, 1235.000000)">
                <g id="ch-flag" transform="translate(16.000000, 27.000000)">
                    <path d="M52.924375,34.970844 L0.928958333,34.970844 C0.418889014,34.9732571 0.00321238087,34.5621483 0,34.0520833 L0,0.947916667 C0,0.440416667 0.415625,0.0291666667 0.928958333,0.0291666667 L52.9229167,0.0291666667 C53.43625,0.0291666667 53.851875,0.440416667 53.851875,0.947916667 L53.851875,34.0520833 C53.851875,34.5595833 53.43625,34.970844 52.9229167,34.970844 L52.924375,34.970844 Z" id="Path" fill="#FF4B55"></path>
                    <path d="M37.139375,13.8220833 L30.6410417,13.8220833 L30.6410417,7.385 C30.6378293,6.87493504 30.2221527,6.46382628 29.7120833,6.46623934 L24.14125,6.46623934 C23.6311807,6.46382628 23.215504,6.87493504 23.2122917,7.385 L23.2122917,13.8220833 L16.7125,13.8220833 C16.202999,13.8204659 15.788212,14.2313399 15.785,14.7408333 L15.785,20.2591667 C15.785,20.7666667 16.200625,21.1779167 16.7125,21.1779167 L23.2122917,21.1779167 L23.2122917,27.615 C23.2122917,28.1225 23.6279167,28.5337607 24.14125,28.5337607 L29.7120833,28.5337607 C30.2221527,28.5361737 30.6378293,28.125065 30.6410417,27.615 L30.6410417,21.1779167 L37.139375,21.1779167 C37.6494443,21.1803404 38.065121,20.7692316 38.0683333,20.2591667 L38.0683333,14.7408333 C38.065121,14.2307684 37.6494443,13.8196596 37.139375,13.8220833 L37.139375,13.8220833 Z" id="Path" fill="#F5F5F5"></path>
                </g>
            </g>
        </g>
    </g>
</svg>