<?xml version="1.0" encoding="UTF-8"?>
<svg width="54px" height="36px" viewBox="0 0 54 36" version="1.1" xmlns="http://www.w3.org/2000/svg" xmlns:xlink="http://www.w3.org/1999/xlink">
    <!-- Generator: Sketch 58 (84663) - https://sketch.com -->
    <title>hong-kong</title>
    <desc>Created with Sketch.</desc>
    <g id="Page-1" stroke="none" stroke-width="1" fill="none" fill-rule="evenodd">
        <g id="hong-kong" fill-rule="nonzero">
            <path d="M52.9654737,35.3394737 L0.929263158,35.3394737 C0.416105263,35.3394737 0,34.9233684 0,34.4102105 L0,0.958315789 C0,0.445157895 0.416105263,0.0290526316 0.929263158,0.0290526316 L52.9655789,0.0290526316 C53.4787368,0.0290526316 53.8948421,0.445157895 53.8948421,0.958315789 L53.8948421,34.4102105 C53.8948421,34.9234737 53.4786316,35.3394737 52.9654737,35.3394737 Z" id="Path" fill="#FF4B55"></path>
            <g id="Group" transform="translate(15.789474, 6.526316)" fill="#F5F5F5">
                <path d="M7.83968421,12.5182105 C6.66831579,12.5303158 5.35294737,12.1551579 4.20042105,10.8847368 C4.12094737,10.7971579 4.13210526,10.6591579 4.22242105,10.5826316 L4.22273684,10.5823158 C4.31031579,10.5081053 4.43978947,10.5195789 4.51715789,10.6045263 C6.274,12.5336842 8.45147368,12.1958947 9.75242105,11.7297895 C9.27178947,11.7511579 8.66789474,11.7150526 8.27947368,11.4597895 C6.65684211,10.3931579 7.39178947,9.25842105 6.31410526,7.88673684 C5.24326316,6.52378947 4.27968421,6.55715789 2.76242105,6.78715789 C1.26031579,7.01473684 0.781789474,5.91294737 0.632842105,5.30147368 C0.606210526,5.19189474 0.453368421,5.18505263 0.414210526,5.29063158 C-1.458,10.3489474 4.17147368,16.6078947 9.95115789,12.1075789 C9.38084211,12.3175789 8.64631579,12.51 7.83968421,12.5182105 Z M3.62210526,10.8016842 C3.58926316,10.892 3.46031579,10.8884211 3.43242105,10.7964211 L3.21684211,10.086 L2.47484211,10.06 C2.37873684,10.0566316 2.34231579,9.93294737 2.42115789,9.878 L3.03021053,9.45347368 L2.82568421,8.73968421 C2.79915789,8.64736842 2.90557895,8.57442105 2.98221053,8.63231579 L3.57421053,9.08031579 L4.18978947,8.66515789 C4.26947368,8.61136842 4.37178947,8.69 4.34021053,8.78084211 L4.09705263,9.48231579 L4.68210526,9.93947368 C4.75778947,9.99873684 4.71463158,10.1202105 4.61852632,10.1183158 L3.87621053,10.1037895 L3.62210526,10.8016842 Z" id="Shape"></path>
                <path d="M11.9862105,9.15747368 C12.9163158,8.44536842 14.1937895,7.95673684 15.878,8.282 C15.9941053,8.30442105 16.068,8.42147368 16.0416842,8.53684211 L16.0415789,8.53726316 C16.016,8.64926316 15.9054737,8.71768421 15.7926316,8.696 C13.2298947,8.20578947 11.6898947,9.782 10.9285263,10.9351579 C11.3003158,10.6297895 11.8052632,10.2965263 12.2691579,10.268 C14.2072632,10.1483158 14.2995789,11.4972632 15.9847368,11.9485263 C17.6589474,12.3968421 18.41,11.7924211 19.4864211,10.6984211 C20.5518947,9.61536842 21.5956842,10.2101053 22.0814737,10.6101053 C22.1684211,10.6817895 22.2948421,10.5956842 22.2628421,10.4876842 C20.7274737,5.31715789 12.4689474,3.68484211 10.5429474,10.7522105 C10.8731579,10.2424211 11.3456842,9.64789474 11.9862105,9.15747368 Z M16.3906316,8.00178947 C16.3627368,7.90978947 16.4681053,7.83526316 16.5455789,7.89210526 L17.1441053,8.33126316 L17.7534737,7.90705263 C17.8323158,7.85210526 17.9356842,7.92926316 17.9056842,8.02052632 L17.6729474,8.72557895 L18.2646316,9.174 C18.3412632,9.23210526 18.2997895,9.35431579 18.2037895,9.35378947 L17.4613684,9.35031579 L17.2177895,10.0516842 C17.1862105,10.1425263 17.0572632,10.1408421 17.028,10.0493684 L16.8018947,9.34221053 L16.0595789,9.32726316 C15.9634737,9.32526316 15.9251579,9.20221053 16.0032632,9.14610526 L16.606,8.71252632 L16.3906316,8.00178947 Z" id="Shape"></path>
                <path d="M8.88410526,9.64494737 C8.42726316,8.56621053 8.27357895,7.20715789 9.00989474,5.65789474 C9.06063158,5.55105263 9.19252632,5.50884211 9.29757895,5.56326316 L9.298,5.56347368 C9.4,5.61621053 9.43852632,5.74042105 9.38957895,5.84421053 C8.27389474,8.20294737 9.41494737,10.0882105 10.3409474,11.1137895 C10.1382105,10.6773684 9.942,10.1052632 10.0302105,9.64884211 C10.3991579,7.74242105 11.7282105,7.99031579 12.5866316,6.47157895 C13.4395789,4.96263158 13.0421053,4.08431579 12.2521053,2.76863158 C11.47,1.46610526 12.3069474,0.604315789 12.8157895,0.234 C12.9068421,0.167684211 12.8551579,0.0237894737 12.7426316,0.0277077685 C7.35242105,0.221157895 3.70631579,7.80884211 10.0672632,11.4412632 C9.65621053,10.9938947 9.19873684,10.3877895 8.88410526,9.64494737 Z M8.86673684,5.09147368 C8.77063158,5.09547368 8.72494737,4.97484211 8.79936842,4.91410526 L9.37431579,4.44442105 L9.116,3.74831579 C9.08252632,3.65821053 9.18315789,3.57736842 9.26389474,3.62936842 L9.88831579,4.03105263 L10.4704211,3.57031579 C10.5457895,3.51063158 10.6536842,3.58126316 10.6291579,3.67431579 L10.4401053,4.39221053 L11.0581053,4.80347368 C11.1381053,4.85673684 11.1043158,4.98115789 11.0084211,4.98663158 L10.2671579,5.02863158 L10.0670526,5.74357895 C10.0411579,5.83610526 9.91231579,5.84242105 9.87747368,5.75284211 L9.60842105,5.06094737 L8.86673684,5.09147368 Z" id="Shape"></path>
                <path d="M13.0838947,12.0926316 C14.0521053,12.752 14.9173684,13.8113684 15.1373684,15.5125263 C15.1526316,15.6298947 15.0645263,15.7367368 14.9467368,15.748 L14.9461053,15.748 C14.8317895,15.7589474 14.7321053,15.6753684 14.7171579,15.5615789 C14.3776842,12.9745263 12.3974737,12.0075789 11.0634737,11.6468421 C11.4701053,11.9038947 11.9450526,12.2786316 12.118,12.7101053 C12.8403158,14.5125263 11.5887368,15.024 11.6894737,16.7655789 C11.7895789,18.4958947 12.5995789,19.0190526 13.9762105,19.6973684 C15.3390526,20.3688421 15.1023158,21.5464211 14.8749474,22.1334737 C14.8343158,22.2386316 14.9556842,22.3314737 15.0481053,22.2671579 C19.4746316,19.1854737 18.4306316,10.8323158 11.116,11.2234737 C11.7045263,11.3768421 12.4172632,11.6386316 13.0838947,12.0926316 Z M15.5646316,15.9111579 C15.6432632,15.8557895 15.7469474,15.9324211 15.7173684,16.0237895 L15.4884211,16.73 L16.0825263,17.1753684 C16.1593684,17.2329474 16.1187368,17.3553684 16.0226316,17.3554737 L15.2802105,17.3558947 L15.0403158,18.0585263 C15.0092632,18.1494737 14.8802105,18.1485263 14.8505263,18.0571579 L14.6206316,17.3511579 L13.8783158,17.3401053 C13.7821053,17.3387368 13.7432632,17.2156842 13.8209474,17.1591579 L14.4213684,16.7223158 L14.2024211,16.0128421 C14.1741053,15.9209474 14.2789474,15.8458947 14.3567368,15.9024211 L14.9576842,16.3384211 L15.5646316,15.9111579 Z" id="Shape"></path>
                <path d="M10.6623158,14.1918947 C10.3288421,15.3148421 9.58294737,16.4613684 8.02936842,17.1886316 C7.92221053,17.2388421 7.79368421,17.1874737 7.74715789,17.0787368 L7.74694737,17.0783158 C7.70178947,16.9727368 7.75105263,16.8524211 7.85484211,16.8034737 C10.2158947,15.6928421 10.5345263,13.5124211 10.4722105,12.1318947 C10.3510526,12.5975789 10.1386316,13.1638947 9.78031579,13.46 C8.28315789,14.6965263 7.41505263,13.6598947 5.78673684,14.2858947 C4.16884211,14.9077895 3.91694737,15.8385263 3.68968421,17.3563158 C3.46484211,18.8588421 2.27084211,18.9915789 1.64263158,18.9537895 C1.53021053,18.9470526 1.47852632,19.0909474 1.56789474,19.1594737 C5.85042105,22.4384211 13.4897895,18.9022105 10.8914737,12.0534737 C10.9245263,12.66 10.892,13.4185263 10.6623158,14.1918947 Z M7.77957895,17.7167368 C7.85621053,17.7748421 7.81484211,17.8968421 7.71873684,17.8965263 L6.97642105,17.8932632 L6.73305263,18.5947368 C6.70157895,18.6855789 6.57252632,18.6838947 6.54326316,18.5924211 L6.31684211,17.8852632 L5.57452632,17.8705263 C5.47842105,17.8686316 5.44,17.7454737 5.51810526,17.6893684 L6.12063158,17.2555789 L5.90526316,16.5450526 C5.87736842,16.4530526 5.98263158,16.3785263 6.06010526,16.4353684 L6.65884211,16.8743158 L7.26810526,16.4498947 C7.34694737,16.3949474 7.45031579,16.4721053 7.42031579,16.5633684 L7.18789474,17.2684211 L7.77957895,17.7167368 Z" id="Shape"></path>
            </g>
        </g>
    </g>
</svg>