<?xml version="1.0" encoding="UTF-8"?>
<svg width="54px" height="35px" viewBox="0 0 54 35" version="1.1" xmlns="http://www.w3.org/2000/svg" xmlns:xlink="http://www.w3.org/1999/xlink">
    <!-- Generator: Sketch 58 (84663) - https://sketch.com -->
    <title>sg-flag</title>
    <desc>Created with Sketch.</desc>
    <g id="Page-1" stroke="none" stroke-width="1" fill="none" fill-rule="evenodd">
        <g id="Desktop-Checkout-Page1" transform="translate(-583.000000, -1143.000000)" fill-rule="nonzero">
            <g id="Location-Copy-4" transform="translate(567.000000, 1115.000000)">
                <g id="sg-flag" transform="translate(16.000000, 28.000000)">
                    <path d="M53.6669896,17.4394464 L0,17.4394464 L0,0.944636678 C0,0.438892734 0.414186851,0.0290657439 0.925743945,0.0290657439 L52.7397924,0.0290657439 C53.2513495,0.0290657439 53.6655363,0.438892734 53.6655363,0.944636678 L53.6655363,17.4394464 L53.6669896,17.4394464 Z" id="Path" fill="#FF4B55"></path>
                    <g id="Group" transform="translate(0.000000, 1.453287)" fill="#F5F5F5">
                        <path d="M0,15.9861592 L53.6669896,15.9861592 L53.6669896,32.4809689 C53.6669896,32.9867128 53.2528028,33.3965504 52.7412457,33.3965504 L0.925743945,33.3965504 C0.417439571,33.3989551 0.00320126537,32.9892689 0,32.4809689 L0,15.9861592 Z M7.60650519,7.29404844 C7.60650519,4.2799308 9.83875433,1.78318339 12.7540484,1.32103806 C12.8232258,1.3138947 12.8765786,1.25689506 12.879139,1.18739698 C12.8816995,1.11789891 12.8326857,1.05712787 12.7642215,1.04491349 C12.0151784,0.873001745 11.2412756,0.837555815 10.479654,0.940276817 C7.33474048,1.36463668 4.90484429,4.05903114 4.85979239,7.20103806 C4.80892734,10.7906574 7.7300346,13.7117647 11.3356401,13.7117647 C11.8268512,13.7117647 12.3035294,13.6536332 12.7627682,13.5504498 C12.8279486,13.5347111 12.8730221,13.4752373 12.8705534,13.4082291 C12.8680847,13.3412209 12.818757,13.2852251 12.7525952,13.2743253 C9.83875433,12.8107266 7.60650519,10.3183391 7.60650519,7.29259516 L7.60650519,7.29404844 Z" id="Shape"></path>
                        <path d="M12.8034602,8.90574394 L12.5273356,9.71958478 L11.6626298,9.72685121 C11.5507266,9.72685121 11.5042215,9.86927336 11.5943253,9.93467128 L12.2919031,10.4433218 L12.0303114,11.2615225 C11.9954325,11.3676125 12.1175087,11.4548097 12.2090657,11.3908651 L12.9124567,10.8923875 L13.617301,11.3908651 C13.7088581,11.4548097 13.8309343,11.3676125 13.7960554,11.2600692 L13.5344637,10.4433218 L14.2320415,9.93467128 C14.3221453,9.86927336 14.2756401,9.72685121 14.163737,9.72685121 L13.2975779,9.71958478 L13.0243599,8.90574394 C12.9880277,8.80110727 12.8383391,8.80110727 12.8020069,8.90574394 L12.8034602,8.90574394 Z M17.0819377,8.90574394 L16.8072664,9.71958478 L15.9425606,9.72685121 C15.8306574,9.72685121 15.782699,9.86927336 15.8742561,9.93467128 L16.5703806,10.4433218 L16.3087889,11.2615225 C16.2753633,11.3676125 16.3959862,11.4548097 16.4875433,11.3908651 L17.1923875,10.8923875 L17.8972318,11.3908651 C17.9381051,11.4206582 17.9935508,11.4206077 18.0343698,11.3907402 C18.0751887,11.3608727 18.0920145,11.3080416 18.0759862,11.2600692 L17.8143945,10.4433218 L18.5119723,9.93467128 C18.6020761,9.86927336 18.5555709,9.72685121 18.4422145,9.72685121 L17.5775087,9.71958478 L17.3028374,8.90574394 C17.2679585,8.80110727 17.1168166,8.80110727 17.0819377,8.90574394 L17.0819377,8.90574394 Z M14.9615917,2.36595156 L14.6869204,3.17979239 L13.8222145,3.18560554 C13.7724376,3.18622269 13.728577,3.21846169 13.7131311,3.2657855 C13.6976851,3.3131093 13.7140816,3.36501556 13.75391,3.39487889 L14.4500346,3.90352941 L14.1884429,4.7217301 C14.1550173,4.82636678 14.2756401,4.9150173 14.3671972,4.84961938 L15.0720415,4.35114187 L15.7768858,4.84961938 C15.8684429,4.9150173 15.9890657,4.82636678 15.9556401,4.7217301 L15.6940484,3.90352941 L16.3916263,3.39487889 C16.4817301,3.32802768 16.4352249,3.18705882 16.3218685,3.18560554 L15.4571626,3.17979239 L15.1824913,2.36595156 C15.1668094,2.31824019 15.122264,2.28599168 15.0720415,2.28599168 C15.021819,2.28599168 14.9772737,2.31824019 14.9615917,2.36595156 L14.9615917,2.36595156 Z M11.5492734,4.87141869 L11.2760554,5.68525952 L10.4098962,5.69107266 C10.3601193,5.69168982 10.3162587,5.72392882 10.3008127,5.77125263 C10.2853668,5.81857643 10.3017633,5.87048269 10.3415917,5.90034602 L11.0391696,6.40899654 L10.7775779,7.22719723 C10.742699,7.3332872 10.8647751,7.42048443 10.9563322,7.35508651 L11.6597232,6.856609 L12.3645675,7.35508651 C12.4561246,7.42048443 12.5767474,7.3332872 12.5433218,7.22719723 L12.2817301,6.40899654 L12.979308,5.90034602 C13.0191364,5.87048269 13.0355329,5.81857643 13.0200869,5.77125263 C13.004641,5.72392882 12.9607804,5.69168982 12.9110035,5.69107266 L12.0448443,5.68525952 L11.770173,4.87141869 C11.7352941,4.76678201 11.5856055,4.76678201 11.5492734,4.87141869 L11.5492734,4.87141869 Z M18.3448443,4.87141869 L18.070173,5.68525952 L17.2054671,5.69107266 C17.1556902,5.69168982 17.1118296,5.72392882 17.0963837,5.77125263 C17.0809377,5.81857643 17.0973342,5.87048269 17.1371626,5.90034602 L17.8332872,6.40899654 L17.5716955,7.22719723 C17.5382699,7.3332872 17.6588927,7.42048443 17.7504498,7.35508651 L18.4552941,6.856609 L19.1601384,7.35508651 C19.2502422,7.42048443 19.3723183,7.3332872 19.3388927,7.22719723 L19.077301,6.40899654 L19.7748789,5.90034602 C19.8149134,5.87032015 19.8312429,5.81804513 19.8154179,5.77057006 C19.7995928,5.72309499 19.7551642,5.69107266 19.7051211,5.69107266 L18.8404152,5.68525952 L18.5657439,4.87141869 C18.5308651,4.76678201 18.3797232,4.76678201 18.3448443,4.87141869 L18.3448443,4.87141869 Z" id="Shape"></path>
                    </g>
                </g>
            </g>
        </g>
    </g>
</svg>