<?xml version="1.0" encoding="UTF-8"?>
<svg width="54px" height="35px" viewBox="0 0 54 35" version="1.1" xmlns="http://www.w3.org/2000/svg" xmlns:xlink="http://www.w3.org/1999/xlink">
    <!-- Generator: Sketch 58 (84663) - https://sketch.com -->
    <title>uk-flag</title>
    <desc>Created with Sketch.</desc>
    <g id="Page-1" stroke="none" stroke-width="1" fill="none" fill-rule="evenodd">
        <g id="Desktop-Checkout-Page1" transform="translate(-904.000000, -1022.000000)" fill-rule="nonzero">
            <g id="Location-Copy-2" transform="translate(888.000000, 995.000000)">
                <g id="uk-flag" transform="translate(16.000000, 27.000000)">
                    <path d="M52.924375,34.970844 L0.928958333,34.970844 C0.418889014,34.9732571 0.00321238087,34.5621483 0,34.0520833 L0,0.947916667 C0,0.440416667 0.415625,0.0291666667 0.928958333,0.0291666667 L52.9229167,0.0291666667 C53.43625,0.0291666667 53.851875,0.440416667 53.851875,0.947916667 L53.851875,34.0520833 C53.851875,34.5595833 53.43625,34.970844 52.9229167,34.970844 L52.924375,34.970844 Z" id="Path" fill="#41479B"></path>
                    <path d="M53.8533333,0.947916667 C53.850121,0.437851704 53.4344443,0.0267429465 52.924375,0.0291560046 L48.7710417,0.0291560046 L31.5685417,11.1897917 L31.5685417,0.0291560046 L22.2833333,0.0291560046 L22.2833333,11.1897917 L5.08229167,0.0291560046 L0.928958333,0.0291560046 C0.418889014,0.0267429465 0.00321238087,0.437851704 0,0.947916667 L0,3.32645833 L14.7583333,12.901875 L0,12.901875 L0,22.098125 L14.7583333,22.098125 L0,31.6735417 L0,34.050625 C0,34.5595833 0.415625,34.970844 0.928958333,34.970844 L5.08229167,34.970844 L22.2847917,23.8102083 L22.2847917,34.970844 L31.5685417,34.970844 L31.5685417,23.8102083 L48.7710417,34.970844 L52.924375,34.970844 C53.4344443,34.9732571 53.850121,34.5621483 53.8533333,34.0520833 L53.8533333,31.6735417 L39.095,22.098125 L53.8533333,22.098125 L53.8533333,12.901875 L39.095,12.901875 L53.8533333,3.32645833 L53.8533333,0.949375 L53.8533333,0.947916667 Z" id="Path" fill="#F5F5F5"></path>
                    <g id="Group" fill="#FF4B55">
                        <polygon id="Path" points="53.8533333 14.7408333 29.7120833 14.7408333 29.7120833 0.0291666667 24.14125 0.0291666667 24.14125 14.7408333 0 14.7408333 0 20.2591667 24.14125 20.2591667 24.14125 34.9708333 29.7120833 34.9708333 29.7120833 20.2591667 53.8533333 20.2591667"></polygon>
                        <path d="M18.8227083,22.098125 L0.02625,34.1804167 C0.0880476145,34.6320778 0.473091954,34.9692249 0.928958333,34.9708333 L2.20791667,34.9708333 L22.2322917,22.098125 L18.8227083,22.098125 Z M36.4335417,22.098125 L33.0225,22.098125 L53.0191667,34.951875 C53.4870538,34.9107081 53.8476497,34.5217436 53.8533333,34.0520833 L53.8533333,33.2952083 L36.4335417,22.098125 L36.4335417,22.098125 Z M0,1.96291667 L17.0158333,12.901875 L20.4283333,12.901875 L0.539583333,0.118125 C0.21239273,0.265557169 0.00146179188,0.59050483 0,0.949375 L0,1.96291667 Z M34.9795833,12.901875 L53.82125,0.790416667 C53.7473302,0.351653909 53.3678616,0.0300912464 52.9229167,0.0291666667 L51.5929167,0.0291666667 L31.5685417,12.901875 L34.9810417,12.901875 L34.9795833,12.901875 Z" id="Shape"></path>
                    </g>
                </g>
            </g>
        </g>
    </g>
</svg>