<?xml version="1.0" encoding="UTF-8"?>
<svg width="54px" height="35px" viewBox="0 0 54 35" version="1.1" xmlns="http://www.w3.org/2000/svg" xmlns:xlink="http://www.w3.org/1999/xlink">
    <!-- Generator: Sketch 58 (84663) - https://sketch.com -->
    <title>us-flag</title>
    <desc>Created with Sketch.</desc>
    <g id="Page-1" stroke="none" stroke-width="1" fill="none" fill-rule="evenodd">
        <g id="Desktop-Checkout-Page1" transform="translate(-264.000000, -1022.000000)" fill-rule="nonzero">
            <g id="Location" transform="translate(248.000000, 995.000000)">
                <g id="us-flag" transform="translate(16.000000, 27.000000)">
                    <path d="M52.924375,34.970844 L0.928958333,34.970844 C0.418889014,34.9732571 0.00321238087,34.5621483 0,34.0520833 L0,0.947916667 C0,0.440416667 0.415625,0.0291666667 0.928958333,0.0291666667 L52.9229167,0.0291666667 C53.43625,0.0291666667 53.851875,0.440416667 53.851875,0.947916667 L53.851875,34.0520833 C53.851875,34.5595833 53.43625,34.970844 52.9229167,34.970844 L52.924375,34.970844 Z" id="Path" fill="#F5F5F5"></path>
                    <path d="M53.8533333,2.716875 L0,2.716875 L0,0.947916667 C0,0.440416667 0.415625,0.0291666667 0.928958333,0.0291666667 L52.9229167,0.0291666667 C53.43625,0.0291666667 53.851875,0.440416667 53.851875,0.947916667 L53.851875,2.716875 L53.8533333,2.716875 Z M0,10.78 L53.8533333,10.78 L53.8533333,13.4677083 L0,13.4677083 L0,10.78 Z M0,5.40458333 L53.8533333,5.40458333 L53.8533333,8.09229167 L0,8.09229167 L0,5.40458333 Z M53.8533333,18.844594 L0.928958333,18.844594 C0.418889014,18.8470071 0.00321238087,18.4358983 0,17.9258333 L0,16.1554167 L53.8533333,16.1554167 L53.8533333,18.844594 L53.8533333,18.844594 Z M0,26.9077083 L53.8533333,26.9077083 L53.8533333,29.5954167 L0,29.5954167 L0,26.9077083 Z M52.924375,34.970844 L0.928958333,34.970844 C0.418889014,34.9732571 0.00321238087,34.5621483 0,34.0520833 L0,32.283125 L53.8533333,32.283125 L53.8533333,34.0520833 C53.8533333,34.5595833 53.4377083,34.970844 52.924375,34.970844 Z M0,21.5322917 L53.8533333,21.5322917 L53.8533333,24.22 L0,24.22 L0,21.5322917 Z" id="Shape" fill="#FF4B55"></path>
                    <path d="M24.14125,0.0291560046 L0.928958333,0.0291560046 C0.418889014,0.0267429465 0.00321238087,0.437851704 0,0.947916667 L0,17.924375 C0,18.431875 0.415625,18.8431357 0.928958333,18.8431357 L24.14125,18.8431357 C24.6513193,18.8455487 25.066996,18.43444 25.0702083,17.924375 L25.0702083,0.949375 C25.0690508,0.704159399 24.9705276,0.469447348 24.7963136,0.296874217 C24.6220995,0.124301086 24.3864656,0.0280035953 24.14125,0.0291560046 Z" id="Path" fill="#41479B"></path>
                    <path d="M2.6075,2.139375 L2.81166667,2.75041667 L3.46208333,2.75479167 C3.54666667,2.75479167 3.58166667,2.86125 3.51458333,2.91083333 L2.99104167,3.29291667 L3.18791667,3.906875 C3.21270833,3.985625 3.12083333,4.05270833 3.05229167,4.003125 L2.524375,3.62979167 L1.99645833,4.003125 C1.92791667,4.05270833 1.83604167,3.98708333 1.86083333,3.906875 L2.05770833,3.294375 L1.53416667,2.91083333 C1.46708333,2.86125 1.50208333,2.75625 1.58666667,2.75479167 L2.235625,2.75041667 L2.44125,2.139375 C2.4675,2.060625 2.58125,2.060625 2.6075,2.139375 L2.6075,2.139375 Z M2.6075,5.333125 L2.81166667,5.94270833 L3.46208333,5.94854167 C3.54666667,5.94854167 3.58166667,6.055 3.51458333,6.10458333 L2.99104167,6.48666667 L3.18791667,7.09916667 C3.21270833,7.179375 3.12083333,7.245 3.05229167,7.196875 L2.524375,6.82208333 L1.99645833,7.196875 C1.92791667,7.245 1.83604167,7.179375 1.86083333,7.100625 L2.05770833,6.48666667 L1.53416667,6.10458333 C1.46708333,6.055 1.50208333,5.94854167 1.58666667,5.94854167 L2.235625,5.94270833 L2.44125,5.333125 C2.45305231,5.29721723 2.48657735,5.27294687 2.524375,5.27294687 C2.56217265,5.27294687 2.59569769,5.29721723 2.6075,5.333125 Z M2.6075,8.52541667 L2.81166667,9.13645833 L3.46208333,9.14083333 C3.54666667,9.14083333 3.58166667,9.24729167 3.51458333,9.296875 L2.99104167,9.68041667 L3.18791667,10.2929167 C3.21270833,10.373125 3.12083333,10.43875 3.05229167,10.3891667 L2.524375,10.0158333 L1.99645833,10.390625 C1.92791667,10.43875 1.83604167,10.373125 1.86083333,10.2929167 L2.05770833,9.68041667 L1.53416667,9.296875 C1.46708333,9.24729167 1.50208333,9.14229167 1.58666667,9.14083333 L2.235625,9.13645833 L2.44125,8.52541667 C2.4675,8.44666667 2.58125,8.44666667 2.6075,8.52541667 L2.6075,8.52541667 Z M2.6075,11.7191667 L2.81166667,12.32875 L3.46208333,12.3345833 C3.54666667,12.3345833 3.58166667,12.4410417 3.51458333,12.490625 L2.99104167,12.8727083 L3.18791667,13.4852083 C3.21270833,13.5654167 3.12083333,13.6310417 3.05229167,13.5829167 L2.524375,13.2095833 L1.99645833,13.5829167 C1.92791667,13.6310417 1.83604167,13.5654167 1.86083333,13.4866667 L2.05770833,12.8741667 L1.53416667,12.490625 C1.46708333,12.4410417 1.50208333,12.3345833 1.58666667,12.3345833 L2.235625,12.32875 L2.44125,11.7191667 C2.4675,11.6404167 2.58125,11.6404167 2.6075,11.7191667 Z M2.6075,14.9114583 L2.81166667,15.5225 L3.46208333,15.526875 C3.54666667,15.526875 3.58166667,15.6347917 3.51458333,15.684375 L2.99104167,16.0664583 L3.18791667,16.6789583 C3.21270833,16.7591667 3.12083333,16.8247917 3.05229167,16.7766667 L2.524375,16.401875 L1.99645833,16.7766667 C1.92791667,16.8247917 1.83604167,16.7591667 1.86083333,16.6789583 L2.05770833,16.0664583 L1.53416667,15.684375 C1.46708333,15.6347917 1.50208333,15.5283333 1.58666667,15.526875 L2.235625,15.5225 L2.44125,14.9114583 C2.4675,14.8327083 2.58125,14.8327083 2.6075,14.9114583 Z M5.11,3.70416667 L5.31416667,4.31666667 L5.96458333,4.31958333 C6.04916667,4.31958333 6.08416667,4.4275 6.01708333,4.47708333 L5.49354167,4.85916667 L5.69041667,5.47166667 C5.71520833,5.551875 5.62333333,5.6175 5.55479167,5.569375 L5.026875,5.19458333 L4.49895833,5.569375 C4.43041667,5.6175 4.33854167,5.551875 4.36333333,5.473125 L4.56020833,4.85916667 L4.038125,4.47708333 C3.96958333,4.4275 4.00458333,4.32104167 4.08916667,4.31958333 L4.738125,4.31520833 L4.94375,3.705625 C4.95555231,3.66971723 4.98907735,3.64544687 5.026875,3.64544687 C5.06467265,3.64544687 5.09819769,3.66971723 5.11,3.705625 L5.11,3.70416667 Z M5.11,6.89791667 L5.31416667,7.50895833 L5.96458333,7.51333333 C6.04916667,7.51333333 6.08416667,7.61979167 6.01708333,7.669375 L5.49354167,8.05291667 L5.69041667,8.66541667 C5.71520833,8.745625 5.62333333,8.81125 5.55479167,8.76166667 L5.026875,8.38833333 L4.49895833,8.76166667 C4.43041667,8.81125 4.33854167,8.745625 4.36333333,8.66541667 L4.56020833,8.05291667 L4.038125,7.669375 C3.96958333,7.61979167 4.00458333,7.51479167 4.08916667,7.51333333 L4.738125,7.50895833 L4.94375,6.89791667 C4.97,6.81916667 5.08375,6.81916667 5.11,6.89791667 L5.11,6.89791667 Z M5.11,10.0916667 L5.31416667,10.70125 L5.96458333,10.7070833 C6.04916667,10.7070833 6.08416667,10.8135417 6.01708333,10.863125 L5.49354167,11.2452083 L5.69041667,11.8577083 C5.71520833,11.9379167 5.62333333,12.0035417 5.55479167,11.9554167 L5.026875,11.580625 L4.49895833,11.9554167 C4.43041667,12.0035417 4.33854167,11.9379167 4.36333333,11.8591667 L4.56020833,11.2466667 L4.038125,10.863125 C4.00754188,10.8412716 3.99468437,10.802095 4.00637038,10.7663692 C4.01805639,10.7306434 4.05158079,10.7066384 4.08916667,10.7070833 L4.738125,10.70125 L4.94375,10.0916667 C4.97,10.0129167 5.08375,10.0129167 5.11,10.0916667 L5.11,10.0916667 Z M5.11,13.2854167 L5.31416667,13.895 L5.96458333,13.899375 C6.04916667,13.899375 6.08416667,14.0072917 6.01708333,14.056875 L5.49354167,14.4389583 L5.69041667,15.0514583 C5.71520833,15.1316667 5.62333333,15.1972917 5.55479167,15.1491667 L5.026875,14.774375 L4.49895833,15.1491667 C4.43041667,15.1972917 4.33854167,15.1316667 4.36333333,15.0514583 L4.56020833,14.4389583 L4.038125,14.056875 C3.96958333,14.0072917 4.00458333,13.9008333 4.08916667,13.899375 L4.738125,13.895 L4.94375,13.2839583 C4.97,13.2052083 5.08375,13.2052083 5.11,13.2839583 L5.11,13.2854167 Z M7.6125,2.139375 L7.818125,2.75041667 L8.46708333,2.75479167 C8.55166667,2.75479167 8.58666667,2.86125 8.51958333,2.91083333 L7.99604167,3.29291667 L8.19291667,3.906875 C8.21770833,3.985625 8.12729167,4.05270833 8.05875,4.003125 L7.529375,3.62979167 L7.00145833,4.003125 C6.93291667,4.05270833 6.84104167,3.985625 6.86729167,3.906875 L7.06270833,3.294375 L6.540625,2.91083333 C6.51004188,2.88897998 6.49718437,2.84980335 6.50887038,2.81407754 C6.52055639,2.77835173 6.55408079,2.75434675 6.59166667,2.75479167 L7.240625,2.75041667 L7.44625,2.139375 C7.4725,2.060625 7.58625,2.060625 7.6125,2.139375 L7.6125,2.139375 Z M7.6125,5.333125 L7.818125,5.94270833 L8.46708333,5.94854167 C8.55166667,5.94854167 8.58666667,6.055 8.51958333,6.10458333 L7.99604167,6.48666667 L8.19291667,7.09916667 C8.20428624,7.13504488 8.19143916,7.17417409 8.16101539,7.19633053 C8.13059163,7.21848697 8.08940796,7.21870623 8.05875,7.196875 L7.529375,6.82208333 L7.00145833,7.196875 C6.93291667,7.245 6.84104167,7.179375 6.86729167,7.100625 L7.06270833,6.48666667 L6.540625,6.10458333 C6.51004188,6.08272998 6.49718437,6.04355335 6.50887038,6.00782754 C6.52055639,5.97210173 6.55408079,5.94809675 6.59166667,5.94854167 L7.240625,5.94270833 L7.44625,5.333125 C7.45805231,5.29721723 7.49157735,5.27294687 7.529375,5.27294687 C7.56717265,5.27294687 7.60069769,5.29721723 7.6125,5.333125 L7.6125,5.333125 Z M7.6125,8.52541667 L7.818125,9.13645833 L8.46708333,9.14083333 C8.55166667,9.14083333 8.58666667,9.24729167 8.51958333,9.296875 L7.99604167,9.68041667 L8.19291667,10.2929167 C8.20335093,10.3285735 8.19013045,10.366932 8.15994289,10.3885883 C8.12975532,10.4102446 8.08918313,10.4104765 8.05875,10.3891667 L7.529375,10.0158333 L7.00145833,10.3891667 C6.93291667,10.43875 6.84104167,10.373125 6.86729167,10.2929167 L7.06270833,9.68041667 L6.540625,9.296875 C6.47208333,9.24729167 6.50708333,9.14229167 6.59166667,9.14083333 L7.240625,9.13645833 L7.44625,8.52541667 C7.4725,8.44666667 7.58625,8.44666667 7.6125,8.52541667 L7.6125,8.52541667 Z M7.6125,11.7191667 L7.818125,12.32875 L8.46708333,12.3345833 C8.55166667,12.3345833 8.58666667,12.4410417 8.51958333,12.490625 L7.99604167,12.8727083 L8.19291667,13.4852083 C8.20428624,13.5210865 8.19143916,13.5602158 8.16101539,13.5823722 C8.13059163,13.6045286 8.08940796,13.6047479 8.05875,13.5829167 L7.529375,13.2095833 L7.00145833,13.5829167 C6.93291667,13.6310417 6.84104167,13.5654167 6.86729167,13.4866667 L7.06270833,12.8741667 L6.540625,12.490625 C6.51004188,12.4687716 6.49718437,12.429595 6.50887038,12.3938692 C6.52055639,12.3581434 6.55408079,12.3341384 6.59166667,12.3345833 L7.240625,12.32875 L7.44625,11.7191667 C7.4725,11.6404167 7.58625,11.6404167 7.6125,11.7191667 L7.6125,11.7191667 Z M7.6125,14.9114583 L7.818125,15.5225 L8.46708333,15.526875 C8.55166667,15.526875 8.58666667,15.6347917 8.51958333,15.684375 L7.99604167,16.0664583 L8.19291667,16.6789583 C8.20428624,16.7148365 8.19143916,16.7539658 8.16101539,16.7761222 C8.13059163,16.7982786 8.08940796,16.7984979 8.05875,16.7766667 L7.529375,16.401875 L7.00145833,16.7766667 C6.93291667,16.8247917 6.84104167,16.7591667 6.86729167,16.6789583 L7.06270833,16.0664583 L6.540625,15.684375 C6.47208333,15.6347917 6.50708333,15.5283333 6.59166667,15.526875 L7.240625,15.5225 L7.44625,14.9114583 C7.4725,14.8327083 7.58625,14.8327083 7.6125,14.9114583 L7.6125,14.9114583 Z M10.115,3.70416667 L10.320625,4.31666667 L10.9710417,4.31958333 C11.0541667,4.31958333 11.0891667,4.4275 11.0220833,4.47708333 L10.4985417,4.85916667 L10.6954167,5.47166667 C10.7067862,5.50754488 10.6939392,5.54667409 10.6635154,5.56883053 C10.6330916,5.59098697 10.591908,5.59120623 10.56125,5.569375 L10.031875,5.19458333 L9.50395833,5.569375 C9.43541667,5.6175 9.34354167,5.551875 9.36979167,5.473125 L9.56520833,4.85916667 L9.043125,4.47708333 C8.97458333,4.4275 9.00958333,4.32104167 9.09416667,4.31958333 L9.743125,4.31520833 L9.94875,3.705625 C9.96055231,3.66971723 9.99407735,3.64544687 10.031875,3.64544687 C10.0696727,3.64544687 10.1031977,3.66971723 10.115,3.705625 L10.115,3.70416667 Z M10.115,6.89791667 L10.320625,7.50895833 L10.9710417,7.51333333 C11.0541667,7.51333333 11.0891667,7.61979167 11.0220833,7.669375 L10.4985417,8.05291667 L10.6954167,8.66541667 C10.7058509,8.70107351 10.6926305,8.73943202 10.6624429,8.76108832 C10.6322553,8.78274461 10.5916831,8.7829765 10.56125,8.76166667 L10.031875,8.38833333 L9.50395833,8.76166667 C9.43541667,8.81125 9.34354167,8.745625 9.36979167,8.66541667 L9.56520833,8.05291667 L9.043125,7.669375 C8.97458333,7.61979167 9.00958333,7.51479167 9.09416667,7.51333333 L9.743125,7.50895833 L9.94875,6.89791667 C9.975,6.81916667 10.08875,6.81916667 10.115,6.89791667 L10.115,6.89791667 Z M10.115,10.0916667 L10.320625,10.70125 L10.9710417,10.7070833 C11.0541667,10.7070833 11.0891667,10.8135417 11.0220833,10.863125 L10.4985417,11.2452083 L10.6954167,11.8577083 C10.7067862,11.8935865 10.6939392,11.9327158 10.6635154,11.9548722 C10.6330916,11.9770286 10.591908,11.9772479 10.56125,11.9554167 L10.031875,11.580625 L9.50395833,11.9554167 C9.43541667,12.0035417 9.34354167,11.9379167 9.36979167,11.8591667 L9.56520833,11.2466667 L9.043125,10.863125 C9.01254188,10.8412716 8.99968437,10.802095 9.01137038,10.7663692 C9.02305639,10.7306434 9.05658079,10.7066384 9.09416667,10.7070833 L9.743125,10.70125 L9.94875,10.0916667 C9.975,10.0129167 10.08875,10.0129167 10.115,10.0916667 L10.115,10.0916667 Z M10.115,13.2854167 L10.320625,13.895 L10.9710417,13.899375 C11.0541667,13.899375 11.0891667,14.0072917 11.0220833,14.056875 L10.4985417,14.4389583 L10.6954167,15.0514583 C10.7067862,15.0873365 10.6939392,15.1264658 10.6635154,15.1486222 C10.6330916,15.1707786 10.591908,15.1709979 10.56125,15.1491667 L10.031875,14.774375 L9.50395833,15.1491667 C9.43541667,15.1972917 9.34354167,15.1316667 9.36979167,15.0514583 L9.56520833,14.4389583 L9.043125,14.056875 C8.97458333,14.0072917 9.00958333,13.9008333 9.09416667,13.899375 L9.743125,13.895 L9.94875,13.2839583 C9.975,13.2052083 10.08875,13.2052083 10.115,13.2839583 L10.115,13.2854167 Z M12.6175,2.139375 L12.823125,2.75041667 L13.4735417,2.75479167 C13.5566667,2.75479167 13.5916667,2.86125 13.5245833,2.91083333 L13.0010417,3.29291667 L13.1979167,3.906875 C13.2227083,3.985625 13.1322917,4.05270833 13.06375,4.003125 L12.534375,3.62979167 L12.0064583,4.003125 C11.9379167,4.05270833 11.8460417,3.985625 11.8722917,3.906875 L12.0677083,3.294375 L11.545625,2.91083333 C11.5150419,2.88897998 11.5021844,2.84980335 11.5138704,2.81407754 C11.5255564,2.77835173 11.5590808,2.75434675 11.5966667,2.75479167 L12.245625,2.75041667 L12.45125,2.139375 C12.4789583,2.060625 12.59125,2.060625 12.6175,2.139375 Z M12.6175,5.333125 L12.823125,5.94270833 L13.4735417,5.94854167 C13.5566667,5.94854167 13.5916667,6.055 13.5245833,6.10458333 L13.0010417,6.48666667 L13.1979167,7.09916667 C13.2092862,7.13504488 13.1964392,7.17417409 13.1660154,7.19633053 C13.1355916,7.21848697 13.094408,7.21870623 13.06375,7.196875 L12.534375,6.82208333 L12.0064583,7.196875 C11.9379167,7.245 11.8460417,7.179375 11.8722917,7.100625 L12.0677083,6.48666667 L11.545625,6.10458333 C11.5150419,6.08272998 11.5021844,6.04355335 11.5138704,6.00782754 C11.5255564,5.97210173 11.5590808,5.94809675 11.5966667,5.94854167 L12.245625,5.94270833 L12.45125,5.333125 C12.4789583,5.25291667 12.59125,5.25291667 12.6175,5.333125 L12.6175,5.333125 Z M12.6175,8.52541667 L12.823125,9.13645833 L13.4735417,9.14083333 C13.5566667,9.14083333 13.5916667,9.24729167 13.5245833,9.296875 L13.0010417,9.68041667 L13.1979167,10.2929167 C13.2083509,10.3285735 13.1951305,10.366932 13.1649429,10.3885883 C13.1347553,10.4102446 13.0941831,10.4104765 13.06375,10.3891667 L12.534375,10.0158333 L12.0064583,10.3891667 C11.9379167,10.43875 11.8460417,10.373125 11.8722917,10.2929167 L12.0677083,9.68041667 L11.545625,9.296875 C11.4770833,9.24729167 11.5120833,9.14229167 11.5966667,9.14083333 L12.245625,9.13645833 L12.45125,8.52541667 C12.4789583,8.44666667 12.59125,8.44666667 12.6175,8.52541667 Z M12.6175,11.7191667 L12.823125,12.32875 L13.4735417,12.3345833 C13.5566667,12.3345833 13.5916667,12.4410417 13.5245833,12.490625 L13.0010417,12.8727083 L13.1979167,13.4852083 C13.2092862,13.5210865 13.1964392,13.5602158 13.1660154,13.5823722 C13.1355916,13.6045286 13.094408,13.6047479 13.06375,13.5829167 L12.534375,13.2095833 L12.0064583,13.5829167 C11.9379167,13.6310417 11.8460417,13.5654167 11.8722917,13.4866667 L12.0677083,12.8741667 L11.545625,12.490625 C11.5150419,12.4687716 11.5021844,12.429595 11.5138704,12.3938692 C11.5255564,12.3581434 11.5590808,12.3341384 11.5966667,12.3345833 L12.245625,12.32875 L12.45125,11.7191667 C12.4789583,11.6404167 12.59125,11.6404167 12.6175,11.7191667 L12.6175,11.7191667 Z M12.6175,14.9114583 L12.823125,15.5225 L13.4735417,15.526875 C13.5566667,15.526875 13.5916667,15.6347917 13.5245833,15.684375 L13.0010417,16.0664583 L13.1979167,16.6789583 C13.2092862,16.7148365 13.1964392,16.7539658 13.1660154,16.7761222 C13.1355916,16.7982786 13.094408,16.7984979 13.06375,16.7766667 L12.534375,16.401875 L12.0064583,16.7766667 C11.9379167,16.8247917 11.8460417,16.7591667 11.8722917,16.6789583 L12.0677083,16.0664583 L11.545625,15.684375 C11.4770833,15.6347917 11.5120833,15.5283333 11.5966667,15.526875 L12.245625,15.5225 L12.45125,14.9114583 C12.4630523,14.8755506 12.4965773,14.8512802 12.534375,14.8512802 C12.5721727,14.8512802 12.6056977,14.8755506 12.6175,14.9114583 L12.6175,14.9114583 Z M15.12,3.70416667 L15.325625,4.31666667 L15.9760417,4.31958333 C16.0591667,4.31958333 16.0941667,4.4275 16.0270833,4.47708333 L15.505,4.85916667 L15.7004167,5.47166667 C15.7117862,5.50754488 15.6989392,5.54667409 15.6685154,5.56883053 C15.6380916,5.59098697 15.596908,5.59120623 15.56625,5.569375 L15.036875,5.19458333 L14.5089583,5.569375 C14.4404167,5.6175 14.3485417,5.551875 14.3747917,5.473125 L14.5702083,4.85916667 L14.048125,4.47708333 C13.9795833,4.4275 14.0145833,4.32104167 14.0991667,4.31958333 L14.7495833,4.31520833 L14.95375,3.705625 C14.9814583,3.62541667 15.09375,3.62541667 15.12,3.705625 L15.12,3.70416667 Z M15.12,6.89791667 L15.325625,7.50895833 L15.9760417,7.51333333 C16.0591667,7.51333333 16.0941667,7.61979167 16.0270833,7.669375 L15.505,8.05291667 L15.7004167,8.66541667 C15.7108509,8.70107351 15.6976305,8.73943202 15.6674429,8.76108832 C15.6372553,8.78274461 15.5966831,8.7829765 15.56625,8.76166667 L15.036875,8.38833333 L14.5089583,8.76166667 C14.4404167,8.81125 14.3485417,8.745625 14.3747917,8.66541667 L14.5702083,8.05291667 L14.048125,7.669375 C13.9795833,7.61979167 14.0145833,7.51479167 14.0991667,7.51333333 L14.7495833,7.50895833 L14.95375,6.89791667 C14.9655523,6.86200889 14.9990773,6.83773853 15.036875,6.83773853 C15.0746727,6.83773853 15.1081977,6.86200889 15.12,6.89791667 L15.12,6.89791667 Z M15.12,10.0916667 L15.325625,10.70125 L15.9760417,10.7070833 C16.0591667,10.7070833 16.0941667,10.8135417 16.0270833,10.863125 L15.505,11.2452083 L15.7004167,11.8577083 C15.7117862,11.8935865 15.6989392,11.9327158 15.6685154,11.9548722 C15.6380916,11.9770286 15.596908,11.9772479 15.56625,11.9554167 L15.036875,11.580625 L14.5089583,11.9554167 C14.4404167,12.0035417 14.3485417,11.9379167 14.3747917,11.8591667 L14.5702083,11.2466667 L14.048125,10.863125 C14.0175419,10.8412716 14.0046844,10.802095 14.0163704,10.7663692 C14.0280564,10.7306434 14.0615808,10.7066384 14.0991667,10.7070833 L14.7495833,10.70125 L14.95375,10.0916667 C14.9655523,10.0557589 14.9990773,10.0314885 15.036875,10.0314885 C15.0746727,10.0314885 15.1081977,10.0557589 15.12,10.0916667 Z M15.12,13.2854167 L15.325625,13.895 L15.9760417,13.899375 C16.0591667,13.899375 16.0941667,14.0072917 16.0270833,14.056875 L15.505,14.4389583 L15.7004167,15.0514583 C15.7117862,15.0873365 15.6989392,15.1264658 15.6685154,15.1486222 C15.6380916,15.1707786 15.596908,15.1709979 15.56625,15.1491667 L15.036875,14.774375 L14.5089583,15.1491667 C14.4404167,15.1972917 14.3485417,15.1316667 14.3747917,15.0514583 L14.5702083,14.4389583 L14.048125,14.056875 C13.9795833,14.0072917 14.0145833,13.9008333 14.0991667,13.899375 L14.7495833,13.895 L14.95375,13.2839583 C14.9814583,13.2052083 15.09375,13.2052083 15.12,13.2839583 L15.12,13.2854167 Z M17.6225,2.139375 L17.828125,2.75041667 L18.4785417,2.75479167 C18.5151579,2.75616158 18.5470426,2.7802013 18.5584343,2.81502734 C18.569826,2.84985338 18.5583117,2.88808902 18.5295833,2.91083333 L18.0075,3.29291667 L18.2029167,3.906875 C18.2291667,3.985625 18.1372917,4.05270833 18.06875,4.003125 L17.5408333,3.62979167 L17.0114583,4.003125 C16.9429167,4.05270833 16.8510417,3.985625 16.8772917,3.906875 L17.0727083,3.294375 L16.550625,2.91083333 C16.5218966,2.88808902 16.5103824,2.84985338 16.5217741,2.81502734 C16.5331658,2.7802013 16.5650505,2.75616158 16.6016667,2.75479167 L17.2520833,2.75041667 L17.45625,2.139375 C17.4839583,2.060625 17.59625,2.060625 17.6225,2.139375 Z M17.6225,5.333125 L17.828125,5.94270833 L18.4785417,5.94854167 C18.5151579,5.94991158 18.5470426,5.9739513 18.5584343,6.00877734 C18.569826,6.04360338 18.5583117,6.08183902 18.5295833,6.10458333 L18.0075,6.48666667 L18.2029167,7.09916667 C18.2291667,7.179375 18.1372917,7.245 18.06875,7.196875 L17.5408333,6.82208333 L17.0114583,7.196875 C16.9429167,7.245 16.8510417,7.179375 16.8772917,7.100625 L17.0727083,6.48666667 L16.550625,6.10458333 C16.5218966,6.08183902 16.5103824,6.04360338 16.5217741,6.00877734 C16.5331658,5.9739513 16.5650505,5.94991158 16.6016667,5.94854167 L17.2520833,5.94270833 L17.45625,5.333125 C17.4839583,5.25291667 17.59625,5.25291667 17.6225,5.333125 L17.6225,5.333125 Z M17.6225,8.52541667 L17.828125,9.13645833 L18.4785417,9.14083333 C18.5151579,9.14220324 18.5470426,9.16624297 18.5584343,9.20106901 C18.569826,9.23589505 18.5583117,9.27413069 18.5295833,9.296875 L18.0075,9.68041667 L18.2029167,10.2929167 C18.2291667,10.373125 18.1372917,10.43875 18.06875,10.3891667 L17.5408333,10.0158333 L17.0114583,10.3891667 C16.9429167,10.43875 16.8510417,10.373125 16.8772917,10.2929167 L17.0727083,9.68041667 L16.550625,9.296875 C16.5218966,9.27413069 16.5103824,9.23589505 16.5217741,9.20106901 C16.5331658,9.16624297 16.5650505,9.14220324 16.6016667,9.14083333 L17.2520833,9.13645833 L17.45625,8.52541667 C17.4839583,8.44666667 17.59625,8.44666667 17.6225,8.52541667 L17.6225,8.52541667 Z M17.6225,11.7191667 L17.828125,12.32875 L18.4785417,12.3345833 C18.5151579,12.3359532 18.5470426,12.359993 18.5584343,12.394819 C18.569826,12.429645 18.5583117,12.4678807 18.5295833,12.490625 L18.0075,12.8727083 L18.2029167,13.4852083 C18.2291667,13.5654167 18.1372917,13.6310417 18.06875,13.5829167 L17.5408333,13.2095833 L17.0114583,13.5829167 C16.9429167,13.6310417 16.8510417,13.5654167 16.8772917,13.4866667 L17.0727083,12.8741667 L16.550625,12.490625 C16.5218966,12.4678807 16.5103824,12.429645 16.5217741,12.394819 C16.5331658,12.359993 16.5650505,12.3359532 16.6016667,12.3345833 L17.2520833,12.32875 L17.45625,11.7191667 C17.4839583,11.6404167 17.59625,11.6404167 17.6225,11.7191667 Z M17.6225,14.9114583 L17.828125,15.5225 L18.4785417,15.526875 C18.563125,15.526875 18.5966667,15.6347917 18.5295833,15.684375 L18.0075,16.0664583 L18.2029167,16.6789583 C18.2291667,16.7591667 18.1372917,16.8247917 18.06875,16.7766667 L17.5408333,16.401875 L17.0114583,16.7766667 C16.9429167,16.8247917 16.8510417,16.7591667 16.8772917,16.6789583 L17.0727083,16.0664583 L16.550625,15.684375 C16.5206991,15.6619412 16.5083407,15.6229671 16.519871,15.5873878 C16.5314014,15.5518085 16.5642707,15.5274916 16.6016667,15.526875 L17.2520833,15.5225 L17.45625,14.9114583 C17.4839583,14.8327083 17.59625,14.8327083 17.6225,14.9114583 Z M20.125,3.70416667 L20.330625,4.31666667 L20.9810417,4.31958333 C21.0184376,4.3201999 21.051307,4.34451683 21.0628373,4.38009613 C21.0743676,4.41567543 21.0620092,4.45464951 21.0320833,4.47708333 L20.51,4.85916667 L20.7054167,5.47166667 C20.7316667,5.551875 20.6397917,5.6175 20.57125,5.569375 L20.0433333,5.19458333 L19.5139583,5.569375 C19.4454167,5.6175 19.3535417,5.551875 19.3797917,5.473125 L19.5752083,4.85916667 L19.053125,4.47708333 C18.9860417,4.4275 19.0210417,4.32104167 19.1041667,4.31958333 L19.7545833,4.31520833 L19.95875,3.705625 C19.9864583,3.62541667 20.09875,3.62541667 20.125,3.705625 L20.125,3.70416667 Z M20.125,6.89791667 L20.330625,7.50895833 L20.9810417,7.51333333 C21.065625,7.51333333 21.100625,7.61979167 21.0320833,7.669375 L20.51,8.05291667 L20.7054167,8.66541667 C20.7316667,8.745625 20.6397917,8.81125 20.57125,8.76166667 L20.0433333,8.38833333 L19.5139583,8.76166667 C19.4454167,8.81125 19.3535417,8.745625 19.3797917,8.66541667 L19.5752083,8.05291667 L19.053125,7.669375 C18.9860417,7.61979167 19.0210417,7.51479167 19.1041667,7.51333333 L19.7545833,7.50895833 L19.95875,6.89791667 C19.9864583,6.81916667 20.09875,6.81916667 20.125,6.89791667 Z M20.125,10.0916667 L20.330625,10.70125 L20.9810417,10.7070833 C21.065625,10.7070833 21.100625,10.8135417 21.0320833,10.863125 L20.51,11.2452083 L20.7054167,11.8577083 C20.7316667,11.9379167 20.6397917,12.0035417 20.57125,11.9554167 L20.0433333,11.580625 L19.5139583,11.9554167 C19.4454167,12.0035417 19.3535417,11.9379167 19.3797917,11.8591667 L19.5752083,11.2466667 L19.053125,10.863125 C18.9860417,10.8135417 19.0210417,10.7070833 19.1041667,10.7070833 L19.7545833,10.70125 L19.95875,10.0916667 C19.9864583,10.0129167 20.09875,10.0129167 20.125,10.0916667 Z M20.125,13.2854167 L20.330625,13.895 L20.9810417,13.899375 C21.0184376,13.8999916 21.051307,13.9243085 21.0628373,13.9598878 C21.0743676,13.9954671 21.0620092,14.0344412 21.0320833,14.056875 L20.51,14.4389583 L20.7054167,15.0514583 C20.7316667,15.1316667 20.6397917,15.1972917 20.57125,15.1491667 L20.0433333,14.774375 L19.5139583,15.1491667 C19.4454167,15.1972917 19.3535417,15.1316667 19.3797917,15.0514583 L19.5752083,14.4389583 L19.053125,14.056875 C18.9860417,14.0072917 19.0210417,13.9008333 19.1041667,13.899375 L19.7545833,13.895 L19.95875,13.2839583 C19.9864583,13.2052083 20.09875,13.2052083 20.125,13.2839583 L20.125,13.2854167 Z M22.6289583,2.139375 L22.833125,2.75041667 L23.4835417,2.75479167 C23.568125,2.75479167 23.603125,2.86125 23.5345833,2.91083333 L23.0125,3.29291667 L23.2079167,3.906875 C23.2341667,3.985625 23.1422917,4.05270833 23.07375,4.003125 L22.5458333,3.62979167 L22.0164583,4.003125 C21.9479167,4.05270833 21.8560417,3.985625 21.8822917,3.906875 L22.0791667,3.294375 L21.555625,2.91083333 C21.4885417,2.86125 21.5235417,2.75479167 21.6066667,2.75479167 L22.2570833,2.75041667 L22.46125,2.139375 C22.4738301,2.1038562 22.5074233,2.08011623 22.5451042,2.08011623 C22.582785,2.08011623 22.6163782,2.1038562 22.6289583,2.139375 L22.6289583,2.139375 Z M22.6289583,5.333125 L22.833125,5.94270833 L23.4835417,5.94854167 C23.568125,5.94854167 23.603125,6.055 23.5345833,6.10458333 L23.0125,6.48666667 L23.2079167,7.09916667 C23.2341667,7.179375 23.1422917,7.245 23.07375,7.196875 L22.5458333,6.82208333 L22.0164583,7.196875 C21.9479167,7.245 21.8560417,7.179375 21.8822917,7.100625 L22.0791667,6.48666667 L21.555625,6.10458333 C21.4885417,6.055 21.5235417,5.94854167 21.6066667,5.94854167 L22.2570833,5.94270833 L22.46125,5.333125 C22.4723042,5.29603941 22.5064062,5.27061957 22.5451042,5.27061957 C22.5838022,5.27061957 22.6179042,5.29603941 22.6289583,5.333125 L22.6289583,5.333125 Z M22.6289583,8.52541667 L22.833125,9.13645833 L23.4835417,9.14083333 C23.568125,9.14083333 23.603125,9.24729167 23.5345833,9.296875 L23.0125,9.68041667 L23.2079167,10.2929167 C23.2341667,10.373125 23.1422917,10.43875 23.07375,10.3891667 L22.5458333,10.0158333 L22.0164583,10.3891667 C21.9479167,10.43875 21.8560417,10.373125 21.8822917,10.2929167 L22.0791667,9.68041667 L21.555625,9.296875 C21.4885417,9.24729167 21.5235417,9.14229167 21.6066667,9.14083333 L22.2570833,9.13645833 L22.46125,8.52541667 C22.4738301,8.48989786 22.5074233,8.46615789 22.5451042,8.46615789 C22.582785,8.46615789 22.6163782,8.48989786 22.6289583,8.52541667 L22.6289583,8.52541667 Z M22.6289583,11.7191667 L22.833125,12.32875 L23.4835417,12.3345833 C23.568125,12.3345833 23.603125,12.4410417 23.5345833,12.490625 L23.0125,12.8727083 L23.2079167,13.4852083 C23.2341667,13.5654167 23.1422917,13.6310417 23.07375,13.5829167 L22.5458333,13.2095833 L22.0164583,13.5829167 C21.9479167,13.6310417 21.8560417,13.5654167 21.8822917,13.4866667 L22.0791667,12.8741667 L21.555625,12.490625 C21.4885417,12.4410417 21.5235417,12.3345833 21.6066667,12.3345833 L22.2570833,12.32875 L22.46125,11.7191667 C22.4738301,11.6836479 22.5074233,11.6599079 22.5451042,11.6599079 C22.582785,11.6599079 22.6163782,11.6836479 22.6289583,11.7191667 L22.6289583,11.7191667 Z M22.6289583,14.9114583 L22.833125,15.5225 L23.4835417,15.526875 C23.5209376,15.5274916 23.553807,15.5518085 23.5653373,15.5873878 C23.5768676,15.6229671 23.5645092,15.6619412 23.5345833,15.684375 L23.0125,16.0664583 L23.2079167,16.6789583 C23.2341667,16.7591667 23.1422917,16.8247917 23.07375,16.7766667 L22.5458333,16.401875 L22.0164583,16.7766667 C21.9479167,16.8247917 21.8560417,16.7591667 21.8822917,16.6789583 L22.0791667,16.0664583 L21.555625,15.684375 C21.4885417,15.6347917 21.5235417,15.5283333 21.6066667,15.526875 L22.2570833,15.5225 L22.46125,14.9114583 C22.4738301,14.8759395 22.5074233,14.8521996 22.5451042,14.8521996 C22.582785,14.8521996 22.6163782,14.8759395 22.6289583,14.9114583 L22.6289583,14.9114583 Z" id="Shape" fill="#F5F5F5"></path>
                </g>
            </g>
        </g>
    </g>
</svg>